<svg height="1536" width="1536" xmlns="http://www.w3.org/2000/svg"><path d="m384 1408h768v-384h-768zm896 0h128v-896q0-14-10-38.5-10-24.5-20-34.5l-281-281q-10-10-34-20-24-10-39-10v416q0 40-28 68-28 28-68 28h-576q-40 0-68-28-28-28-28-68v-416h-128v1280h128v-416q0-40 28-68 28-28 68-28h832q40 0 68 28 28 28 28 68zm-384-928v-320q0-13-9.5-22.5-9.5-9.5-22.5-9.5h-192q-13 0-22.5 9.5-9.5 9.5-9.5 22.5v320q0 13 9.5 22.5 9.5 9.5 22.5 9.5h192q13 0 22.5-9.5 9.5-9.5 9.5-22.5zm640 32v928q0 40-28 68-28 28-68 28h-1344q-40 0-68-28-28-28-28-68v-1344q0-40 28-68 28-28 68-28h928q40 0 88 20 48 20 76 48l280 280q28 28 48 76 20 48 20 88z" fill="#fff"/></svg>