<?xml version="1.0" encoding="UTF-8" standalone="no"?>
<svg
   xmlns:dc="http://purl.org/dc/elements/1.1/"
   xmlns:cc="http://creativecommons.org/ns#"
   xmlns:rdf="http://www.w3.org/1999/02/22-rdf-syntax-ns#"
   xmlns:svg="http://www.w3.org/2000/svg"
   xmlns="http://www.w3.org/2000/svg"
   xmlns:sodipodi="http://sodipodi.sourceforge.net/DTD/sodipodi-0.dtd"
   xmlns:inkscape="http://www.inkscape.org/namespaces/inkscape"
   inkscape:version="1.1-dev (bc69992, 2020-04-15)"
   sodipodi:docname="fullscreen.svg"
   id="svg1355"
   version="1.1"
   width="1536"
   height="1536">
  <metadata
     id="metadata1361">
    <rdf:RDF>
      <cc:Work
         rdf:about="">
        <dc:format>image/svg+xml</dc:format>
        <dc:type
           rdf:resource="http://purl.org/dc/dcmitype/StillImage" />
        <dc:title></dc:title>
      </cc:Work>
    </rdf:RDF>
  </metadata>
  <defs
     id="defs1359" />
  <sodipodi:namedview
     units="px"
     inkscape:current-layer="svg1355"
     inkscape:window-maximized="0"
     inkscape:window-y="23"
     inkscape:window-x="48"
     inkscape:cy="768"
     inkscape:cx="-73.411765"
     inkscape:zoom="0.17708333"
     showgrid="false"
     id="namedview1357"
     inkscape:window-height="997"
     inkscape:window-width="1385"
     inkscape:pageshadow="2"
     inkscape:pageopacity="0"
     guidetolerance="10"
     gridtolerance="10"
     objecttolerance="10"
     borderopacity="1"
     bordercolor="#666666"
     pagecolor="#1b1b1b" />
  <path
     id="path1353"
     fill="#ffffff"
     d="M 1213.9023,1075.3696 906.53277,768.00001 1213.9023,460.63044 1338.5819,585.30993 q 25.109,26.84072 60.6081,12.12161 33.7673,-14.7191 33.7673,-51.08395 V 158.45586 q 0,-22.51158 -16.4509,-38.96234 -16.4507,-16.45077 -38.9623,-16.45077 H 989.65243 q -36.36485,0 -51.08396,34.63319 -14.71911,33.76736 12.12162,59.74225 L 1075.3696,322.09768 768.00001,629.46724 460.63044,322.09768 585.30993,197.41819 q 26.84072,-25.97489 12.12161,-59.74225 -14.7191,-34.63319 -51.08395,-34.63319 H 158.45585 q -22.51157,0 -38.96234,16.45077 -16.45076,16.45076 -16.45076,38.96234 v 387.89173 q 0,36.36485 34.63319,51.08395 33.76736,14.71911 59.74225,-12.12161 L 322.09768,460.63044 629.46724,768.00001 322.09768,1075.3696 197.41819,950.69009 q -16.45076,-16.45077 -38.96234,-16.45077 -10.38995,0 -20.77991,4.32915 -34.63319,14.71911 -34.63319,51.08396 v 387.89177 q 0,22.5116 16.45076,38.9623 16.45077,16.4508 38.96234,16.4508 h 387.89174 q 36.36485,0 51.08395,-34.6332 14.71911,-33.7673 -12.12161,-59.7422 L 460.63044,1213.9024 768.00001,906.53277 1075.3696,1213.9024 950.69009,1338.5819 q -26.84073,25.9749 -12.12162,59.7422 14.71911,34.6332 51.08396,34.6332 h 387.89177 q 22.5116,0 38.9622,-16.4509 16.4509,-16.4507 16.4509,-38.9622 V 989.65243 q 0,-36.36485 -33.7673,-51.08396 -11.2558,-4.32915 -21.6458,-4.32915 -22.5116,0 -38.9623,16.45077 z" />
</svg>
