<svg enable-background="new 0 0 432.544 432.544" height="432.544" viewBox="0 0 432.544 432.544" width="432.544" xmlns="http://www.w3.org/2000/svg"><g fill="#fff"><path d="m0 313.775v118.77h118.771l237.541-237.541-118.773-118.772zm103.638 82.224-30.55.004v-36.546h-36.543v-30.553l25.981-25.981 67.093 67.092zm143.045-271.229c4.182 0 6.276 2.095 6.276 6.28 0 1.906-.664 3.521-1.999 4.856l-154.746 154.745c-1.333 1.328-2.952 1.995-4.854 1.995-4.184 0-6.279-2.098-6.279-6.279 0-1.906.666-3.521 1.997-4.856l154.747-154.743c1.329-1.332 2.948-1.998 4.858-1.998z"/><path d="m421.976 77.654-67.091-66.806c-7.232-7.229-15.893-10.848-25.982-10.848-10.283 0-18.842 3.619-25.693 10.848l-47.394 47.109 118.773 118.77 47.394-47.392c7.042-7.043 10.561-15.608 10.561-25.697-.004-9.895-3.522-18.558-10.568-25.984z"/></g></svg>