<svg height="1792" viewBox="0 0 1792 1792" width="1792" xmlns="http://www.w3.org/2000/svg"><path d="m904.35472 1528.2773-7.8769-1261.09396c-148.79498 0-227.67351 27.02518-324.00196 83.18399-95.00724 55.38855-174.26188 142.18467-228.83188 237.66442-47.07633 82.36826-74.06588 179.31169-76.46065 274.15354-2.84006 112.47682 21.26033 229.98731 74.15355 329.29191 53.09547 99.6843 135.9322 188.0924 232.77034 246.217 97.87177 58.745 231.58083 90.5831 330.2475 90.5831zm759.64528-632.2773c0 139.3333-34.3333 267.8333-103 385.5s-161.8333 210.8333-279.5 279.5-246.1667 103-385.5 103c-139.33333 0-267.83333-34.3333-385.5-103s-210.83333-161.8333-279.5-279.5-103-246.1667-103-385.5c0-139.33333 34.33333-267.83333 103-385.5s161.83333-210.83333 279.5-279.5 246.16667-103 385.5-103c139.3333 0 267.8333 34.33333 385.5 103s210.8333 161.83333 279.5 279.5 103 246.16667 103 385.5z" fill="#fff"/></svg>