<svg height="1792" viewBox="0 0 1792 1792" width="1792" xmlns="http://www.w3.org/2000/svg"><g fill="#fff"><path d="m257.82663 514.45448q0-11.49079 27.06538-19.8879 27.06538-8.39711 64.10223-8.39711h1094.01156q37.0368 0 64.1022 8.3971 27.0654 8.39711 27.0654 19.8879v56.57001q0 11.49079-27.0654 19.8879-27.0654 8.39711-64.1022 8.39711h-1094.01156q-37.03685 0-64.10223-8.39711-27.06538-8.39711-27.06538-19.8879v-56.57001z"/><path d="m257.82663 1228.5074q0-11.4908 27.06538-19.8879 27.06538-8.3971 64.10223-8.3971h1094.01156q37.0368 0 64.1022 8.3971 27.0654 8.3971 27.0654 19.8879v56.57q0 11.4908-27.0654 19.8879-27.0654 8.3971-64.1022 8.3971h-1094.01155q-37.03684 0-64.10223-8.3971-27.06538-8.3971-27.06538-19.8879v-56.57z"/><path d="m257.82666 871.48099q0-11.49079 27.06538-19.88789 27.0654-8.39712 64.10223-8.39712h1094.01143q37.0367 0 64.1022 8.39711 27.0654 8.39711 27.0654 19.88789v56.57002q0 11.4908-27.0654 19.8879-27.0655 8.3971-64.1022 8.3971h-1094.01142q-37.03684 0-64.10224-8.3971-27.06538-8.3971-27.06538-19.8879v-56.57002z"/></g></svg>