<svg height="1792" viewBox="0 0 1792 1792" width="1792" xmlns="http://www.w3.org/2000/svg"><path d="m1521.4994 1516.4129-3.8342-1245.79429c-.027-8.66663-3.1667-16.16667-9.5-22.5s-13.8334-9.47618-22.5-9.5l-802.92142-2.20708c-8.66663-.0238-18.05957 1.72753-24.3929 8.06086s-7.58076 4.20013-7.6071 23.93914l-1.666 1248.77587c-.0116 8.6668 3.16667 16.1667 9.5 22.5s13.83332 9.5083 22.5 9.5l808.42162-.7745c8.6666-.01 16.1667-3.1667 22.5-9.5s9.5267-13.8334 9.5-22.5zm142.5006-1100.4129v960c0 79.3333-28.1667 147.1667-84.5 203.5s-124.1667 84.5-203.5 84.5h-960c-79.33333 0-147.16667-28.1667-203.5-84.5s-84.5-124.1667-84.5-203.5v-960c0-79.33333 28.16667-147.16667 84.5-203.5s124.16667-84.5 203.5-84.5h960c79.3333 0 147.1667 28.16667 203.5 84.5s84.5 124.16667 84.5 203.5z" fill="#fff" transform="matrix(-.93801453 0 0 -.87258542 1736.461 1677.8365)"/></svg>