<svg enable-background="new 0 0 438.533 438.533" height="438.533" viewBox="0 0 438.533 438.533" width="438.533" xmlns="http://www.w3.org/2000/svg"><g fill="#fff"><path d="m312.24353 148.5142h-55.71476v-105.614341c0-2.80155-.87617-5.09976-2.61533-6.90091-1.73202-1.7959-3.95908-2.69858-6.66486-2.69858h-55.7249c-2.70783 0-4.93385.90268-6.67504 2.69858-1.74219 1.8022-2.61227 4.09936-2.61227 6.90091v105.610141h-55.72084c-4.25487 0-7.15784 2.00186-8.70692 5.99928-1.54907 3.80512-.86805 7.30024 2.03188 10.50427l92.86604 96.00645c2.13046 1.798 4.35345 2.69753 6.67502 2.69753 2.31854 0 4.54456-.89953 6.67706-2.69753l92.57534-95.70381c1.93329-2.39908 2.8979-4.80867 2.8979-7.2004 0-2.79736-.86907-5.09976-2.61534-6.90407-1.73711-1.79905-3.96313-2.69752-6.67298-2.69752z"/><path d="m36.23525 305.81445v98.48438h366.0625v-98.48438h-42.73828v55.7461h-280.58594v-55.7461z"/></g></svg>