<svg height="1536" width="1536" xmlns="http://www.w3.org/2000/svg"><g fill="#fff"><path d="m-482.71786 1264.7964c47.30973 124.8869 112.44893 107.4729 112.68455 180.62.14228 44.1772-49.9678 80.0544-111.84205 80.156-61.87176.1016-112.20992-35.6125-112.35223-79.7897-.25437-78.9652 64.18518-53.7188 111.51473-180.9881z"/><g transform="translate(9.590453 28.241584)"><ellipse cx="1076.8032" cy="-686.12292" rx="220.37535" ry="298.82251" transform="matrix(.69676716 .71729738 -.7086439 .70556631 0 0)"/><path d="m886.8516 158.66406c-.6886-.005-1.3805.25382-1.9121.77735l-112.54106 110.81445c-1.06336 1.04705-1.07635 2.74719-.0293 3.81055l404.17776 410.47265c.4976.50542 1.1429.76705 1.7969.79688l64.2031 65.20312c1.047 1.06336 2.7472 1.07635 3.8105.0293l112.541-110.81445c1.0634-1.04705 1.0764-2.74524.029-3.8086l-404.1774-410.47461c-.4972-.50491-1.1416-.76465-1.7949-.79492l-64.2051-65.20508c-.5235-.53168-1.2099-.80132-1.8984-.80664z"/><g fill-rule="evenodd"><path d="m800 464.125 93.75 93.75-875 878.125s17.648209-85.5337 28.125-109.375c18.61452-42.3597 78.72725-122.1817 106.25-159.375 29.84314-40.329 58.54891-64.9235 81.25-112.5 7.83415-16.4187 43.75-125 43.75-125z"/><path d="m956.25 623.5-915.625 831.25s66.80141-6.6189 103.125-18.75c44.5948-14.8935 74.04104-32.1969 93.75-43.75 30.19522-17.7001 78.81364-50.1428 106.25-71.875 27.81048-22.0286 28.68428-29.0772 59.375-46.875 21.09446-12.2328 66.443-43.7367 90.625-46.875 11.4099-1.4807 59.375-18.75 59.375-18.75l496.875-496.875z"/></g></g></g></svg>