<svg height="1536" width="1536" xmlns="http://www.w3.org/2000/svg"><path d="m1213.9023 1075.3696-307.36953-307.36959 307.36953-307.36957 124.6796 124.67949q25.109 26.84072 60.6081 12.12161 33.7673-14.7191 33.7673-51.08395v-387.89173q0-22.51158-16.4509-38.96234-16.4507-16.45077-38.9623-16.45077h-387.89167q-36.36485 0-51.08396 34.63319-14.71911 33.76736 12.12162 59.74225l124.67951 124.67949-307.36959 307.36956-307.36957-307.36956 124.67949-124.67949q26.84072-25.97489 12.12161-59.74225-14.7191-34.63319-51.08395-34.63319h-387.89174q-22.51157 0-38.96234 16.45077-16.45076 16.45076-16.45076 38.96234v387.89173q0 36.36485 34.63319 51.08395 33.76736 14.71911 59.74225-12.12161l124.67949-124.67949 307.36956 307.36957-307.36956 307.36959-124.67949-124.67951q-16.45076-16.45077-38.96234-16.45077-10.38995 0-20.77991 4.32915-34.63319 14.71911-34.63319 51.08396v387.89177q0 22.5116 16.45076 38.9623 16.45077 16.4508 38.96234 16.4508h387.89174q36.36485 0 51.08395-34.6332 14.71911-33.7673-12.12161-59.7422l-124.67949-124.6795 307.36957-307.36963 307.36959 307.36963-124.67951 124.6795q-26.84073 25.9749-12.12162 59.7422 14.71911 34.6332 51.08396 34.6332h387.89177q22.5116 0 38.9622-16.4509 16.4509-16.4507 16.4509-38.9622v-387.89177q0-36.36485-33.7673-51.08396-11.2558-4.32915-21.6458-4.32915-22.5116 0-38.9623 16.45077z" fill="#fff"/></svg>