<?xml version="1.0" encoding="UTF-8" standalone="no"?>
<svg
   xmlns:dc="http://purl.org/dc/elements/1.1/"
   xmlns:cc="http://creativecommons.org/ns#"
   xmlns:rdf="http://www.w3.org/1999/02/22-rdf-syntax-ns#"
   xmlns:svg="http://www.w3.org/2000/svg"
   xmlns="http://www.w3.org/2000/svg"
   xmlns:sodipodi="http://sodipodi.sourceforge.net/DTD/sodipodi-0.dtd"
   xmlns:inkscape="http://www.inkscape.org/namespaces/inkscape"
   width="1792"
   height="1792"
   viewBox="0 0 1792 1792"
   id="svg2"
   version="1.1"
   inkscape:version="0.91 r13725"
   sodipodi:docname="adjust_.svg">
  <metadata
     id="metadata10">
    <rdf:RDF>
      <cc:Work
         rdf:about="">
        <dc:format>image/svg+xml</dc:format>
        <dc:type
           rdf:resource="http://purl.org/dc/dcmitype/StillImage" />
        <dc:title></dc:title>
      </cc:Work>
    </rdf:RDF>
  </metadata>
  <defs
     id="defs8" />
  <sodipodi:namedview
     pagecolor="#ffffff"
     bordercolor="#666666"
     borderopacity="1"
     objecttolerance="10"
     gridtolerance="10"
     guidetolerance="10"
     inkscape:pageopacity="0"
     inkscape:pageshadow="2"
     inkscape:window-width="1309"
     inkscape:window-height="880"
     id="namedview6"
     showgrid="false"
     inkscape:zoom="0.12695344"
     inkscape:cx="411.42635"
     inkscape:cy="896"
     inkscape:window-x="71"
     inkscape:window-y="108"
     inkscape:window-maximized="0"
     inkscape:current-layer="svg2" />
  <g
     id="g4154">
    <path
       style="fill:#ffffff;fill-opacity:1"
       id="path4"
       d="m 904.35472,1528.2773 -7.8769,-1261.09396 c -148.79498,0 -227.67351,27.02518 -324.00196,83.18399 -95.00724,55.38855 -174.26188,142.18467 -228.83188,237.66442 -47.07633,82.36826 -74.06588,179.31169 -76.46065,274.15354 -2.84006,112.47682 21.26033,229.98731 74.15355,329.29191 53.09547,99.6843 135.9322,188.0924 232.77034,246.217 97.87177,58.745 231.58083,90.5831 330.2475,90.5831 z M 1664,896 c 0,139.3333 -34.3333,267.8333 -103,385.5 -68.6667,117.6667 -161.8333,210.8333 -279.5,279.5 -117.6667,68.6667 -246.1667,103 -385.5,103 -139.33333,0 -267.83333,-34.3333 -385.5,-103 C 392.83333,1492.3333 299.66667,1399.1667 231,1281.5 162.33333,1163.8333 128,1035.3333 128,896 128,756.66667 162.33333,628.16667 231,510.5 299.66667,392.83333 392.83333,299.66667 510.5,231 628.16667,162.33333 756.66667,128 896,128 c 139.3333,0 267.8333,34.33333 385.5,103 117.6667,68.66667 210.8333,161.83333 279.5,279.5 68.6667,117.66667 103,246.16667 103,385.5 z"
       inkscape:connector-curvature="0"
       sodipodi:nodetypes="ccaaaaacsssssssssssss" />
  </g>
</svg>
