<?xml version="1.0" encoding="UTF-8" standalone="no"?>
<svg
   xmlns:dc="http://purl.org/dc/elements/1.1/"
   xmlns:cc="http://creativecommons.org/ns#"
   xmlns:rdf="http://www.w3.org/1999/02/22-rdf-syntax-ns#"
   xmlns:svg="http://www.w3.org/2000/svg"
   xmlns="http://www.w3.org/2000/svg"
   xmlns:sodipodi="http://sodipodi.sourceforge.net/DTD/sodipodi-0.dtd"
   xmlns:inkscape="http://www.inkscape.org/namespaces/inkscape"
   width="1792"
   height="1792"
   viewBox="0 0 1792 1792"
   id="svg2"
   version="1.1"
   inkscape:version="0.91 r13725"
   sodipodi:docname="caret-square-o-left.svg">
  <metadata
     id="metadata10">
    <rdf:RDF>
      <cc:Work
         rdf:about="">
        <dc:format>image/svg+xml</dc:format>
        <dc:type
           rdf:resource="http://purl.org/dc/dcmitype/StillImage" />
        <dc:title></dc:title>
      </cc:Work>
    </rdf:RDF>
  </metadata>
  <defs
     id="defs8" />
  <sodipodi:namedview
     pagecolor="#ffffff"
     bordercolor="#666666"
     borderopacity="1"
     objecttolerance="10"
     gridtolerance="10"
     guidetolerance="10"
     inkscape:pageopacity="0"
     inkscape:pageshadow="2"
     inkscape:window-width="1785"
     inkscape:window-height="1082"
     id="namedview6"
     showgrid="false"
     inkscape:zoom="0.37811279"
     inkscape:cx="1211.0835"
     inkscape:cy="922.19364"
     inkscape:window-x="4"
     inkscape:window-y="46"
     inkscape:window-maximized="0"
     inkscape:current-layer="svg2" />
  <g
     id="g4210"
     transform="matrix(0.93801453,0,0,0.87258542,55.538981,114.16346)">
    <path
       sodipodi:nodetypes="ssssssssssssssssssssssssss"
       inkscape:connector-curvature="0"
       style="fill:#ffffff;fill-opacity:1"
       id="path4"
       d="m 1521.4994,1516.4129 -3.8342,-1245.79429 c -0.027,-8.66663 -3.1667,-16.16667 -9.5,-22.5 -6.3333,-6.33333 -13.8334,-9.47618 -22.5,-9.5 l -802.92142,-2.20708 c -8.66663,-0.0238 -18.05957,1.72753 -24.3929,8.06086 -6.33333,6.33333 -7.58076,4.20013 -7.6071,23.93914 l -1.666,1248.77587 c -0.0116,8.6668 3.16667,16.1667 9.5,22.5 6.33333,6.3333 13.83332,9.5083 22.5,9.5 l 808.42162,-0.7745 c 8.6666,-0.01 16.1667,-3.1667 22.5,-9.5 6.3333,-6.3333 9.5267,-13.8334 9.5,-22.5 z M 1664,416 l 0,960 c 0,79.3333 -28.1667,147.1667 -84.5,203.5 -56.3333,56.3333 -124.1667,84.5 -203.5,84.5 l -960,0 c -79.33333,0 -147.16667,-28.1667 -203.5,-84.5 C 156.16667,1523.1667 128,1455.3333 128,1376 l 0,-960 C 128,336.66667 156.16667,268.83333 212.5,212.5 268.83333,156.16667 336.66667,128 416,128 l 960,0 c 79.3333,0 147.1667,28.16667 203.5,84.5 56.3333,56.33333 84.5,124.16667 84.5,203.5 z" />
  </g>
</svg>
