<svg enable-background="new 0 0 511.626 511.626" height="511.626" viewBox="0 0 511.626 511.626" width="511.626" xmlns="http://www.w3.org/2000/svg"><g fill="#fff"><path d="m301.927 327.605c30.926-13.038 55.34-30.785 73.23-53.248 17.888-22.458 26.833-46.915 26.833-73.372 0-26.458-8.945-50.917-26.84-73.376-17.888-22.459-42.298-40.208-73.228-53.249-30.93-13.039-64.571-19.556-100.928-19.556-36.354 0-69.995 6.521-100.927 19.556-30.929 13.04-55.34 30.789-73.229 53.249-17.891 22.463-26.838 46.918-26.838 73.377 0 22.648 6.767 43.975 20.28 63.96 13.512 19.981 32.071 36.829 55.671 50.531-1.902 4.572-3.853 8.754-5.852 12.566-2 3.806-4.377 7.467-7.139 10.991-2.76 3.525-4.899 6.283-6.423 8.275-1.523 1.998-3.997 4.812-7.425 8.422-3.427 3.617-5.617 5.996-6.567 7.135 0-.191-.381.24-1.143 1.287-.763 1.047-1.191 1.52-1.285 1.431-.096-.103-.477.373-1.143 1.42-.666 1.048-1 1.571-1 1.571l-.715 1.423c-.282.575-.476 1.137-.57 1.712-.096.567-.144 1.19-.144 1.854s.094 1.28.288 1.854c.381 2.471 1.475 4.466 3.283 5.996 1.807 1.52 3.756 2.279 5.852 2.279h.857c9.515-1.332 17.701-2.854 24.552-4.569 29.312-7.61 55.771-19.797 79.372-36.545 17.129 3.046 33.879 4.568 50.247 4.568 36.357.013 70.002-6.502 100.931-19.542z"/><path d="m491.354 338.166c13.518-19.889 20.272-41.247 20.272-64.09 0-23.414-7.146-45.316-21.416-65.68-14.277-20.362-33.694-37.305-58.245-50.819 4.374 14.274 6.563 28.739 6.563 43.398 0 25.503-6.368 49.676-19.129 72.519-12.752 22.836-31.025 43.01-54.816 60.524-22.08 15.988-47.205 28.261-75.377 36.829-28.164 8.562-57.573 12.848-88.218 12.848-5.708 0-14.084-.377-25.122-1.137 38.256 25.119 83.177 37.685 134.756 37.685 16.371 0 33.119-1.526 50.251-4.571 23.6 16.755 50.06 28.931 79.37 36.549 6.852 1.718 15.037 3.237 24.554 4.568 2.283.191 4.381-.476 6.283-1.999 1.903-1.522 3.142-3.61 3.71-6.272-.089-1.143 0-1.77.287-1.861.281-.09.233-.712-.144-1.852-.376-1.144-.568-1.715-.568-1.715l-.712-1.424c-.198-.376-.52-.903-.999-1.567-.476-.66-.855-1.143-1.143-1.427-.28-.284-.705-.763-1.28-1.424-.568-.66-.951-1.092-1.143-1.283-.951-1.143-3.139-3.521-6.564-7.139-3.429-3.613-5.899-6.42-7.422-8.418-1.523-1.999-3.665-4.757-6.424-8.282-2.758-3.518-5.14-7.183-7.139-10.991-1.998-3.806-3.949-7.995-5.852-12.56 23.602-13.716 42.156-30.513 55.667-50.409z"/></g></svg>