<svg height="1536" width="1536" xmlns="http://www.w3.org/2000/svg"><path d="m1349.5324 410.13387q0 37.27772-26.0944 63.37212l-193.8441 193.84411q-26.0944 26.0944-63.3722 26.0944-39.1416 0-67.09984-29.82217 2.79584-2.79583 17.70694-17.24094 14.911-14.44512 20.0367-20.03677 5.1257-5.59166 13.9792-17.70692 8.8534-12.11526 12.1152-23.76454 3.2618-11.64929 3.2618-25.62843 0-37.27771-26.0944-63.37212-26.0943-26.0944-63.37209-26.0944-13.97914 0-25.62843 3.2618-11.64929 3.2618-23.76454 12.11526-12.11526 8.85346-17.70692 13.97914-5.59166 5.12569-20.03677 20.03678-14.44511 14.91108-17.24094 17.70691-30.75412-28.89023-30.75412-68.03183 0-37.27771 26.0944-63.37211l191.98021-192.91218q25.1625-25.16246 63.3722-25.16246 37.2777 0 63.3721 24.23052l136.9956 136.06366q26.0944 26.0944 26.0944 62.44017zm-655.15587 657.01983q0 37.2777-26.0944 63.3721l-191.98023 192.9122q-26.0944 26.0944-63.37212 26.0944-36.34577 0-63.37212-25.1625l-136.9956-136.0636q-26.0944-26.0944-26.0944-62.4402 0-37.2777 26.0944-63.3721l193.84412-193.8442q25.16246-25.16246 63.37212-25.16246 39.1416 0 67.09988 28.89023-2.79583 2.79583-17.70691 17.24095-14.91109 14.44511-20.03677 20.03677-5.12569 5.59165-13.97915 17.70691-8.85345 12.11526-12.11525 23.7645-3.2618 11.6493-3.2618 25.6285 0 37.2777 26.0944 63.3721 26.0944 26.0944 63.37211 26.0944 13.97914 0 25.62843-3.2618 11.64929-3.2618 23.76454-12.1152 12.11526-8.8535 17.70692-13.9792 5.59165-5.1257 20.03677-20.0367 14.44511-14.9111 17.24094-17.707 30.75412 28.8903 30.75412 68.0319zm834.08887-657.01983q0-111.83314-79.2151-189.1844l-136.9956-136.063609q-77.3513-77.351262-189.1844-77.351262-112.7651 0-190.11641 79.215142l-191.98023 192.912129q-77.35125 77.35126-77.35125 189.1844 0 114.62897 82.01097 194.77606l-82.01097 82.01097q-80.14708-82.01097-193.84411-82.01097-111.83315 0-190.11635 78.2832l-193.844107 193.84416q-78.2832055 78.28321-78.2832055 190.11641 0 111.8331 79.2151455 189.1844l136.995597 136.0636q77.35126 77.3513 189.1844 77.3513 112.76509 0 190.11635-79.2151l191.98022-192.9122q77.35126-77.3513 77.35126-189.1844 0-114.629-82.01098-194.77613l82.01098-82.01101q80.14708 82.01101 193.84409 82.01101 111.8332 0 190.1164-78.2832l193.8441-193.84415q78.2832-78.2832 78.2832-190.11635z" fill="#fff" horiz-adv-x="1664" unicode="&#xf0c1;"/></svg>