<?xml version="1.0" encoding="UTF-8" standalone="no"?>
<svg
   xmlns:dc="http://purl.org/dc/elements/1.1/"
   xmlns:cc="http://creativecommons.org/ns#"
   xmlns:rdf="http://www.w3.org/1999/02/22-rdf-syntax-ns#"
   xmlns:svg="http://www.w3.org/2000/svg"
   xmlns="http://www.w3.org/2000/svg"
   xmlns:sodipodi="http://sodipodi.sourceforge.net/DTD/sodipodi-0.dtd"
   xmlns:inkscape="http://www.inkscape.org/namespaces/inkscape"
   id="svg2"
   version="1.1"
   inkscape:version="0.91 r13725"
   sodipodi:docname="link.svg"
   width="1536"
   height="1536">
  <metadata
     id="metadata10">
    <rdf:RDF>
      <cc:Work
         rdf:about="">
        <dc:format>image/svg+xml</dc:format>
        <dc:type
           rdf:resource="http://purl.org/dc/dcmitype/StillImage" />
        <dc:title></dc:title>
      </cc:Work>
    </rdf:RDF>
  </metadata>
  <defs
     id="defs8" />
  <sodipodi:namedview
     pagecolor="#ffffff"
     bordercolor="#666666"
     borderopacity="1"
     objecttolerance="10"
     gridtolerance="10"
     guidetolerance="10"
     inkscape:pageopacity="0"
     inkscape:pageshadow="2"
     inkscape:window-width="1672"
     inkscape:window-height="1132"
     id="namedview6"
     showgrid="false"
     fit-margin-top="0"
     fit-margin-left="0"
     fit-margin-right="0"
     fit-margin-bottom="0"
     inkscape:zoom="0.083281391"
     inkscape:cx="494.12155"
     inkscape:cy="912.40976"
     inkscape:window-x="58"
     inkscape:window-y="0"
     inkscape:window-maximized="0"
     inkscape:current-layer="svg2" />
  <path
     inkscape:connector-curvature="0"
     unicode="ïƒ"
     horiz-adv-x="1664"
     d="m 1349.5324,410.13387 q 0,37.27772 -26.0944,63.37212 L 1129.5939,667.3501 q -26.0944,26.0944 -63.3722,26.0944 -39.1416,0 -67.09984,-29.82217 2.79584,-2.79583 17.70694,-17.24094 14.911,-14.44512 20.0367,-20.03677 5.1257,-5.59166 13.9792,-17.70692 8.8534,-12.11526 12.1152,-23.76454 3.2618,-11.64929 3.2618,-25.62843 0,-37.27771 -26.0944,-63.37212 -26.0943,-26.0944 -63.37209,-26.0944 -13.97914,0 -25.62843,3.2618 -11.64929,3.2618 -23.76454,12.11526 -12.11526,8.85346 -17.70692,13.97914 -5.59166,5.12569 -20.03677,20.03678 -14.44511,14.91108 -17.24094,17.70691 -30.75412,-28.89023 -30.75412,-68.03183 0,-37.27771 26.0944,-63.37211 L 1059.6981,212.56198 q 25.1625,-25.16246 63.3722,-25.16246 37.2777,0 63.3721,24.23052 L 1323.438,347.6937 q 26.0944,26.0944 26.0944,62.44017 z M 694.37653,1067.1537 q 0,37.2777 -26.0944,63.3721 L 476.3019,1323.438 q -26.0944,26.0944 -63.37212,26.0944 -36.34577,0 -63.37212,-25.1625 l -136.9956,-136.0636 q -26.0944,-26.0944 -26.0944,-62.4402 0,-37.2777 26.0944,-63.3721 L 406.40618,868.6498 q 25.16246,-25.16246 63.37212,-25.16246 39.1416,0 67.09988,28.89023 -2.79583,2.79583 -17.70691,17.24095 -14.91109,14.44511 -20.03677,20.03677 -5.12569,5.59165 -13.97915,17.70691 -8.85345,12.11526 -12.11525,23.7645 -3.2618,11.6493 -3.2618,25.6285 0,37.2777 26.0944,63.3721 26.0944,26.0944 63.37211,26.0944 13.97914,0 25.62843,-3.2618 11.64929,-3.2618 23.76454,-12.1152 12.11526,-8.8535 17.70692,-13.9792 5.59165,-5.1257 20.03677,-20.0367 14.44511,-14.9111 17.24094,-17.707 30.75412,28.8903 30.75412,68.0319 z M 1528.4654,410.13387 q 0,-111.83314 -79.2151,-189.1844 L 1312.2547,84.885861 Q 1234.9034,7.534599 1123.0703,7.534599 q -112.7651,0 -190.11641,79.215142 L 740.97366,279.66187 q -77.35125,77.35126 -77.35125,189.1844 0,114.62897 82.01097,194.77606 l -82.01097,82.01097 q -80.14708,-82.01097 -193.84411,-82.01097 -111.83315,0 -190.11635,78.2832 L 85.817843,935.74969 Q 7.5346375,1014.0329 7.5346375,1125.8661 q 0,111.8331 79.2151455,189.1844 l 136.995597,136.0636 q 77.35126,77.3513 189.1844,77.3513 112.76509,0 190.11635,-79.2151 l 191.98022,-192.9122 q 77.35126,-77.3513 77.35126,-189.1844 0,-114.629 -82.01098,-194.77613 l 82.01098,-82.01101 q 80.14708,82.01101 193.84409,82.01101 111.8332,0 190.1164,-78.2832 l 193.8441,-193.84415 q 78.2832,-78.2832 78.2832,-190.11635 z"
     id="path4-4"
     style="fill:#ffffff;fill-opacity:1" />
</svg>
