<?xml version="1.0" encoding="UTF-8" standalone="no"?>
<svg
   xmlns:dc="http://purl.org/dc/elements/1.1/"
   xmlns:cc="http://creativecommons.org/ns#"
   xmlns:rdf="http://www.w3.org/1999/02/22-rdf-syntax-ns#"
   xmlns:svg="http://www.w3.org/2000/svg"
   xmlns="http://www.w3.org/2000/svg"
   xmlns:sodipodi="http://sodipodi.sourceforge.net/DTD/sodipodi-0.dtd"
   xmlns:inkscape="http://www.inkscape.org/namespaces/inkscape"
   inkscape:version="1.0beta1 (76ce730, 2019-10-19)"
   height="438.53299"
   width="438.53299"
   sodipodi:docname="scroll.svg"
   id="svg835"
   style="color:#adb5bd;font-size:112px;line-height:128.8px;text-decoration:none;text-decoration-line:none;text-decoration-style:solid;text-decoration-color:#adb5bd"
   version="1.1"
   class="svg-inline--fa fa-scroll fa-w-20 fa-7x"
   viewBox="0 0 438.53299 438.53299"
   role="img"
   data-icon="scroll"
   data-prefix="fas"
   focusable="false"
   aria-hidden="true">
  <metadata
     id="metadata841">
    <rdf:RDF>
      <cc:Work
         rdf:about="">
        <dc:format>image/svg+xml</dc:format>
        <dc:type
           rdf:resource="http://purl.org/dc/dcmitype/StillImage" />
        <dc:title></dc:title>
      </cc:Work>
    </rdf:RDF>
  </metadata>
  <defs
     id="defs839" />
  <sodipodi:namedview
     inkscape:current-layer="svg835"
     inkscape:window-maximized="0"
     inkscape:window-y="23"
     inkscape:window-x="0"
     inkscape:cy="182.85714"
     inkscape:cx="344.28571"
     inkscape:zoom="0.7"
     units="px"
     showgrid="false"
     id="namedview837"
     inkscape:window-height="880"
     inkscape:window-width="1600"
     inkscape:pageshadow="2"
     inkscape:pageopacity="0"
     guidetolerance="10"
     gridtolerance="10"
     objecttolerance="10"
     borderopacity="1"
     inkscape:document-rotation="0"
     bordercolor="#666666"
     pagecolor="#000000" />
  <path
     sodipodi:nodetypes="sssscsssccsscsscscscsssc"
     inkscape:connector-curvature="0"
     id="path833"
     style="color:#adb5bd;font-size:112px;line-height:128.8px;text-decoration:none;text-decoration-line:none;text-decoration-style:solid;text-decoration-color:#adb5bd;fill:#ffffff;fill-opacity:1;stroke-width:0.684368"
     class=""
     d="m 38.337924,18.123636 c -17.607276,0 -31.9285713,15.15953 -31.9285713,33.797372 v 45.063157 c 0,6.224355 4.7626783,11.265785 10.6428573,11.265785 H 70.266496 V 51.921008 c 0,-18.637842 -14.321295,-33.797372 -31.928572,-33.797372 z M 176.69507,350.39949 V 307.75144 H 368.2665 V 85.71838 c 0,-37.275684 -28.6426,-67.594744 -63.85715,-67.594744 H 80.63663 c 6.751563,9.442141 10.91558,21.067029 10.91558,33.797372 V 352.8146 c 0,27.36884 23.04844,49.04139 49.7221,44.44354 20.93316,-3.60504 35.42076,-24.40451 35.42076,-46.85865 z m 21.28571,-20.11647 v 22.53158 c 0,37.26864 -28.64259,67.59475 -63.85714,67.59475 h 223.5 c 41.14795,0 74.5,-35.30417 74.5,-78.86054 0,-6.22435 -4.76268,-11.26579 -10.64286,-11.26579 z"
     fill="currentColor" />
</svg>
