<svg height="1536" width="1536" xmlns="http://www.w3.org/2000/svg"><circle cx="771.36877" cy="769.58008" fill="#fff" r="741.44299"/><path d="m476.54792 425.97171q10.06623-10.03115 30.83387-3.90314 20.76765 6.128 39.12031 24.54484l542.1094 544.00499q18.3526 18.4168 24.4081 39.2057 6.0555 20.7889-4.0107 30.8201l-49.5568 49.3841q-10.0662 10.0311-30.8339 3.9031-20.7676-6.128-39.1203-24.5448l-542.10936-544.005q-18.35266-18.41684-24.40814-39.20574-6.05548-20.78891 4.01075-30.82006l49.55678-49.3841z"/><path d="m1110.0283 476.54791q10.0311 10.06622 3.9031 30.83387-6.128 20.76765-24.5448 39.12031l-544.00501 542.10941q-18.41683 18.3526-39.20574 24.4081-20.7889 6.0555-30.82005-4.0107l-49.38409-49.5568q-10.03115-10.0662-3.90316-30.8339 6.12802-20.7676 24.54485-39.1203l544.00501-542.10937q18.41679-18.35266 39.20569-24.40815 20.789-6.05547 30.8201 4.01076l49.3841 49.55678z"/></svg>