<svg enable-background="new 0 0 438.536 438.536" height="438.536" viewBox="0 0 438.536 438.536" width="438.536" xmlns="http://www.w3.org/2000/svg"><path d="m388.54414 147.92304c-9.73441-22.66722-22.82404-42.22073-39.26217-58.658858-16.44149-16.43898-35.99416-29.526086-58.66222-39.264686-22.66553-9.7386-46.44473-14.604127-71.34596-14.604127-23.4622 0-46.16631 4.425264-68.11653 13.285856-21.94518 8.858915-41.45845 21.348107-58.538103 37.470927l-31.12864-30.889635c-4.789214-4.948548-10.29375-6.064717-16.521154-3.353541-6.385899 2.717047-9.578429 7.427434-9.578429 14.130326v107.262128c0 4.14937 1.517018 7.74107 4.550215 10.77343 3.034874 3.03319 6.626575 4.55021 10.775942 4.55021h107.262139c6.7054 0 11.41327-3.19253 14.12696-9.57759 2.71202-6.22489 1.59585-11.73026-3.35354-16.52115l-32.80163-33.03896c11.17679-10.53526 23.9444-18.63525 38.30952-24.30247 14.36597-5.666388 29.36843-8.501678 45.01158-8.501678 16.5983 0 32.44271 3.2353 47.52651 9.696668 15.08632 6.46557 28.12982 15.20456 39.14477 26.21867 11.0141 11.01158 19.75309 24.05928 26.21866 39.14476 6.45969 15.0838 9.69415 30.92318 9.69415 47.52652 0 16.6025-3.23362 32.44187-9.69415 47.52484-6.46557 15.0838-15.20456 28.12982-26.21866 39.14476-11.01495 11.0141-24.06348 19.75561-39.14477 26.21866-15.0838 6.46305-30.92821 9.695-47.52651 9.695-18.99501 0-36.95184-4.15021-53.87217-12.44726-16.91781-8.29706-31.20327-20.02816-42.85554-35.19834-1.11617-1.59501-2.95269-2.55436-5.50705-2.87554-2.39503 0-4.39088.717-5.98673 2.15183l-32.800793 33.04231c-1.27551 1.28305-1.95393 2.91663-2.03444 4.9083-.0788 2.00004.44194 3.7938 1.55811 5.38964 17.40001 21.0697 38.467183 37.39043 63.207403 48.95884 24.74022 11.57093 50.83981 17.35975 78.29288 17.35975 24.90123 0 48.68043-4.87056 71.34596-14.60497 22.66806-9.73356 42.21486-22.82654 58.65887-39.26384 16.44065-16.444 29.52775-35.99332 39.26468-58.65886 9.73692-22.66554 14.60077-46.45144 14.60077-71.34764.00084-24.90458-4.86637-48.67791-14.59993-71.34428z" fill="#fff" transform="matrix(.77966051 0 0 .77966051 48.313794 48.312625)"/></svg>