<svg enable-background="new 0 0 401.994 401.994" height="401.994" viewBox="0 0 401.994 401.994" width="401.994" xmlns="http://www.w3.org/2000/svg"><g fill="#fff"><g transform="translate(-.684107 -2.685549)"><path d="m397.71519 216.99833c-3.16217-3.1718-7.25956-7.04108-11.59909-7.09266l-56.08126-.66677v-53.55711l40.34911-41.54282c5.05504-7.41326 8.19828-10.84551 9.14121-19.431217.4736-4.312163-.17544-12.807726-3.34548-15.980401-3.16916-3.170921-9.75469-5.699323-14.09454-5.699323-4.33984 0-15.73077 2.886342-22.90049 10.390327l-40.68249 36.346814-189.63673 1.00014-46.314692-42.980905c-3.171803-3.170921-13.593446-6.089885-17.933305-6.089885-4.342472 0-11.096958 2.919847-14.26875 6.089885-3.171803 3.171804-6.195582 7.933737-6.42328 12.26585-.333372 6.342759-.415692 11.098725 3.756249 17.935925l45.981307 46.98146v47.93706l-55.747883 1.00014c-8.052978.14446-12.7621093 6.5879-14.9328811 11.42659-2.8384203 5.16945-1.4243437 15.26386-1.4243437 19.60019 0 4.33986 1.5863372 6.43316 4.7581292 9.5997 3.1709206 3.17179 6.9258646 4.76251 11.2657126 4.76251h56.081266c0 26.6994.508394 41.23744 10.187769 60.2612l-45.570932 49.83097c-9.839535 9.67523-7.799188 17.55526-7.547517 21.97577.249046 4.41703 4.96032 13.13232 8.132112 16.14013 3.171792 2.6702 6.75837 4.00837 10.764113 4.00837 4.673953 0 15.346407-1.74595 24.020636-12.25806l40.14779-40.49245-2.57663-.82278c2.3361 2.17386 5.96389 4.87916 10.89039 8.13251 4.92563 3.25334 2.88914 4.62346 8.97931 7.88557 6.09454 3.25335 10.46726 6.3729 10.46726 6.3729s-43.02287-169.52113-9.07707-205.1229l138.1268.66676c37.19719 36.14927-5.81892 203.63858-5.81892 203.63858 7.74134-4.00419 14.14398-10.49495 20.35731-15.48436 1.67405-1.33816 1.92265-1.08854 2.75657-1.91984l48.90869 46.98661c3.1535 3.0296 12.75921 2.42272 17.26654 2.42272 4.50821 0 8.22261-1.62267 11.27185-4.75638 3.12387-3.21038 5.72739-7.6111 6.08728-11.93598.33338-4.00647.74209-12.79601-2.4201-15.93301l-52.74495-52.32457c11.18504-19.86297 13.44158-35.73132 13.44158-64.27047l56.41466-.33337c4.33977-.0257 8.09918-4.25425 11.26572-7.42605 3.16916-3.16917 4.76337-6.92587 4.76337-11.26571 0-4.33897-1.25996-13.09899-4.4414-16.27166z"/><path d="m258.56462 29.21c-15.60469-15.604688-34.50832-23.4100974-56.70739-23.4100974-22.20258 0-41.10095 7.8054094-56.70826 23.4100974-15.60468 15.606431-23.4057 34.509187-23.4057 56.707377h160.22617c0-22.194683-7.80015-41.100946-23.40482-56.707377z"/></g><rect height="223.47653" ry=".549833" width="41.489315" x="180.12723" y="163.57355"/></g></svg>