<svg height="68.824051mm" viewBox="0 0 334.1485 243.86475" width="94.304131mm" xmlns="http://www.w3.org/2000/svg"><g fill="#fff" transform="translate(-233.29586 -422.67515)"><path d="m233.29586 599.44247h26.43232q5.91493 0 9.88902 1.47873 3.97409 1.47873 6.37703 3.88167 2.40293 2.40294 3.41956 5.54524 1.10905 3.04988 1.10905 6.19219 0 2.6802-.92421 5.08314-.9242 2.40293-2.6802 4.25135-1.66357 1.84841-4.06651 3.1423-2.31052 1.20147-5.17556 1.57115l.18484.18484q.64695-.0924 3.04989.55453 2.40294.64694 4.99071 2.49536 2.68021 1.75599 4.71346 4.99072 2.12568 3.1423 2.12568 8.13302 0 4.52861-1.66358 7.94818-1.66357 3.41956-4.71345 5.8225-2.95746 2.31052-7.20882 3.51199-4.25135 1.20147-9.42691 1.20147h-26.43232zm26.43232 29.9443q8.41029 0 12.56922-3.69682 4.15893-3.78925 4.15893-9.88902 0-3.60441-1.38631-6.00734-1.38631-2.49536-3.69683-3.97409-2.31052-1.57116-5.3604-2.2181-2.95746-.64695-6.28461-.64695h-22.36581v26.43232zm0 32.53209q8.87239 0 13.86311-3.69683 5.08314-3.78925 5.08314-11.27532 0-4.25136-1.756-6.93156-1.75599-2.77262-4.52861-4.34377-2.6802-1.57115-6.09977-2.12567-3.32714-.64695-6.56187-.64695h-22.36581v29.0201z"/><path d="m294.28486 628.46257h.27726q.64695-2.31052 2.31052-4.34378 1.75599-2.03325 4.15893-3.51198 2.49536-1.47873 5.45282-2.2181 3.04988-.83179 6.28461-.73936v3.51198q-2.77262-.36968-6.37703.55453-3.51199.9242-6.74671 4.06651-1.29389 1.38631-2.31052 2.6802-.92421 1.29389-1.57115 2.86504-.64694 1.57115-1.01663 3.51199-.36968 1.94083-.4621 4.62103v25.97022h-3.51199v-47.50424h3.51199z"/><path d="m346.29605 656.00394h-.18484q-.83179 2.12567-2.40294 4.06651-1.57115 1.84841-3.88167 3.32714-2.21809 1.47873-5.08314 2.31052-2.86504.83179-6.2846.83179-7.5785 0-11.73743-3.23473-4.15893-3.32714-4.15893-10.16628 0-4.15893 1.66357-6.74671 1.66357-2.6802 4.15893-4.15893 2.58778-1.57115 5.63766-2.2181 3.14231-.64694 6.00735-.9242l5.45282-.46211q3.78925-.27726 5.91492-.83178 2.2181-.64695 3.32715-1.66357 1.10905-1.10905 1.38631-2.77263.27726-1.66357.27726-4.15893 0-1.94083-.73936-3.6044-.73937-1.66358-2.31052-2.95747-1.57115-1.29389-4.06651-2.03325-2.49536-.73937-6.09977-.73937-6.37703 0-10.35112 3.14231-3.88167 3.1423-4.25135 9.51933h-3.51198q.36968-7.85576 4.99071-11.73743 4.71346-3.97409 13.30858-3.97409 8.59513 0 12.4768 3.41956 3.97409 3.32715 3.97409 8.77997v27.63379q0 1.01663 0 2.03326.0924 1.01662.36968 1.84841.27726.83179.92421 1.38631.64694.4621 1.84841.4621.92421 0 2.58778-.27726v2.95746q-1.38631.36969-2.86504.36969-2.12568 0-3.41957-.55453-1.20146-.55452-1.84841-1.47873-.64694-.92421-.92421-2.12567-.18484-1.29389-.18484-2.77263v-2.49535zm0-17.55994q-1.29389 1.57115-3.97409 2.12568-2.58778.55452-5.8225.83179l-5.91493.55452q-2.58778.27726-5.17556.83179-2.58778.4621-4.71345 1.66357-2.03326 1.20147-3.32715 3.32714-1.29389 2.03326-1.29389 5.3604 0 5.26798 3.32715 7.85576 3.32714 2.49536 9.14965 2.49536 6.00734 0 9.51933-2.12567 3.51199-2.2181 5.3604-4.99072 1.84841-2.86504 2.31052-5.45282.55452-2.6802.55452-3.60441z"/><path d="m361.82273 608.9618v-9.51933h3.51199v9.51933zm0 56.46905v-47.50424h3.51199v47.50424z"/><path d="m376.51473 617.92661h3.51199v10.16627h.18484q.92421-2.6802 2.58778-4.71345 1.75599-2.12568 3.97409-3.60441 2.31052-1.47873 4.99072-2.2181 2.6802-.73936 5.45282-.73936 4.15893 0 7.02397 1.01663 2.95746 1.01662 4.80588 2.6802 1.84841 1.66357 2.86504 3.78925 1.10905 2.03325 1.57115 4.15893.46211 2.12567.55453 4.15893.0924 1.94083.0924 3.41956v29.38979h-3.51199v-30.03673q0-1.75599-.27726-4.43619-.27726-2.6802-1.66357-5.08314-1.29389-2.49536-4.06652-4.25135-2.6802-1.756-7.48607-1.756-4.06651 0-7.20882 1.47873-3.1423 1.47873-5.3604 4.15893-2.21809 2.58778-3.41956 6.28461-1.10905 3.60441-1.10905 7.94818v25.69296h-3.51199v-47.50424z"/><path d="m425.17712 599.44247h26.43232q5.91492 0 9.88901 1.47873 3.97409 1.47873 6.37703 3.88167 2.40294 2.40294 3.41957 5.54524 1.10905 3.04988 1.10905 6.19219 0 2.6802-.92421 5.08314-.92421 2.40293-2.6802 4.25135-1.66357 1.84841-4.06651 3.1423-2.31052 1.20147-5.17556 1.57115l.18484.18484q.64695-.0924 3.04988.55453 2.40294.64694 4.99072 2.49536 2.6802 1.75599 4.71346 4.99072 2.12567 3.1423 2.12567 8.13302 0 4.52861-1.66357 7.94818-1.66357 3.41956-4.71346 5.8225-2.95746 2.31052-7.20881 3.51199-4.25135 1.20147-9.42691 1.20147h-26.43232zm26.43232 29.9443q8.41028 0 12.56921-3.69682 4.15894-3.78925 4.15894-9.88902 0-3.60441-1.38632-6.00734-1.38631-2.49536-3.69682-3.97409-2.31052-1.57116-5.3604-2.2181-2.95747-.64695-6.28461-.64695h-22.36581v26.43232zm0 32.53209q8.87239 0 13.8631-3.69683 5.08314-3.78925 5.08314-11.27532 0-4.25136-1.75599-6.93156-1.75599-2.77262-4.52862-4.34377-2.6802-1.57115-6.09976-2.12567-3.32715-.64695-6.56187-.64695h-22.36581v29.0201z"/><path d="m480.43604 641.67873q0-5.08314 1.38631-9.51933 1.47873-4.52862 4.25135-7.94819 2.77262-3.41956 6.83913-5.3604 4.06651-2.03325 9.33449-2.03325 5.26798 0 9.33449 2.03325 4.06652 1.94084 6.83914 5.3604 2.77262 3.41957 4.15893 7.94819 1.47873 4.43619 1.47873 9.51933 0 5.08314-1.47873 9.61175-1.38631 4.52861-4.15893 7.94818-2.77262 3.32715-6.83914 5.3604-4.06651 1.94084-9.33449 1.94084-5.26798 0-9.33449-1.94084-4.06651-2.03325-6.83913-5.3604-2.77262-3.41957-4.25135-7.94818-1.38631-4.52861-1.38631-9.61175zm3.51199 0q0 4.25135 1.20146 8.22544 1.20147 3.88167 3.51199 6.93155 2.31052 3.04989 5.73008 4.8983 3.41957 1.75599 7.85576 1.75599 4.4362 0 7.85576-1.75599 3.41957-1.84841 5.73009-4.8983 2.31051-3.04988 3.51198-6.93155 1.20147-3.97409 1.20147-8.22544 0-4.25135-1.20147-8.13302-1.20147-3.97409-3.51198-7.02398-2.31052-3.04988-5.73009-4.80587-3.41956-1.84842-7.85576-1.84842-4.43619 0-7.85576 1.84842-3.41956 1.75599-5.73008 4.80587-2.31052 3.04989-3.51199 7.02398-1.20146 3.88167-1.20146 8.13302z"/><path d="m543.9695 640.47726-17.37509-22.55065h4.89829l14.87974 19.87045 14.97215-19.87045h4.52861l-17.19025 22.55065 18.76141 24.95359h-4.80588l-16.26604-22.27339-16.63573 22.27339h-4.43619z"/></g><path d="m2973.5416 23.721886-58.0663 33.52457-58.0662-33.524571v-67.049141l58.0662-33.52457 58.0663 33.524571z" fill="#fff" transform="matrix(.98013866 0 0 .99655992 -2690.4959 77.75179)"/><g transform="translate(-3167.26076 183.76212)"><path d="m3331.7305-181.50781-3.9219 2.30273c1.447-.27129 3.0488-.30015 4.4453-.0117 3.5783.73909 5.5948 2.20847 3.8086 2.77539-.4892.15528-.9128-.0182-1.5156-.62109-.4602-.46014-.9138-.75826-1.0078-.66406s-.0006.34128.2089.55078c.5687.56866.4865 2.18359-.1113 2.18359-.2711 0-.5791-.22204-.6836-.49414-.1701-.44332-1.7-1.4375-2.2129-1.4375-.1111 0 .3178.60571.9512 1.34571 1.8111 2.11578 1.4299 3.00133-.8008 1.86328-.7314-.37312-1.4235-.57624-1.539-.45118-.1157.1251-.025.2938.2031.375 1.0774.38407 2.3223 1.79745 2.3223 2.63672 0 1.2691-.2827 1.38987-1.4981.63868-1.2566-.77657-1.2952-.69547-.4336.9121.7961 1.4849.8405 2.9247.1 3.20899-.3127.12001-.6007.0394-.6777-.19141-.2161-.64826-1.6026-2.1467-1.8027-1.94726-.1009.10058.1036.74829.455 1.4375.7103 1.39333.8051 2.45548.3047 3.39062-.442.82578-.8643.78731-1.1133-.10156-.7924-2.82888-1.6113-2.82857-1.6113 0 0 1.94014-.07 2.18192-.6543 2.26562-.5499.0788-.7307-.20012-1.1269-1.74609-.6484-2.53007-1.2677-2.65581-1.0586-.21484.1143 1.33367.029 2.04293-.3028 2.48242-.711.94262-1.5234.44288-1.5234-.9375 0-1.73874-.7793-3.36693-1.5176-3.17383-.5295.13843-.5864.4107-.4707 2.22852.073 1.13961.026 2.07226-.1015 2.07226-.1279 0-.5248-.37096-.8829-.82617-.8669-1.10164-1.5498-.54033-.7773.63867.5724.87371.7018 1.79688.2519 1.79688-.1532 0-.6583-.29849-1.123-.66407-1.3795-1.0851-1.6431-.38341-.3809 1.01368 1.7217 1.90579 1.4922 2.75815-.4687 1.74414-1.286-.66499-1.5254-.0522-.3164.80859.5387.38361 1.4077 1.44403 1.9316 2.35742 1.5763 2.74848 1.1476 3.22701-1.1816 1.31836-1.6768-1.37402-1.9338-.77972-.4688 1.08594 1.2378 1.57642 1.4708 2.43281.8086 2.98242-.4609.38245-.6468.28858-1.4863-.75781-.5279-.65812-1.2354-1.19727-1.5723-1.19727-.6556 0-.8249.47425-.2871.80664.1796.11096.6263.78869.9922 1.50586.916 1.79545.4371 2.17298-1.3945 1.09961-1.6728-.98035-2.1099-.82181-1.0098.36524.8612.92927 1.2558 2.07627.9688 2.82422-.1503.39148-.4811.26494-1.67-.64258-2.0415-1.55834-2.4197-1.41617-.8281.31054 1.0084 1.09396 1.3281 1.70271 1.3281 2.52539 0 3.53782 4.775 2.39729 8.5215-2.03515.9727-1.1507 1.7735-2.19429 1.7735-2.31836.01-.39076 3.976-2.43739 5.1543-2.6582 3.0844-.57802 5.4032-1.27574 6.2558-1.88282 1.2649-.9007 4.2193-1.12552 5.5762-.42382.5455.28211 1.2891.92801 1.6504 1.43554.8945 1.25682 1.4363 3.75001.9941 4.57617-.3263.60971-.3679.59879-1.1035-.25586-.4204-.48844-.8387-.81536-.9277-.72656s.044.95412.2949 1.92188c.5578 2.15101.5792 3.29769.07 3.80664-.6325.63246-1.2226.44151-1.2226-.39649 0-1.07182-.5049-2.3136-1.0215-2.51171-.3279-.12575-.4313.34443-.4453 2.02148-.019 2.30013-.4299 3.20508-1.4551 3.20508-.4967 0-.6026-.31122-.6836-1.98633-.1172-2.42761-.7345-2.84219-.9922-.66602-.2207 1.86336-.825 3.29688-1.3887 3.29688-.2256 0-.7846-.14246-1.2422-.31641-.6649-.2528-.7706-.43202-.5293-.88672 1.0603-1.99869 1.6009-3.77676 1.8028-5.93164.2171-2.31631.1893-2.48371-.4688-2.83593-.5236-.27949-.8099-.28227-1.1406-.008-.3305.27504-.6151.27515-1.1328-.002-.943-.50467-1.0056-.34719-.4688 1.21094.832 2.4148-.2 3.21234-1.3984 1.08008-.6603-1.17487-1.2483-1.64454-2.0645-1.64454-.19 0-.1124.25989.1739.57618.653.72163 1.5117 2.74506 1.5117 3.56445 0 1.25416-1.0125 1.08127-2.5234-.42969-1.6634-1.66341-2.3555-1.91776-1.3418-.49414.377.5294.7624 1.44039.8574 2.02539.1503.92585.058 1.11638-.711 1.4668-.8013.36513-.968.31927-1.8007-.47852-1.0232-.98035-1.2865-.46073-.4043.79883.3487.49806.4507 1.07703.3164 1.79297-.2748 1.46465.6259 2.50643 2.9433 3.4082 1.0228.39801 2.3376 1.21879 2.9219 1.82422.9657.99586 1.0529 1.25795.9649 2.75195-.1121 1.91116-.6372 2.30978-1.2129.91993-.4775-1.15274-1.1418-1.76588-1.6036-1.48047-.2244.13865-.1903.49335.1036 1.07422.2412.47679.5348 1.39685.6523 2.04687.1805.99776.1005 1.26257-.5117 1.69141-1.2977.90895-1.782.65409-2.3281-1.22461-.532-1.82974-1.5759-3.42078-1.9805-3.01758-.1325.13202-.061.63399.1582 1.11523.2193.48125.4801 1.8372.5781 3.01172.1715 2.04583.1467 2.14325-.5879 2.33985-.4217.11291-.866.20598-.9863.20898-.1202.002-.4595-.82336-.7539-1.83594-.2943-1.0126-.8149-2.3894-1.1563-3.05859-.674-1.32125-1.4138-1.69776-.9668-.49219.5259 1.41878 1.0722 5.07556.875 5.86133-.1103.43939-.4768.94627-.8144 1.12695-.551.29489-.649.16275-.9629-1.30078-.3973-1.85274-1.9076-5.12304-2.3652-5.12304-.1679 0-.1961.2524-.062.5625.4141.96191 1.0974 4.37194 1.1074 5.5039.01 1.39787-.7361 2.93929-1.9844 4.10547l-.998.93164.2461-.80469c.1345-.44259.3144-1.90934.4004-3.25976.1519-2.398.1271-2.4949-.9942-4.125-1.4701-2.13709-1.6779-3.34502-1.1562-6.69922.4964-3.19052.1875-4.92691-1.2422-6.99414-.9143-1.32202-2.7192-2.74023-3.4864-2.74023-.672 0-.5128 1.22306.209 1.60937 1.3297.71165 2.5155 4.097 1.9532 5.57617-.4658 1.22494-.92 1.07114-1.6153-.55078-.6039-1.409-1.3027-2.19245-1.3027-1.45898 0 .21264.3001 1.39747.668 2.63281.7306 2.45305.6266 3.7793-.2989 3.7793-.4411 0-.7187-.47904-1.1269-1.94727-.2977-1.07069-.6785-1.86314-.8457-1.75977-.1737.10739.1109 1.31239.664 2.8125.8299 2.25076.9135 2.75262.5918 3.5293-.4881 1.17849-.8325 1.14312-1.3691-.14062-.4574-1.09422-1.3911-2.06801-1.6934-1.76563-.097.097.172.73347.5977 1.41406 1.176 1.87994 1.5267 3.20484 1.5117 5.71094l-.014 2.28516-.6172-1.12696c-.7557-1.38025-.8014-.86167-.1464 1.66602.5662 2.18356.5169 5.77883-.082 5.97656-.2159.0713-.4906-.27719-.6152-.77929-.124-.49941-.4319-1.40409-.6836-2.00977-.6467-1.5567-1.0725-.69794-.8262 1.66211.1891 1.80883.1748 1.85156-.6074 1.85156-2.3963 0-3.2553-5.03873-1.8496-10.85351.8347-3.45287.681-4.35311-.3301-1.9336-.4268 1.02134-.9299 1.80554-1.1172 1.74414-.9116-.29865-.4245-4.68048.8536-7.68945.9464-2.22811.5317-2.60174-.7364-.66406-1.2166 1.85897-1.6949 1.98575-1.8437.48828-.1133-1.13957.9095-3.34505 3.0605-6.60156 1.8671-2.82677 1.6455-3.43348-.3262-.89453-2.2335 2.87619-3.0883 3.06559-2.4531.54296.4186-1.66227 3.3695-5.27617 5.7188-7.0039 1.5195-1.1176 1.5561-1.55284.08-.94141-1.4348.59432-1.7952.29996-.9493-.77539.4634-.5892 2.1582-1.61121 4.6094-2.77734 3.8818-1.84676 5.6037-3.13258 5.1582-3.85352-.2405-.38913-2.7659-.27855-4.2578.18555-.5922.1842-.7246.10178-.7246-.44922 0-.8042.9556-1.47237 2.8027-1.95899.7449-.19627 1.4362-.4865 1.5352-.64648.32-.51786-.4392-.69824-1.5957-.37891-1.3478.37216-1.6537.0514-1.0703-1.12109.2752-.55301.9684-1.0509 2.0039-1.43945 2.1806-.81827 2.5504-1.25977 1.0566-1.25977-.702 0-1.1914-.15643-1.1914-.38086 0-.20938 1.2221-1.55284 2.7148-2.98633 3.434-3.29767 6.87-5.16438 10.6426-5.77929 2.4787-.40402 2.5629-.50371.8516-1.02539-.3204-.0977-.3634-.36815-.1621-1.01563.1509-.48518.2748-1.88095.2754-3.10156.0004-.81245 0-1.32635.064-1.69336l-2.7461 1.61133c.2716.14632.2497.38626.1367.95117-.1971.9855-.7255 1.83398-1.1425 1.83398-.127 0-.396-.36211-.5977-.80468-.1633-.35832-.3821-.58597-.5664-.70508l-.3086.17969c.012.0603.025.12324.057.20507.3342.87097-.1706 2.0918-.8653 2.0918-.3563 0-.7321-.21883-.834-.48437-.2333-.60798-.7597-.63057-.7597-.0332 0 .45257-.663.83789-1.4395.83789-.098 0-.2038-.0748-.3027-.18359l-5.7246 3.35938c.086 1.64326-.2861 2.29687-1.2617 2.29687-.4435 0-.6094-.2352-.6094-.88477-.0007-.11476-.018-.19772-.025-.29882l-1.4141.83007c.041.25653.078.52593.127.73633.2158.92902.1731 1.22583-.1953 1.36719-.8523.32705-1.0307.1939-1.2422-.93359-.022-.11873-.071-.22514-.1055-.33985l-1.0312.60742c.017.11006.021.18741.041.30079.3458 1.98523.3261 2.16051-.3653 3.0957-.8849 1.19695-1.3332 1.2447-1.8906.20312-.2319-.43318-.637-.8696-.9004-.9707-.6665-.25579-.3004 1.5033.5664 2.7207.8095 1.13756.8063 1.36867-.027 2.12305-.6605.59774-.6812.59562-1.1367-.0273-.2552-.349-.7581-1.43915-1.1172-2.42383-.2513-.68909-.5563-1.26809-.8496-1.68945l-.9024.53125c.1671.63642.4701 1.55341.8262 2.45507.5243 1.32772.9545 2.52353.9551 2.65625.0007.13279-.6397.24219-1.4239.24219h-1.4257l-.4766-1.69141c-.2302-.81647-.4656-1.76904-.6074-2.40039l-.9043.53125c-.015.89856-.077 1.62891-.1621 1.62891-.1302 0-.7087-.37223-1.2793-.7832l-13.8125 8.10937c.7277.54177 1.1015 1.12173 1.1015 1.74024 0 .56166-.1514.60643-1.4472.41211-.086-.0129-.1388-.0111-.2207-.0215v.79492c.053.0275.086.0507.1406.0781 1.7593.88298 2.8164 1.85773 2.8164 2.59961 0 .66764-.3993.74213-1.3262.24609-.3517-.18822-.8849-.29407-1.1855-.23437-.3757.0747.081.55415 1.4648 1.5332 1.9735 1.39647 2.3878 2.13722 1.7539 3.13477-.1852.29134-.4878.23188-1.2011-.23829-1.5093-.9949-1.6733-.74163-.377.58594 1.358 1.39066 1.4855 2.07771.5117 2.75977-.625.43772-.7378.40931-1.3906-.34961-1.2004-1.39548-1.6338-.73404-.5234.79883 1.1687 1.61332 1.1846 1.72851.3105 2.51953-.5126.46392-.6471.56028-.9941.18945v3.13867c.3737.2989 1.1184.15269 2.4004-.41797 1.9111-.85077 3.8892-2.74957 4.9707-4.77148.5511-1.03036.7349-1.90227.7343-3.47266-.0009-1.91937-.1125-2.26176-1.3085-4.02929-1.9332-2.85677-1.9966-3.12064-1.2481-5.1211 1.2697-3.39358 4.3761-5.96331 7.2246-5.97461 3.305-.0135 5.4228 1.58258 5.2461 3.95313-.1245 1.66932-.5579 1.78146-1.4668.3789-.423-.65291-.9923-1.12109-1.3594-1.12109-.5969 0-.5878.064.1641 1.17188 1.1409 1.68129 1.0603 2.36914-.2793 2.36914-.8062 0-1.1577-.18469-1.4082-.73438-.609-1.33664-2.0297-2.7853-2.5391-2.58984-.4078.15651-.3782.29883.1778.89062 1.0501 1.11782.8638 1.78907-.4942 1.78907h-1.1543l1.3438 1.68554c1.3519 1.69796 2.4056 3.74094 2.0918 4.05469-.093.0931-.6736-.0728-1.291-.36719-1.6428-.7834-1.3935-.10065.6464 1.76367 1.2045 1.10085 1.7715 1.8651 1.7715 2.39063 0 .77934-.7407 1.07607-1.1269.45117-.1095-.17704-.3355-.32227-.502-.32227-.5548 0-.3124.99481.502 2.0625.8458 1.10895.9965 1.9628.4902 2.76368-.2507.39647-.5303.25692-1.6035-.79102-1.5606-1.52387-1.7334-.98647-.4629 1.44336.8305 1.58911.8527 2.57041.057 2.56641-.2268-.001-.6762-.46405-.998-1.0293-.8203-1.44077-1.2328-.61168-.5879 1.18164.4348 1.20978.4414 1.4673.043 1.94727-.4252.51232-.525.47371-1.3477-.51172-.4885-.5851-.9778-.97345-1.0879-.86328-.1102.11021.044.94053.3438 1.84375.2998.9032.4642 1.85431.3652 2.11328-.2184.5691.02.58104 1.8418.0937 1.8391-.49188 5.2824.0463 6.6875 1.04687 1.978 1.40842 2.9652 5.46653 2.2266 9.15235-.83 4.14171-1.3286 5.14081-1.8047 3.61523-.2151-.68947-.6969-1.18987-1.1543-1.20117-.116-.003-.135.5643-.041 1.26172.245 1.82634-.1078 2.83716-1.1856 3.39453-1.4336.74133-1.6169.621-1.6269-1.04102-.01-1.78768-.2745-2.97656-.6758-2.97656-.1564 0-.2863.54317-.2871 1.20703 0 1.78848-.5939 3.60369-1.457 4.4668-1.301 1.30113-1.5037 1.01608-1.2598-1.7793.2054-2.35426.1731-2.56971-.4375-2.89648-.6213-.33254-.6703-.2468-.8477 1.49609-.1036 1.01737-.3669 2.43056-.5859 3.13867-.3475 1.12422-.5332 1.29938-1.4629 1.38868l-1.0644.10351.2539-1.23047c.666-3.21091-.1102-5.89635-.8497-2.93945-1.0675 4.26822-.9993 4.125-1.9648 4.125-.4976 0-.9822-.12356-1.0762-.27539-.094-.15181.1376-1.52351.5137-3.04688.5575-2.25821.6078-2.85925.2754-3.25976-.5712-.68825-.8609-.39603-1.1016 1.10937-.2474 1.54737-.7564 2.90284-1.2226 3.42578v5.43946c.4361-.0569.7817-.0886.875-.0527.5259.20181.6636 2.940905.1855 3.695315-.1702.268659-.5618.249272-1.0605.02734v15.271484l6.748 3.960938c.2004-.08948.4159-.172243.6602-.238282 2.5027-.67665 3.292-1.758241 1.0176-1.394531-1.0425.1667-1.2872.108069-1.2872-.300781 0-.64064.423-.907799 2.3887-1.511719 1.794-.55118 2.3661-1.25555.8379-1.03125-1.2372.18172-1.2403-.290822-.01-1.326172.9712-.81725 1.1949-.863994 6.6016-1.371094 2.4964-.23414 2.1505-.7096-.5449-.75-1.8465-.02768-2.2126-.474328-.9317-1.136718.715-.36977 1.989-.496094 4.9825-.496094 2.2112 0 4.1031-.135781 4.205-.300781.102-.16498-.9036-.481488-2.2343-.705078-1.3307-.22362-2.42-.518037-2.42-.654297 0-.13629.318-.41783.7051-.625.7-.3746 5.7546-.226938 7.7442.226562.556.12676.8847.06867.8847-.15625 0-.19693-.8675-.599211-1.9297-.894531-1.0622-.29531-1.9316-.651356-1.9316-.791016 0-.29097 2.0953-.924428 3.0566-.923828.6785.00033 1.9422.742087 2.8711 1.685547 1.0417 1.05802 1.9954 1.037031 3.3985-.07422 1.5145-1.19948 1.7108-1.846555.3457-1.140625-1.2635.65349-1.3028.640079-1.3028-.451172 0-1.01738.5897-1.792907 1.6114-2.117187.958-.30403.8154-1.070063-.1641-.882813-.6511.12445-.8047.02568-.8047-.519531 0-.7037.8842-1.419822 2.2539-1.826172.4426-.1313 1.1668-.52498 1.6094-.875l.8047-.636724-1.3691.226568c-.919.15193-1.3672.109514-1.3672-.128906 0-.603462 2.015-1.619202 3.6406-1.835942.8512-.11349 1.8639-.47091 2.2519-.79492.7036-.58701.7023-.58831-.8222-.59961-.8409-.006-1.5293-.15323-1.5293-.32617 0-.78038 1.7071-1.37199 4.4238-1.53321 3.3175-.19688 4.3668-.70406 2.5254-1.2207-1.4598-.40957-1.5804-.8201-.4063-1.38281.6698-.32103 1.437-.35706 3.084-.14453 1.4731.18999 2.5405.16792 3.2481-.0703l1.0527-.35547-1.332-.39843c-1.5864-.47529-1.6786-.83217-.3399-1.29883 1.1278-.39315.985-1.00586-.2343-1.00586-.4484 0-1.1847-.29047-1.6348-.64453-.8959-.70471-1.7647-.90531-1.1172-.25781.6631.66309.4442 1.46045-.4473 1.63086-.6478.12385-1.0505-.0837-1.8203-.92969-1.5414-1.6939-2.5326-1.39519-1.1601.34961.5722.72745.6147.93149.2422 1.17383-.9618.62554-1.9794.70933-2.2715.1875-.5162-.92244-1.2724-1.50977-1.9434-1.50977-.638 0-.6335.0339.127 1.04688 1.3102 1.74554 1.3259 1.82656.4023 2.17773-.7567.28768-1.0101.19197-2.1133-.80469-.6892-.62264-1.5714-1.13281-1.9609-1.13281-.6445 0-.6005.10971.4844 1.2207 1.3462 1.37868 1.4961 2.13387.5273 2.65235-.5712.30573-.8687.16785-2.123-.98828-1.0102-.93122-1.5608-1.23995-1.793-1.00782-.2321.23212.026.75582.8398 1.70703 1.221 1.42648 1.2973 1.79418.4786 2.31055-.3505.22111-.8572.0619-1.8125-.57031-1.775-1.17466-2.3341-.7617-.8555.63281 1.2061 1.13749 1.3307 1.93582.3945 2.52539-.4351.27401-.8171.12676-1.8789-.72656-1.7068-1.37157-2.2717-.92446-.914.72265.5492.66636.9249 1.286263.8339 1.376963-.3245.32449-2.0414.209323-2.7793-.185547-.6986-.373936-.7424-.551766-.5996-2.541016.2636-3.67229 2.2368-6.44177 6.7715-9.50977 1.9676-1.33119 2.8378-1.74491 3.3711-1.60156.9784.26304 2.621-.15165 2.0352-.51367-.2347-.14699-.3452-.49784-.2364-.78125.2246-.5853 1.725-.68439 3.3418-.22071.7703.22092 1.1222.18138 1.4024-.15625.2993-.3607.2015-.51554-.4922-.77929-.4762-.18106-.8055-.51027-.7305-.73047.1508-.44175 1.7067-.50752 3.4727-.14649.8033.1642 1.3278.0942 1.7695-.23633.5999-.44883.5814-.47838-.4297-.6875-.5823-.12043-1.0064-.3823-.9414-.58007.1602-.48838 2.3273-.63686 3.4707-.23828.649.22619.9947.2182 1.1465-.0273.2076-.33594-.078-.6273-1.3809-1.41406-.506-.30549-.5261-.42977-.1484-.88477.2417-.29128.759-.52929 1.1504-.52929.9791 0 1.2355-.34506.6016-.8086-.7417-.54233-.3113-1.44531.6894-1.44531.8496 0 1.0733-.57895.461-1.19141-.1943-.19461-.2568-.65742-.1387-1.02929.1622-.51093.4803-.67578 1.3008-.67578 1.4389 0 1.6718-.47367.4765-.96875-1.743-.722-.9683-1.95928.8047-1.28516 1.2482.47454 1.8799-.12235.875-.82617-1.47-1.02968-.4194-2.11381 1.2246-1.26367 1.3093.67711 1.6504.60968 1.4258-.28516-.172-.68528-.071-.78211.959-.90234 2.3936-.27944 3.3923.0473 4.3965 1.43359.6512.89901.9394 1.67658.9394 2.53516 0 .68156-.1045 1.24023-.2324 1.24023s-.7652-.61482-1.416-1.36719c-.6508-.75239-1.2902-1.26322-1.4219-1.13476-.1314.12851-.097.41702.076.64258.6051.78753 1.7649 4.07896 1.5566 4.41601-.3625.58656-.8191.37339-1.166-.54492-.3976-1.05259-1.8953-2.69821-2.2539-2.47656-.1389.0859.1846 1.08916.7188 2.23047.5339 1.14131.8786 2.22542.7656 2.4082-.4243.68656-1.4083.30283-2.0606-.80274-1.0857-1.84008-2.4514-2.02032-1.5097-.19922.2786.53874.5058 1.18993.5058 1.44532 0 .76653-.9385.89277-1.5273.20508-.5845-.68265-1.3692-.8556-1.3692-.30079 0 .78332 1.0252 2.22282 2.0235 2.83985.5906.36497 2.3421.95925 3.8906 1.32031 3.5649.83121 4.6483 1.39615 5.1992 2.71484.4576 1.0952.3199 2.44336-.25 2.44336-.1803 0-.679-.37756-1.1074-.83984-.4285-.46228-.8353-.78319-.9063-.71289-.07.0704.108.7856.3965 1.58789 1.0265 2.85441-.1961 3.40572-1.9961.90039-.6483-.90249-1.2489-1.57153-1.3339-1.48633s.1406 1.031.5019 2.10352c1.0793 3.2039.215 3.97083-1.6113 1.42773-.7764-1.08093-1.1272-1.3704-1.2012-.98828-.057.29687.1222.97754.3984 1.51172.7278 1.40746.6492 2.52239-.1972 2.79102-.7066.22427-1.5528-.4931-1.5528-1.31641 0-.45966-1.114-1.50311-1.3515-1.26563-.095.0953.1704 1.0271.5918 2.07032.6421 1.58985.7048 2.03092.3886 2.72461-.4631 1.01676-.8036 1.03943-1.5624.10351-.9976-1.2305-1.1308-.32703-.3047 2.06446 1.052 3.04531 1.7746 3.420768 3.455 1.79882 1.372-1.32429 3.4708-2.00888 5.1914-1.69336.6357.11658 2.4595.80108 4.0528 1.51954 5.4337 2.45027 8.0892 2.718626 13.6191 1.378906 3.8333-.928776 3.9221-.938296 3.9219-.402343-.0002.41055-2.787 2.983936-3.9981 3.691406-.8478.49533-2.189.513984-3.7285.05273-.7943-.23799-1.3938-.254738-1.7617-.04883-.472.26413-.3549.392254.7637.839844 1.6129.64532 1.6662 1.067701.2109 1.675781-1.3102.54744-1.8687.383805-4.3125-1.265625-.9472-.63932-2.0234-1.162109-2.3906-1.162109-.6553 0-.6527.01516.076.791015.4086.43485 1.3018 1.177984 1.9863 1.652344s1.2461.970123 1.2461 1.101562c0 .233131-1.0984.730126-2.4375 1.103516-.5139.1433-1.3512-.439897-3.6758-2.554687-1.6559-1.50644-3.2197-2.738282-3.4766-2.738282-.552 0-.4773.110592 2.0958 3.107422.9353 1.08939 1.6992 2.139885 1.6992 2.333985 0 .19898-.58.353515-1.3301.353515-1.2227 0-1.4921-.172712-3.3399-2.132812-1.1054-1.17272-2.1642-2.077919-2.3535-2.011719-.1945.0681.1388.88287.7657 1.875.6101.96548 1.1074 1.870779 1.1074 2.011719 0 .14091-.5891.257812-1.3106.257812-1.5008 0-2.0875-.514743-3.4863-3.058593-.4868-.885171-1.1267-1.655891-1.4219-1.712891-.4541-.08777-.4135.141831.2657 1.494141.9807 1.952479 1.0204 2.632812.1503 2.632812-1.4241 0-2.835-.886058-3.1621-1.986328-.9443-3.17679-2.403-6.065733-2.8418-5.626953-.064.06392.1329 1.149046.4356 2.410156.303 1.26111.4601 2.381764.3515 2.490234-.3371.3372-1.3271-.141205-2.4179-1.166015-.7953-.74715-1.0469-1.253411-1.0469-2.113282 0-1.236739-1.1861-4.308591-1.6641-4.308591-.174 0-.2076.80363-.08 1.931638.1394 1.23157.1001 1.931641-.1075 1.931641-.1791 0-.9051-.578989-1.6132-1.287109s-1.5779-1.28711-1.9336-1.28711c-.5406 0-.4151.2494.7636 1.527344.7755.8409 1.4141 1.629163 1.4141 1.751953.01.3513-1.3759 1.226797-1.9199 1.216797-.2704-.0049-1.0605-.438684-1.7559-.964844-2.0586-1.5576-2.4674-1.110802-.5879.642578l1.6875 1.574219-.8457.666016c-1.1429.89895-1.737.840822-3.0136-.298828-1.5294-1.36544-2.3474-1.265013-1.002.123046.9201.949271 1.0043 1.169343.6563 1.726563-.2203.35144-.3149.860209-.211 1.130859.2783.72529 3.0129 1.000713 5.3594.539063 3.2047-.63048 5.5846-.237121 9.875 1.630859 3.9652 1.72638 6.4683 2.374149 10.4297 2.699219 2.8718.23564 8.5132-.221593 11.9941-.970703 1.3752-.29449 2.6067-.431511 2.7363-.300781.221.22288-.8193 1.22969-2.3828 2.30664-.4819.332-2.0161.532662-5.1484.669922-5.3924.23638-7.0235.850648-3.1309 1.179688 1.3565.11458 3.0953.208984 3.8653.208984 1.683 0 1.7713.361625.3086 1.265625-1.0243.63302-1.3057.655168-4.586.367188-1.9225-.16877-4.2069-.465297-5.0761-.660157-1.0115-.22674-1.6926-.243002-1.8907-.04492-.3024.30243 2.3266 1.221522 5.5078 1.925782 1.6254.35983 1.911.567571 1.4336 1.044921-.3566.35659-4.3683-.0018-8.0644-.720703-.933-.18152-2.1536-.228258-2.7129-.105468l-1.0156.222656.7812.419922c.4301.23129 1.6148.607234 2.6328.833984 1.0179.22675 1.8496.582386 1.8496.791016 0 .21701-.7335.47096-1.7168.59375-1.4073.17584-2.1152.06719-3.9023-.605469-1.2002-.45175-2.4823-.822266-2.8496-.822266-.6789 0-.3977.26885 1.9258 1.84961.9368.63732-2.3051.141887-4.1407-.632813-2.2199-.93688-2.5805-.531238-.6503.732422.9229.60417 1.6796 1.210013 1.6796 1.345703 0 .13565-.4714.243188-1.0468.242188-1.7576-.0053-6.3575-2.422757-6.3575-3.341797 0-.22307 1.2093-.866254 2.6875-1.427735 2.8084-1.066789 5.3677-2.670908 5.3497-3.355468-.027-1.06103-1.5174-1.987131-4.8184-2.994141-.7967-.24301-2.1412-.882632-2.9883-1.419922-2.2575-1.43199-2.963-1.260157-1.2949.314453 1.3475 1.27195 1.3483 1.274249.6523 1.761719-1.0823.75814-2.0722.585688-3.6757-.638672-1.4899-1.13761-2.4664-1.464739-2.1641-.724609.09.22128.8084.890298 1.5976 1.486328.7893.59601 1.4356 1.183888 1.4356 1.304688 0 .261309-1.9311.992187-2.6211.992187-.2659 0-1.2206-.741244-2.1211-1.646484-2.1382-2.14941-2.876-1.91838-.8984.28125.8269.9197 1.4214 1.807173 1.3203 1.970703-.1011.16352-.6207.448745-1.1543.634765-.9446.32929-1.0113.284581-2.4961-1.724609-.8387-1.13497-1.6327-2.071125-1.7656-2.078125-.49-.02684-.2126.830444.7246 2.240234.5296.79664.9623 1.556744.9629 1.689453.0007.132801-.5412.237375-1.2051.234376-1.0674-.0063-1.3186-.17211-2.1719-1.44336-.9838-1.46537-1.7715-2.065789-1.7715-1.349609 0 .2189.3756.95052.834 1.625.4583.67446.7542 1.30439.6582 1.40039-.096.09603-.6803.07887-1.2988-.03711-.9354-.17548-1.2896-.50133-2.1113-1.9375-.5433-.94953-1.204-1.807393-1.4668-1.908203-.5932-.22779-.5928-.229934.061 1.285156.2955.68547.5505 1.679848.5645 2.210938.021.79595.2097 1.025917 1.0722 1.304687 2.0396.65925 1.9726 1.011534-.3984 2.121094l-2.1973 1.027344-.8359-.949219c-.4592-.52254-1.2173-1.452896-1.6856-2.066406-1.1843-1.55161-1.4928-.983862-.4648.855468.9082 1.62503.7748 2.18166-.4805 2-.5447-.07882-1.0518-.685368-1.8886-2.261718-.6289-1.18474-1.3973-2.220535-1.7071-2.302735-.7268-.19287-.7086.170723.082 1.720703.8022 1.57299.8065 1.931641.025 1.931641-1.1711 0-1.6523-.402404-2.3085-1.927734-.4048-.94102-.9735-1.674137-1.4786-1.904297-.7338-.33434-.7974-.313391-.5898.199219.8052 1.98856.868 2.369433.4727 2.845703-.6148.74081.8773 2.102163 3.7285 3.402343 1.3094.59706 2.3825 1.190077 2.3925 1.316407.016.3342-2.3125 1.861328-2.8378 1.861328-.2453 0-.9421-.433754-1.5469-.964844-1.3584-1.19258-1.9502-1.288656-1.5293-.427734l6.6855 3.923828c2.7406-1.195733 5.2376-2.678635 6.9981-4.1875 2.1434-1.83705 4.3433-2.530438 8-2.523438 3.2307.0066 3.6764.302119 2.4277 1.605469-.9254.96602-1.0339.9937-3.5781.9375-1.4425-.03177-2.7841.04155-2.9824.164062-.7287.450331-.3234.794395 1.1679.990235.8409.11043 1.808.309789 2.1485.443359.5576.21871.5017.332409-.5528 1.136719l-1.1699.892578-2.2597-.582031c-1.6798-.43273-2.3526-.48926-2.6231-.21875s.1001.510154 1.4434.933594c.9937.31325 1.8066.73322 1.8066.93164 0 .19841-.5319.663836-1.1816 1.035156l-1.1817.675782-1.7285-.66211c-1.1693-.44742-1.8359-.556557-2.0566-.335937-.2206.22063.044.50176.8183.869141 1.3037.618674 1.3868.907593.4258 1.371093l5.9688 3.503907c.923-.171222 1.805-.35059 2.6035-.548829l2.5429-.630859 1.1602 1.107422c1.5385 1.47014 3.167 2.451318 6.4687 3.892578 4.2756 1.86631 6.9738 3.612106 9.3809 6.072266.797.814594 1.8122 2.071849 2.8789 3.501953l1.4238-.835938c-3.3868-4.957131-7.8227-10.475053-11.3496-13.824219-2.4471-2.323869-2.8407-3.095703-1.5781-3.095703.5641 0 2.0367 1.378853 5.8047 5.439453 3.9572 4.26458 6.7063 7.438966 8.9785 10.390626l2.293-1.345704c-.4468-.369692-.885-.756261-1.2969-1.166015-1.8497-1.84011-2.674-3.14639-2.2519-3.56836.099-.0987 1.1824.707929 2.4062 1.792969.7398.655898 1.7534 1.39491 2.7148 2.017578l1.5313-.898437c-1.1774-.629156-2.1821-1.439101-3.2969-2.578125-1.8035-1.84266-2.832-3.629348-2.832-4.923828 0-1.14953.7854-.705284 1.8281 1.035156.5568.92941 1.3517 2.006838 1.7656 2.392578 1.0863 1.012142 3.6033 2.268795 5.0547 2.59375l.711-.416016c-.2955-.159032-.7061-.366573-1.2578-.642578-1.6482-.82457-2.7834-1.700312-4.0665-3.138672-.9787-1.09711-1.7787-2.177147-1.7793-2.398437 0-.84333 1.3191-.344363 2.7325 1.029297 1.432 1.39181 4.8298 3.342098 5.1914 2.980468.099-.09911-.2493-.401738-.7754-.673828-1.3375-.69163-4.6116-3.740517-4.3945-4.091796.3339-.54035 1.5224-.293522 2.6191.542968 1.8547 1.414659 4.3516 2.472813 7.2578 3.148438l3.918-2.300782c-2.5939-.285278-5.9303-.886589-7.2969-1.460937-1.5572-.65446-1.5273-1.074405.1113-1.515625 1.2252-.32992 1.5342-.261925 4.3047.953125 1.641.71969 3.4002 1.311453 3.9102 1.314453.056.000264.1051.0083.1601.0098l2.5313-1.484375c-5.0742-.94455-6.0847-1.742703-3.041-2.423828 1.7044-.38143 1.9471-.347277 5.7129.814453.022.0069.023.0068.045.01367l1.7246-1.011719-2.0215-.660156 1.1523-.5625c.9578-.466996 1.2549-.494027 2.9219.01758l1.8262-1.072266c-1.0252-.598642-.8698-.92489.582-1.197265.4766-.0894.899-.0885 1.4102.02734l5.3672-3.15039c-2.6927-.04746-6.006.181116-8.7539.662109-2.1244.37186-6.2924 1.037249-9.2637 1.480469-6.2954.93908-6.0295.921747-6.0195.404297.011-.91318.6594-1.262046 2.9218-1.572266 1.3106-.1797 4.267-.74199 6.5684-1.25 7.2866-1.60841 10.1748-1.915955 13.6797-1.453125 1.158.152918 2.1074.322829 2.959.5l3.4062-2c-1.2396-.195096-3.7827-.260234-6.6875-.162109-4.5995.15541-5.5911.30759-12.7129 1.96289-4.2487.98754-8.0509 1.797828-8.4492 1.798828-.546.0022-.7246-.182923-.7246-.751953 0-1.10183.8608-1.710157 3.2187-2.273437 8.3133-1.98591 10.3936-2.455776 12.3243-2.785156 3.1434-.53625 8.5442-.247674 11.6543.623046 1.0923.305815 1.9481.611132 2.5761.884766l4.0469-2.375c-.1626-.302816-.3348-.601119-.5273-.884766-.4308-.6348-.7832-1.220081-.7832-1.300781s.3979-.149344.8847-.152344c1.1399-.009 2.8859-.359356 4.7324-.898437v-3.857422c-.084.04575-.1599.09014-.2617.138672-1.0361.49414-1.2665.493293-3.2226.002-1.1583-.29097-2.4643-.529297-2.9043-.529297-1.3664 0-1.2483.595381.1972.988281 2.2895.6223 2.3047.628725 1.9942.921875-.7051.66566-6.7624.581375-7.4473-.103515-.093-.09302.4348-.855703 1.1738-1.695313.7391-.83961 1.7351-2.155028 2.2129-2.923828.7371-1.18636 1.4053-1.671987 4.4102-3.210937 2.0853-1.067928 2.9745-1.50351 3.8476-1.666016v-4.624993c-.03.0123-.042.0207-.072.0332-1.3753.567836-3.0616 1.124874-3.7481 1.236324-1.2347.20035-1.2468.192817-1.0254-.689453.1232-.49063.3034-1.288641.4004-1.771481.1101-.55063.7746-1.34619 1.7832-2.13477.9742-.76164 1.8539-1.59497 2.6621-2.48242v-4.6289c-.3221.33871-.7781.60809-1.3046.74023-.4348.10914-.9357.47086-1.1133.80273v.002c-.1776.33186-.7534.82574-1.2793 1.09765-1.1916.6162-1.2463.25134-.291-1.9082 1.1307-2.55618 2.2897-8.41698 2.3437-11.85547l.051-3.13672 1.3828-.002c.07-.00009.1406.009.2109.0117v-6.19336c-.5077.85767-.7593.96468-2.6347 1.11523-1.142.0917-2.2189.30875-2.3926.48242-.4509.45096 1.1245.78868 2.4863.53321.8852-.16606 1.1075-.10499 1.1075.30469 0 .59724-.5582.74199-3.9434 1.01953-1.8395.15081-2.4941.32241-2.4941.6582 0 .25043.2169.45703.4824.45703.9338 0 .4685.68066-.8848 1.29492-1.3761.62463-3.1387.84551-3.1387.39258 0-.85895.8114-2.73022 1.8164-4.18945.8209-1.19194 1.9661-2.22608 3.8145-3.44336 1.4526-.95666 3.3029-2.474 4.1113-3.37305 1.0144-1.12825 1.3601-1.45851 1.6699-1.35156v-10.43359c-1.379-1.55773-3.5427-3.2626-4.8125-3.68165-.992-.32744-1.1269-.50263-1.1269-1.45312 0-.14503-.029-.33505-.059-.52539l-6.0293-3.53906c.3433 2.65985.4005 7.77148.014 7.77148-.1541 0-.4526-.90527-.6641-2.01172-.4691-2.45544-1.0257-4.10547-1.3848-4.10547-.1478 0-.1544.762-.016 1.69141.1389.92941.252 3.35477.252 5.39063 0 3.12734-.1002 3.87275-.6465 4.80273-.8626 1.46808-1.6227 1.74255-1.3047.4707.4186-1.67371.5896-7.74946.2363-8.3789-.4419-.78718-.528-.47939-1.0156 3.58789-.2122 1.7703-.6083 4.05239-.8809 5.07031-.2868 1.07062-.6755 1.84961-.9218 1.84961-.834 0-.9003-2.23817-.1563-5.28516 1.2765-5.22794.9052-7.36966-2.2246-12.82812-1.3777-2.40265-1.8379-3.66058-1.4551-3.99414l-7.2109-4.23242c-.2073.88751-.4102 1.09938-1.0547 1.17382l-.8652.0996.1855-1.78906c.02-.19712.026-.32131.039-.47852l-.9141-.53711c-.01.4084-.2102 1.00027-.459 1.33594-.4351.58692-.4969.59118-1.0156.0801-.4542-.44739-.5011-.78469-.2617-1.90039.039-.18266.085-.3155.1289-.46094l-4.0059-2.35156c-.036.25252-.1326.51597-.3203.87891-.284.54927-.6631 1-.8418 1-.1788 0-.5965-.63694-.9297-1.41407-.5957-1.39-1.6936-2.60901-1.166-1.29492.136.33885.3269 1.19617.4219 1.9043s.3131 1.5583.4844 1.89062c.223.43261.1869.68323-.125.88086-.9818.62213-1.5104.28876-2.0332-1.28515-.5007-1.50766-1.5886-2.91348-1.9649-2.53711-.099.0988.2686 1.02246.8184 2.05273 1.0441 1.95655 1.1564 3.11003.3183 3.26953-.314.0598-.7742-.46734-1.2636-1.44531-.9163-1.83129-1.2148-1.27169-.6719 1.25977.4328 2.01817.036 2.68209-.9082 1.51757-.8637-1.06539-1.1083-.65479-.6621 1.11719.2928 1.16324.289 1.59431-.023 1.97071-.5773.69553-.7239.61892-1.5391-.8086-.4036-.70675-.8732-1.28516-1.0449-1.28516-.3799.00001-.3805-.12166 0 1.88477.3145 1.65819.1865 2.62109-.3477 2.62109-.1581 0-.2871-.22237-.2871-.49414 0-.8136-.9759-2.05555-1.4668-1.86718-.3044.11682-.3626.34783-.1797.70507.1495.2921.3653 1.14733.4805 1.90235.191 1.25047.1368 1.40575-.6016 1.74219-.9563.43572-.8694.5086-1.7129-1.42383-.9592-2.19734-1.3451-1.94963-1.1211.72265.1773 2.11431.1488 2.25391-.4668 2.25391-.6475 0-1.0288-.52964-1.2636-1.75391-.1227-.63917-1.0806-1.88428-1.2891-1.67578-.063.0632.1174 1.02442.4024 2.13672.4299 1.67849.4445 2.06964.086 2.29688-.852.54-1.5414.30057-1.7344-.60157-.3062-1.4314-.7491-2.33398-1.1445-2.33398-.2398 0-.2989.33843-.168.9668.1106.5311.291 1.39459.4004 1.91992.1703.81714.075 1.0121-.666 1.34961-.9639.4392-1.4459.0527-1.4649-1.17774-.01-.35406-.1345-.84391-.289-1.08789-.5071-.80062-.9981-.0298-.9981 1.56836 0 1.28364-.1162 1.60506-.6406 1.77149-.8705.27628-1.3579-.0841-1.1211-.83008.2581-.81308-.1248-1.97256-.5996-1.81641-.2062.0679-.4471.69024-.5351 1.38281-.1621 1.26896-.5153 1.5209-1.6895 1.20704-.3098-.0828-.5625-.36152-.5625-.61915 0-.76504 1.8483-4.1981 2.916-5.41406 2.8275-3.22035 9.2932-6.63663 14.0332-7.41601.736-.12103 1.5702-.39104 1.8555-.59961.4708-.3442.472-.44489.018-1.09375-.2754-.39317-1.0379-.86108-1.6953-1.04102-1.427-.39059-3.2872-1.48488-3.2872-1.93359 0-.32226.4315-.45481 2.6563-.8125 2.2265-.35798 1.3779-1.02007-1.7188-1.34375-1.3738-.14359-1.8058-.30704-1.6816-.63086.2501-.65164 2.6195-1.17616 4.3008-.95313 1.6883.22397 2.1041.0103 1.3848-.70898-.4512-.45113-.4107-.54556.4179-.98242.5521-.2911 1.5102-.48768 2.5567-.58399l-3.8047-2.23437c-1.2246.0138-1.7872-.20451-3.4688-.95117-1.9218-.85339-3.9468-1.35222-5.9394-1.51172zm38.6543 19.63086c.955.9667 2.2393 2.47964 2.6836 3.27343.1557.27815.3741.4149.4863.30274.2208-.2208-.1476-1.14079-.7578-2.1582zm-13.2012 1.37109c.99 0 1.4171.30181 3.4199 2.41406 2.8419 2.99731 3.7435 3.18701 1.7285.36328-.8051-1.12827-1.3745-2.14287-1.2636-2.2539.1109-.11102.6193-.20117 1.1289-.20117.9325 0 1.374.36731 3.2636 2.7207 1.1652 1.45114 1.5848 1.4544 1.3145.0137-.2448-1.30479.1051-1.43713 1.0625-.40234 1.6989 1.83625 3.025 6.03515 1.9062 6.03515-.4144 0-.4731.20847-.2949 1.04688.6907 3.24909-.2727 4.20443-1.5312 1.51758-.6643-1.41844-1.7373-2.53812-2.0918-2.1836-.061.0605.1646.90519.5 1.87696.6092 1.76513.8494 6.07302.4258 7.65429-.1827.68236-2.255 1.89739-2.6172 1.53516-.082-.0818.014-.61619.2129-1.1875.1991-.57132.443-1.99053.541-3.1543.1512-1.79253.077-2.264-.4844-3.08203l-.6621-.96484v1.60937c0 1.68085-.3397 3.24708-1.1914 5.55274-.3944 1.06761-.669 1.36718-1.2481 1.36718-1.1428 0-1.1912-.44912-.2812-2.61132.6033-1.43256.7602-2.18014.5547-2.64063-.2484-.55664-.3841-.41274-1.0254 1.07813-.8709 2.02456-1.924 3.53125-2.4668 3.53125-.2126 0-.7263-.27613-1.1426-.61329-.7162-.57991-.7268-.64665-.2109-1.21679 1.1894-1.31428 2.2643-4.30483 2.2793-6.33594.016-2.25229-.4802-3.44055-2.4043-5.75586-1.3607-1.63745-2.1954-3.04414-2.1954-3.71289 0-.5947 1.0427.0113 3.2168 1.86524 1.8106 1.54413 2.8965 2.14564 2.8965 1.60351 0-.1675-1.0824-1.34095-2.4062-2.60742-1.3238-1.2665-2.3294-2.42829-2.2344-2.58203.095-.15377.6824-.2793 1.3047-.2793zm-6.2852 5.68164c.1669.01.3955.0727.6934.17188 2.5969.86463 5.324 5.17033 4.9316 7.78711-.2576 1.7179-1.8975 4.14988-2.6953 3.99804-.4138-.0788-.5864-.5505-.7109-1.94531-.1222-1.36954-.3571-2.02971-.918-2.57227l-.7558-.72851.2304.76172c.3023 1.00983.3177 4.1985.025 5.11133-.1712.53458-.4821.72461-1.1817.72461h-.9472l.045-2.03711c.026-1.21614-.1342-2.35192-.3984-2.81641-.4135-.72691-.4533-.62614-.6036 1.53906-.1935 2.788-.5726 3.32379-1.7851 2.5293-.7303-.47815-.8243-.71476-.6602-1.65625.1054-.60447.2731-1.56919.3711-2.14453.1162-.67972.01-1.27313-.3125-1.69141-.4812-.63065-.4918-.62623-.5058.16211-.044 2.3974-.9676 2.99344-1.5625 1.00781-.5504-1.83712-.4949-4.87109.09-4.87109.2551 0 .5572.15225.6719.33789.1421.2297.3573.21385.6738-.0488.3989-.33103.366-.49008-.2305-1.125-.7455-.79348-.6435-1.73828.1875-1.73828.2748 0 .96.65063 1.5215 1.44727.9388 1.3318 1.5491 1.80657 1.5391 1.20703 0-.13278-.2909-.67595-.6426-1.20703-1.3391-2.02189-.325-3.07405 1.2422-1.28907.5264.59955 1.1027 1.35096 1.2812 1.66993.5081.90765.8093.25045.4102-.89454-.4475-1.28352-.5064-1.71944-.01-1.68945zm34.2422 8.1582c.801 0 1.5746 2.52506 1.5606 5.09375-.024 4.46191-1.9789 7.87696-5.5508 9.69922-1.3809.70447-2.8629.7811-5.1699.26758l-1.4414-.32031.7793-.63281c.6394-.51781 1.0603-.59341 2.3359-.41797 1.0404.14309 1.7149.0848 2.0312-.17774.7385-.61291.5615-.95898-.4921-.95898-.5777 0-.9668-.16762-.9668-.41797 0-.82283.8006-1.19141 2.5898-1.19141 1.4082 0 1.9489-.14366 2.4004-.64257.5755-.63574.5607-.64454-1.0781-.64454-.9126 0-1.6582-.0772-1.6582-.17187 0-.0948.2336-.52848.5195-.96484.375-.57218.8088-.79493 1.5586-.79493.6474 0 1.2713-.2548 1.6523-.67578.4735-.52321.5035-.65987.1309-.60547-1.8558.2714-2.0924-.47089-.6348-1.99609.6724-.70362.8565-1.09156.5938-1.25391-.4951-.30597.2643-3.19336.8398-3.19336zm-38.1426 9.65625c.655 0 .775.29255 1.0977 2.68946.092.6827.4282 1.43363.7461 1.66797.5197.38315.5886.3277.6816-.55469.057-.53972-.071-1.40413-.2851-1.91992-.479-1.15636-.2994-1.36103.9531-1.08594.7967.17498 1.0171.42004 1.1856 1.31836.2253 1.14949-.2199 1.96857.1269 2.85351.4675 1.22966.8734 1.00298 1.1172-.62304.2459-1.63949.7963-1.86534 1.5898-.6543.8814 1.3452.6738 2.87936-.5234 3.88672-.5729.48211-1.436 1.01557-1.918 1.18359-1.056.36813-1.4778 1.42259-.8281 2.07227.2545.2545 1.7406.81487 3.3008 1.24414 4.2974 1.18233 5.6694 1.78924 7.166 3.16406 1.4962 1.37454 1.7453 2.42609.8672 3.67969-.6298.89911-2.1089 1.67773-3.1836 1.67773-.9492 0-.9241.0683-.4727-1.22656.2771-.79465.2491-1.14451-.1367-1.69531-.4757-.67923-.5071-.65448-1.5058 1.11523-.5612.99429-1.1146 1.79013-1.2305 1.76953-1.1209-.19877-1.3653-.38318-1.1543-.875.8657-2.01827 1.1871-3.23431.9922-3.74218-.1814-.47268-.4675-.1855-1.4668 1.4707-.9524 1.57847-1.4371 2.08206-2.084 2.16016-.9823.11866-.9883.0802-.3496-2.02539.7407-2.44221.3075-2.81708-.9063-.78321-.6865 1.15053-1.2842 1.77565-1.7617 1.84375-.858.12216-.8944-.2294-.2207-2.16406.2798-.81393.4078-1.80973.291-2.3418-.2029-.92365-.2055-.92028-.9882.65039-1.1079 2.22321-1.8411 2.82708-2.8633 2.36133-1.0089-.45942-1.0198-1.032-.035-1.95703 2.8647-2.69123 2.0834-9.37388-1.3144-11.23242-1.5897-.86957-1.9648-1.71654-1.2442-2.81641.6617-1.00983 1.3825-1.00502 1.8457.0117.2005.44008.7039 1.02281 1.1192 1.29492.755.49392.7558.4925.7558-.96093 0-1.23659.095-1.45704.6367-1.45704zm44.25 3.35547c-.344.16758-.7882.35215-1.2734.50391-2.3424.73268-2.478 1.59304-.1523.9668.6573-.177 1.1309-.23247 1.4257-.16407zm-23.9648 2.9375c.8982-.0533 1.5202.37522 2.1465 1.43555.313.52981.8318.96289 1.1523.96289.5442 0 .5495-.0648.08-.97266-.4535-.87223-.4541-.98967-.01-1.16015.8901-.34159 1.9273.1647 2.7071 1.32031.7583 1.12378 2.1428 1.63341 1.7656.65039-.1334-.34768.034-.48242.5977-.48242.9672 0 2.2754 1.31719 2.0058 2.01953-.1614.42083-.9905.53671-4.7578.66602-2.5076.0861-5.1382.2185-5.8477.29492-3.1363.33836-5.862.47707-6.7031.33984-1.1782-.19217-2.0672-2.0496-1.5371-3.21289.3751-.82336 1.1433-.98825 1.5469-.33203.4377.71161 2.327 1.88666 2.8574 1.77734.3934-.081.2878-.34613-.4844-1.20898-1.3072-1.46075-1.2727-1.95313.1387-1.95313.9069 0 1.3554.25148 2.291 1.28711.6397.70811 1.3625 1.28907 1.6074 1.28907.6005 0 .5631-.23463-.1972-1.20118-.8455-1.07485-.8139-1.2676.2383-1.46875.1403-.0268.274-.0432.4023-.0508zm-89.8613 1.80078v1.61133c.4241-.0151.8437-.015 1.2578.006 2.5651.12934 3.1706-.37428 1.4062-1.16992-.81-.36525-1.3949-.48945-2.664-.44727zm2.5 4.87305c-.063.008-.1233.0296-.1797.0644-.222.13717-.1152.53068.3066 1.12305.9229 1.29606.8148 1.61719-.5449 1.61719-.8125 0-1.3055-.21071-2.082-.90234v7.11914c.9952-.8817 2.3708-1.57633 4.2851-2.1836 2.7723-.87941 4.9247-1.06037 8.0782-.67969 2.1525.25983 2.1703.25531 2.496-.60156.1804-.47437.3282-1.49845.3282-2.27734 0-1.08673-.1506-1.49732-.6446-1.76172-.5808-.31063-.6445-.24484-.6445.66992 0 .895-.084.99152-.7226.82031-.3983-.1068-.8228-.19622-.9415-.19922-.1186-.002-.311-.43765-.4277-.96874-.2505-1.14047-.9468-1.32296-.7305-.19141.1241.64918-.01.80469-.8085.96484-1.423.2846-1.4621.27074-2.002-.77343-.3081-.59578-.7517-.9668-1.1582-.9668h-.6582l.668.84961c.9658 1.22777.8558 1.7267-.3789 1.7207-1.2896-.006-1.541-.17553-2.4356-1.64844-.7619-1.25461-1.3619-1.85197-1.8027-1.79492zm101.3086 1.60156c.4422-.0205.8369.002 1.166.0742 1.4374.31571 1.1969.73912-.5488.96875-.8409.11062-1.7335.22882-1.9844.26172-.2509.033-.5235.26108-.6055.50781-.1217.36539.2749.41901 2.1445.28516 2.0701-.14812 2.2969-.10582 2.2969.42578 0 .93891-1.0419 1.25586-4.125 1.25586-2.0527 0-2.9836.12711-3.2461.44336-.487.58678.4263.83384 3.1055.83984 1.1064.002 2.0117.13855 2.0117.30274 0 .16418-.3979.61572-.8848 1.0039-.8264.65894-1.1144.69227-4.332.51368-2.1097-.11703-3.5217-.0693-3.6406.12304-.2618.42363 1.2213.95689 2.6816.96289.6523.003 1.3929.13371 1.6446.29297.5121.32412-.7068.9296-3.6075 1.79102-.8993.26706-1.7158.4655-1.8164.4414-.1007-.0241-.5075-.10534-.9023-.18164-1.0534-.20347-2.0176-1.60889-2.0176-2.93945 0-.95745.2602-1.3888 1.5684-2.61133 2.5114-2.34705 7.9959-4.61805 11.0918-4.76172zm-17.7832 8.63086c1.0484-.008 1.4055.15149 2.0234.64063.9148.72423 1.8125 2.3874 1.8125 3.35937 0 .82087-.8855.91445-1.8047.19141-.4717-.37101-1.1556-.67383-1.5195-.67383-.5188 0-.2839.33759 1.0859 1.56445 1.5356 1.37534 1.6953 1.62826 1.3106 2.0918-.6948.83718-1.2364.64338-3.459-1.24219-2.0773-1.76225-3.6962-2.39965-3.0547-1.20117.168.31398 1.1159 1.33957 2.1074 2.27735.9916.93779 1.7208 1.83943 1.6192 2.0039-.1017.16448-.6243.29883-1.1602.29883-.7492 0-1.4339-.43835-2.959-1.89258-1.0911-1.04041-2.3348-1.99829-2.7656-2.13086-.7668-.23588-.7629-.21527.2109 1.00586.5472.68611 1.4428 1.67341 1.9903 2.19336.5463.51877.994 1.05968.9961 1.20508 0 .14398-.6021.26172-1.3379.26172-1.2366 0-1.5004-.1691-3.4903-2.25196-2.9232-3.05901-3.7465-3.06191-1.4629-.004.9164 1.2271.6783 1.57612-.6152.89844-.89-.46638-5.0039-4.3829-5.0039-4.76368 0-.1263.9769-.30483 2.1719-.39843 1.5848-.12404 3.1748-.58445 5.875-1.69922 2.9623-1.22301 4.1832-1.55836 6.1152-1.67774.538-.0332.965-.0541 1.3145-.0566zm27.8007.43946c-.1294.14717-.2864.39271-.4199.68554-.3451.75748-.3229.81109.2696.62305.06-.0191.1-.0218.1503-.0332zm-11.4492 6.68554c.6977.0243 1.1641.20949 1.1641.54883 0 .26892-.7579.70899-1.8477 1.07227-1.6995.56647-1.807.65772-1.33 1.13476.477.47712.6426.47546 2.0527-.0254 2.057-.73054 2.2519-.69851 2.2519.38477 0 .77567-.201 1.01076-1.207 1.41015-.6639.26356-1.8518.58759-2.6387.71875-1.3435.22386-1.3925.26577-.8046.70899.4591.34621 1.1192.42404 2.4765.28906 1.6867-.16776 1.8516-.12814 1.8516.447266 0 .77686-.8489 1.331125-3.4766 2.271485-2.386.85387-2.2504 1.467773.1992.902343.9157-.21133 1.7652-.285722 1.8868-.164062.5027.50266-1.1894 2.018656-3.0801 2.759766-2.1431.83996-2.1184 1.445442.045 1.101562.818-.13002 1.207-.07036 1.207.185547 0 .64064-1.5406 1.956622-2.3203 1.982422-.4063.01346-1.2315.202062-1.834.419922l-1.0957.396484.8907.701172c.5257.41353.817.891609.7109 1.167969-.1876.48891-2.1067 1.14739-3.3535 1.15039-.9137.0023-.9444.512817-.045.748047.9601.25108.6095.924918-.8399 1.617188-1.4517.69342-3.1151 1.015951-3.459.669921-.4589-.461649-.2403-1.389667.4414-1.867187.9176-.64272 3.4702-4.276749 5.2285-7.443359 1.2353-2.22463 1.5232-3.115311 2.1055-6.556641.3707-2.190805.6738-4.388135.6738-4.882815 0-.79242.1896-.96267 1.5957-1.42968.9245-.3071 1.8532-.44426 2.5508-.41993zm-76.3125 1.04493c.2287-.003.384.0129.4453.0508.3693.22841.328 1.45181-.09 2.65039-.4035 1.15758-.4787 1.19318-1.1406.53125-.9225-.922-1.1796-.56445-.9571 1.32812.1781 1.515312.1205 1.879639-.3574 2.242189-.9391.71257-1.2832.521676-1.5-.833984-.2753-1.721765-1.1419-1.778995-1.2129-.08008-.027.66386-.023 1.524792.01 1.914062.061.72327-1.0009 1.574532-1.5449 1.238282-.1568-.09692-.3861-.900187-.5078-1.785157-.3427-2.491832-1.0063-2.080442-1.2754.791016-.1899 2.02669-.3276 2.433125-.8828 2.609375-.882.27991-1.2049-.317927-1.2149-2.216797 0-1.30337-.095-1.535212-.5683-1.445312-.4608.08764-.5931.557824-.7247 2.583984-.166 2.55404-.5532 3.376606-1.4277 3.041016-.3868-.14843-.5039-.683082-.5039-2.294922 0-1.65411-.1025-2.101563-.4824-2.101563-.3948 0-.4824.548961-.4824 3.019531 0 2.85549-.043 3.049626-.793 3.541016-1.401.91778-1.5381.718599-1.4121-2.05664.074-1.63597 0-2.537504-.2071-2.470704-.4385.14233-1.0596 3.188886-1.0976 5.384766-.028 1.63996-.4091 2.558594-1.0606 2.558594-.1416 0-.2578-1.012753-.2578-2.251953 0-2.16567-.3342-2.874444-.7949-1.689453-.1205.309799-.2994 1.865704-.3984 3.458984-.184 2.95077-.4472 3.701172-1.293 3.701172-.3939 0-.4563-.524838-.3633-3.054688.155-4.21646-.4432-4.122907-.8515.132813-.337 3.5118-.6859 4.143737-1.5801 2.867187-.6874-.98121-.6946-5.415702-.012-7.419922.5699-1.67247 3.716-5.441348 5.9355-7.111328 2.3777-1.788984 7.0807-4.300474 9.6582-5.158204 2.1252-.7072 7.3445-1.65179 8.9453-1.67382zm87.7617 3.50195c-.4449.3546-.5116.64544 0 .71875zm0 9.128904c-.3213.06576-.6132.137419-.8066.21875l-1.0586.445313 1.6797.359375c.06.01296.1238.02059.1855.0332v-1.056641zm-3.3378 2.84375c-.6797.01091-1.1565.0524-1.2676.121094-.4839.29907 1.6937 1.164642 3.7324 1.482422.3749.05843.6383.123573.873.193359v-1.697265c-.2827-.01252-.5112-.01957-.8554-.03906-.9201-.05205-1.8028-.07146-2.4824-.06055zm-21.6993 9.16211c2.2451 0 2.7228.452376.8301.785156-.6638.11671-2.727.708886-4.5859 1.316406-1.8588.60749-4.4393 1.3246-5.7344 1.59375-3.4177.71027-3.9983.648329-3.3535-.363281.8457-1.32669 8.573-3.332031 12.8437-3.332031zm-14.1093 3.705078c.08.0099.1447.03341.1875.07617 1.2792 1.27913-2.9643 7.58719-6.3028 9.36914-2.3289 1.24306-2.3169.747683.043-1.779296 2.1494-2.301491 3.8049-4.784977 3.4355-5.154297-.088-.08781-.378.264163-.6464.783203-1.2162 2.35179-5.9806 5.788635-8.8145 6.359375-1.4728.29661-1.3016-.270538.2988-.992188 1.6511-.74458 4.8642-4.0016 5.7657-5.84375.5447-1.11304.9027-1.426144 1.9531-1.708984.9571-.25776 1.403-.247884 1.7441.03516.3622.30066.459.276682.459-.111328 0-.437964 1.3181-1.102746 1.877-1.033203zm-10.7403 1.445312c.4639 0 .086 1.252709-.5527 1.830078-.8277.74888-4.3981 3.1223-5.7441 3.81836-1.0156.52516-1.9004.611204-1.9004.183594 0-.26813 1.2174-1.377782 3.6152-3.294922.9519-.7611 4.1593-2.53711 4.582-2.53711zm2.8067 0c1.12 0 1.5488.126839 1.5488.455078 0 .60924-4.0345 4.28125-5.5625 5.0625-3.4413 1.75957-3.8012 1.185957-.8613-1.371093 1.0692-.92997 2.255-2.242529 2.6347-2.917969.6504-1.1574.7795-1.228516 2.2403-1.228516zm23.7558 3.302735c.3826.0096.6037.06656.7051.167969.26.260019.1064.409294-.5742.552734-.5124.10797-2.5254.689016-4.4727 1.291016-1.9473.60201-4.8132 1.389963-6.3691 1.751953-2.6309.61212-6.9883.903297-6.9883.466797 0-.10545.298-.612784.6641-1.126954.5861-.82305.8655-.934359 2.334-.943359.9173-.0052 3.5521-.369454 5.8535-.808594 5.1084-.97482 7.6998-1.380341 8.8476-1.351562zm-46.1113 5.52539c.3332.05165.7281.369469 1.293 1.019532.5753.6622 1.0468 1.396762 1.0468 1.632812 0 .56967.035.581863-1.6992-.617187-1.6107-1.11381-1.8666-1.64606-.957-2 .1014-.03944.2053-.05237.3164-.03516zm6.7813.601563c1.5732-.06114 6.3481 4.340284 6.5683 6.226562.1842 1.57766-.2376 1.644433-1.4414.226563-.5715-.67322-2.1002-2.334366-3.3965-3.691406-1.4502-1.51822-2.2197-2.553614-2-2.689453.074-.04582.1647-.06819.2696-.07227zm-9.5704.662109c.5519.01923 1.4928.61856 2.9356 1.837891 1.2949 1.09436 2.8234 2.296908 3.3965 2.673828.5732.37692 1.0449.866601 1.0449 1.087891.01.63452-.6634.473555-2.5703-.615235-2.821-1.61074-5.5187-3.808274-5.4043-4.402344.076-.397042.2665-.593569.5976-.582031z"/><g transform="translate(202.57496 9.372377)"><path d="m3188.673-91.742433v-66.818487l-56.913 33.40925v66.818487z" fill-opacity=".698039"/><path d="m3074.847-91.742431v-66.818489l56.9129 33.40925v66.818487z" fill-opacity=".396078"/><g fill="none" stroke="#fff"><path d="m2973.5416 23.721886-58.0663 33.52457-58.0662-33.524571v-67.049141l58.0662-33.52457 58.0663 33.524571z" stroke-width="2.023646" transform="matrix(.98013866 0 0 .99655992 274.1899 -115.38271)"/><path d="m3188.673-158.56092-56.913 33.40925-56.9129-33.40925" stroke-width="2"/><path d="m3131.76-125.15167v66.818487" stroke-width="2"/></g></g></g></svg>