<?xml version="1.0" encoding="UTF-8" standalone="no"?>
<!-- Created with Inkscape (http://www.inkscape.org/) -->

<svg
   xmlns:dc="http://purl.org/dc/elements/1.1/"
   xmlns:cc="http://creativecommons.org/ns#"
   xmlns:rdf="http://www.w3.org/1999/02/22-rdf-syntax-ns#"
   xmlns:svg="http://www.w3.org/2000/svg"
   xmlns="http://www.w3.org/2000/svg"
   xmlns:sodipodi="http://sodipodi.sourceforge.net/DTD/sodipodi-0.dtd"
   xmlns:inkscape="http://www.inkscape.org/namespaces/inkscape"
   width="136.26163mm"
   height="38.37252mm"
   viewBox="0 0 482.81681 135.96563"
   id="svg2"
   version="1.1"
   inkscape:version="0.91 r13725"
   sodipodi:docname="brainbox-logo-small_justFont.svg">
  <defs
     id="defs4">
    <inkscape:perspective
       sodipodi:type="inkscape:persp3d"
       inkscape:vp_x="0 : 526.18113 : 1"
       inkscape:vp_y="0 : 1000.0001 : 0"
       inkscape:vp_z="744.09449 : 526.18113 : 1"
       inkscape:persp3d-origin="372.04724 : 350.78741 : 1"
       id="perspective4198" />
    <clipPath
       clipPathUnits="userSpaceOnUse"
       id="clipPath13368">
      <path
         inkscape:connector-curvature="0"
         id="path13370"
         d="m 1417.8487,215.35115 -56.9478,32.87888 0,67.91538 55.9224,32.2869 57.5627,-33.23386 0,-65.27063 z"
         style="fill:none;fill-rule:evenodd;stroke:#000000;stroke-width:1px;stroke-linecap:butt;stroke-linejoin:miter;stroke-opacity:1" />
    </clipPath>
    <clipPath
       clipPathUnits="userSpaceOnUse"
       id="clipPath13430">
      <g
         id="g13432"
         transform="translate(582.58429,130.48437)"
         style="stroke:#ffffff;stroke-width:4;stroke-miterlimit:4;stroke-dasharray:none;stroke-opacity:1">
        <path
           inkscape:connector-curvature="0"
           id="path13434"
           d="m 1022.5004,265.58518 -56.94786,32.87888 0,67.91538 55.92246,32.2869 57.5627,-33.23386 0,-65.27063 z"
           style="fill:none;fill-rule:evenodd;stroke:#ffffff;stroke-width:4;stroke-linecap:butt;stroke-linejoin:miter;stroke-miterlimit:4;stroke-dasharray:none;stroke-opacity:1" />
        <path
           inkscape:connector-curvature="0"
           id="path13436"
           d="m 965.41624,298.20468 57.88866,33.42201 55.3451,-31.9535"
           style="fill:none;fill-rule:evenodd;stroke:#ffffff;stroke-width:4;stroke-linecap:butt;stroke-linejoin:miter;stroke-miterlimit:4;stroke-dasharray:none;stroke-opacity:1" />
        <path
           inkscape:connector-curvature="0"
           id="path13438"
           d="m 1023.1527,331.47657 0,66.86998"
           style="fill:none;fill-rule:evenodd;stroke:#ffffff;stroke-width:4;stroke-linecap:butt;stroke-linejoin:miter;stroke-miterlimit:4;stroke-dasharray:none;stroke-opacity:1" />
      </g>
    </clipPath>
    <clipPath
       clipPathUnits="userSpaceOnUse"
       id="clipPath13368-5">
      <path
         inkscape:connector-curvature="0"
         id="path13370-6"
         d="m 1417.8487,215.35115 -56.9478,32.87888 0,67.91538 55.9224,32.2869 57.5627,-33.23386 0,-65.27063 z"
         style="fill:none;fill-rule:evenodd;stroke:#000000;stroke-width:1px;stroke-linecap:butt;stroke-linejoin:miter;stroke-opacity:1" />
    </clipPath>
    <clipPath
       clipPathUnits="userSpaceOnUse"
       id="clipPath13368-8">
      <path
         inkscape:connector-curvature="0"
         id="path13370-7"
         d="m 1417.8487,215.35115 -56.9478,32.87888 0,67.91538 55.9224,32.2869 57.5627,-33.23386 0,-65.27063 z"
         style="fill:none;fill-rule:evenodd;stroke:#000000;stroke-width:1px;stroke-linecap:butt;stroke-linejoin:miter;stroke-opacity:1" />
    </clipPath>
    <clipPath
       clipPathUnits="userSpaceOnUse"
       id="clipPath13958">
      <path
         transform="matrix(0.98013866,0,0,0.99655992,-1439.9544,291.59329)"
         d="m 2973.5416,23.721886 -58.0663,33.52457 -58.0662,-33.524571 0,-67.049141 58.0662,-33.52457 58.0663,33.524571 z"
         inkscape:randomized="0"
         inkscape:rounded="0"
         inkscape:flatsided="true"
         sodipodi:arg2="1.0471976"
         sodipodi:arg1="0.52359878"
         sodipodi:r2="58.066261"
         sodipodi:r1="67.049141"
         sodipodi:cy="-9.8026848"
         sodipodi:cx="2915.4753"
         sodipodi:sides="6"
         id="path13960"
         style="color:#000000;display:inline;overflow:visible;visibility:visible;opacity:1;fill:#ffffff;fill-opacity:1;fill-rule:nonzero;stroke:none;stroke-width:2;stroke-linecap:butt;stroke-linejoin:miter;stroke-miterlimit:4;stroke-dasharray:none;stroke-dashoffset:0;stroke-opacity:1;marker:none;enable-background:accumulate"
         sodipodi:type="star" />
    </clipPath>
  </defs>
  <sodipodi:namedview
     id="base"
     pagecolor="#ffffff"
     bordercolor="#666666"
     borderopacity="1.0"
     inkscape:pageopacity="0.0"
     inkscape:pageshadow="2"
     inkscape:zoom="1.43381"
     inkscape:cx="106.44396"
     inkscape:cy="-63.998068"
     inkscape:document-units="px"
     inkscape:current-layer="layer1"
     showgrid="false"
     inkscape:window-width="1789"
     inkscape:window-height="1083"
     inkscape:window-x="0"
     inkscape:window-y="0"
     inkscape:window-maximized="0"
     fit-margin-top="0"
     fit-margin-left="0"
     fit-margin-right="0"
     fit-margin-bottom="0" />
  <metadata
     id="metadata7">
    <rdf:RDF>
      <cc:Work
         rdf:about="">
        <dc:format>image/svg+xml</dc:format>
        <dc:type
           rdf:resource="http://purl.org/dc/dcmitype/StillImage" />
        <dc:title />
      </cc:Work>
    </rdf:RDF>
  </metadata>
  <g
     inkscape:label="Layer 1"
     inkscape:groupmode="layer"
     id="layer1"
     transform="translate(-158.51526,-428.25469)">
    <g
       id="g4168">
      <g
         transform="translate(-74.112278,-138.09361)"
         id="text13286"
         style="font-style:normal;font-variant:normal;font-weight:200;font-stretch:normal;font-size:92.42070007px;line-height:125%;font-family:'Helvetica Neue';-inkscape-font-specification:'Helvetica Neue Ultra-Light';letter-spacing:0px;word-spacing:0px;fill:#ffffff;fill-opacity:1;stroke:none;stroke-width:1px;stroke-linecap:butt;stroke-linejoin:miter;stroke-opacity:1">
        <path
           inkscape:connector-curvature="0"
           id="path4160"
           d="m 233.29586,599.44247 26.43232,0 q 5.91493,0 9.88902,1.47873 3.97409,1.47873 6.37703,3.88167 2.40293,2.40294 3.41956,5.54524 1.10905,3.04988 1.10905,6.19219 0,2.6802 -0.92421,5.08314 -0.9242,2.40293 -2.6802,4.25135 -1.66357,1.84841 -4.06651,3.1423 -2.31052,1.20147 -5.17556,1.57115 l 0.18484,0.18484 q 0.64695,-0.0924 3.04989,0.55453 2.40294,0.64694 4.99071,2.49536 2.68021,1.75599 4.71346,4.99072 2.12568,3.1423 2.12568,8.13302 0,4.52861 -1.66358,7.94818 -1.66357,3.41956 -4.71345,5.8225 -2.95746,2.31052 -7.20882,3.51199 -4.25135,1.20147 -9.42691,1.20147 l -26.43232,0 0,-65.98838 z m 26.43232,29.9443 q 8.41029,0 12.56922,-3.69682 4.15893,-3.78925 4.15893,-9.88902 0,-3.60441 -1.38631,-6.00734 -1.38631,-2.49536 -3.69683,-3.97409 -2.31052,-1.57116 -5.3604,-2.2181 -2.95746,-0.64695 -6.28461,-0.64695 l -22.36581,0 0,26.43232 22.36581,0 z m 0,32.53209 q 8.87239,0 13.86311,-3.69683 5.08314,-3.78925 5.08314,-11.27532 0,-4.25136 -1.756,-6.93156 -1.75599,-2.77262 -4.52861,-4.34377 -2.6802,-1.57115 -6.09977,-2.12567 -3.32714,-0.64695 -6.56187,-0.64695 l -22.36581,0 0,29.0201 22.36581,0 z" />
        <path
           inkscape:connector-curvature="0"
           id="path4162"
           d="m 294.28486,628.46257 0.27726,0 q 0.64695,-2.31052 2.31052,-4.34378 1.75599,-2.03325 4.15893,-3.51198 2.49536,-1.47873 5.45282,-2.2181 3.04988,-0.83179 6.28461,-0.73936 l 0,3.51198 q -2.77262,-0.36968 -6.37703,0.55453 -3.51199,0.9242 -6.74671,4.06651 -1.29389,1.38631 -2.31052,2.6802 -0.92421,1.29389 -1.57115,2.86504 -0.64694,1.57115 -1.01663,3.51199 -0.36968,1.94083 -0.4621,4.62103 l 0,25.97022 -3.51199,0 0,-47.50424 3.51199,0 0,10.53596 z" />
        <path
           inkscape:connector-curvature="0"
           id="path4164"
           d="m 346.29605,656.00394 -0.18484,0 q -0.83179,2.12567 -2.40294,4.06651 -1.57115,1.84841 -3.88167,3.32714 -2.21809,1.47873 -5.08314,2.31052 -2.86504,0.83179 -6.2846,0.83179 -7.5785,0 -11.73743,-3.23473 -4.15893,-3.32714 -4.15893,-10.16628 0,-4.15893 1.66357,-6.74671 1.66357,-2.6802 4.15893,-4.15893 2.58778,-1.57115 5.63766,-2.2181 3.14231,-0.64694 6.00735,-0.9242 l 5.45282,-0.46211 q 3.78925,-0.27726 5.91492,-0.83178 2.2181,-0.64695 3.32715,-1.66357 1.10905,-1.10905 1.38631,-2.77263 0.27726,-1.66357 0.27726,-4.15893 0,-1.94083 -0.73936,-3.6044 -0.73937,-1.66358 -2.31052,-2.95747 -1.57115,-1.29389 -4.06651,-2.03325 -2.49536,-0.73937 -6.09977,-0.73937 -6.37703,0 -10.35112,3.14231 -3.88167,3.1423 -4.25135,9.51933 l -3.51198,0 q 0.36968,-7.85576 4.99071,-11.73743 4.71346,-3.97409 13.30858,-3.97409 8.59513,0 12.4768,3.41956 3.97409,3.32715 3.97409,8.77997 l 0,27.63379 q 0,1.01663 0,2.03326 0.0924,1.01662 0.36968,1.84841 0.27726,0.83179 0.92421,1.38631 0.64694,0.4621 1.84841,0.4621 0.92421,0 2.58778,-0.27726 l 0,2.95746 q -1.38631,0.36969 -2.86504,0.36969 -2.12568,0 -3.41957,-0.55453 -1.20146,-0.55452 -1.84841,-1.47873 -0.64694,-0.92421 -0.92421,-2.12567 -0.18484,-1.29389 -0.18484,-2.77263 l 0,-2.49535 z m 0,-17.55994 q -1.29389,1.57115 -3.97409,2.12568 -2.58778,0.55452 -5.8225,0.83179 l -5.91493,0.55452 q -2.58778,0.27726 -5.17556,0.83179 -2.58778,0.4621 -4.71345,1.66357 -2.03326,1.20147 -3.32715,3.32714 -1.29389,2.03326 -1.29389,5.3604 0,5.26798 3.32715,7.85576 3.32714,2.49536 9.14965,2.49536 6.00734,0 9.51933,-2.12567 3.51199,-2.2181 5.3604,-4.99072 1.84841,-2.86504 2.31052,-5.45282 0.55452,-2.6802 0.55452,-3.60441 l 0,-8.87239 z" />
        <path
           inkscape:connector-curvature="0"
           id="path4166"
           d="m 361.82273,608.9618 0,-9.51933 3.51199,0 0,9.51933 -3.51199,0 z m 0,56.46905 0,-47.50424 3.51199,0 0,47.50424 -3.51199,0 z" />
        <path
           inkscape:connector-curvature="0"
           id="path4168"
           d="m 376.51473,617.92661 3.51199,0 0,10.16627 0.18484,0 q 0.92421,-2.6802 2.58778,-4.71345 1.75599,-2.12568 3.97409,-3.60441 2.31052,-1.47873 4.99072,-2.2181 2.6802,-0.73936 5.45282,-0.73936 4.15893,0 7.02397,1.01663 2.95746,1.01662 4.80588,2.6802 1.84841,1.66357 2.86504,3.78925 1.10905,2.03325 1.57115,4.15893 0.46211,2.12567 0.55453,4.15893 0.0924,1.94083 0.0924,3.41956 l 0,29.38979 -3.51199,0 0,-30.03673 q 0,-1.75599 -0.27726,-4.43619 -0.27726,-2.6802 -1.66357,-5.08314 -1.29389,-2.49536 -4.06652,-4.25135 -2.6802,-1.756 -7.48607,-1.756 -4.06651,0 -7.20882,1.47873 -3.1423,1.47873 -5.3604,4.15893 -2.21809,2.58778 -3.41956,6.28461 -1.10905,3.60441 -1.10905,7.94818 l 0,25.69296 -3.51199,0 0,-47.50424 z" />
        <path
           inkscape:connector-curvature="0"
           id="path4170"
           d="m 425.17712,599.44247 26.43232,0 q 5.91492,0 9.88901,1.47873 3.97409,1.47873 6.37703,3.88167 2.40294,2.40294 3.41957,5.54524 1.10905,3.04988 1.10905,6.19219 0,2.6802 -0.92421,5.08314 -0.92421,2.40293 -2.6802,4.25135 -1.66357,1.84841 -4.06651,3.1423 -2.31052,1.20147 -5.17556,1.57115 l 0.18484,0.18484 q 0.64695,-0.0924 3.04988,0.55453 2.40294,0.64694 4.99072,2.49536 2.6802,1.75599 4.71346,4.99072 2.12567,3.1423 2.12567,8.13302 0,4.52861 -1.66357,7.94818 -1.66357,3.41956 -4.71346,5.8225 -2.95746,2.31052 -7.20881,3.51199 -4.25135,1.20147 -9.42691,1.20147 l -26.43232,0 0,-65.98838 z m 26.43232,29.9443 q 8.41028,0 12.56921,-3.69682 4.15894,-3.78925 4.15894,-9.88902 0,-3.60441 -1.38632,-6.00734 -1.38631,-2.49536 -3.69682,-3.97409 -2.31052,-1.57116 -5.3604,-2.2181 -2.95747,-0.64695 -6.28461,-0.64695 l -22.36581,0 0,26.43232 22.36581,0 z m 0,32.53209 q 8.87239,0 13.8631,-3.69683 5.08314,-3.78925 5.08314,-11.27532 0,-4.25136 -1.75599,-6.93156 -1.75599,-2.77262 -4.52862,-4.34377 -2.6802,-1.57115 -6.09976,-2.12567 -3.32715,-0.64695 -6.56187,-0.64695 l -22.36581,0 0,29.0201 22.36581,0 z" />
        <path
           inkscape:connector-curvature="0"
           id="path4172"
           d="m 480.43604,641.67873 q 0,-5.08314 1.38631,-9.51933 1.47873,-4.52862 4.25135,-7.94819 2.77262,-3.41956 6.83913,-5.3604 4.06651,-2.03325 9.33449,-2.03325 5.26798,0 9.33449,2.03325 4.06652,1.94084 6.83914,5.3604 2.77262,3.41957 4.15893,7.94819 1.47873,4.43619 1.47873,9.51933 0,5.08314 -1.47873,9.61175 -1.38631,4.52861 -4.15893,7.94818 -2.77262,3.32715 -6.83914,5.3604 -4.06651,1.94084 -9.33449,1.94084 -5.26798,0 -9.33449,-1.94084 -4.06651,-2.03325 -6.83913,-5.3604 -2.77262,-3.41957 -4.25135,-7.94818 -1.38631,-4.52861 -1.38631,-9.61175 z m 3.51199,0 q 0,4.25135 1.20146,8.22544 1.20147,3.88167 3.51199,6.93155 2.31052,3.04989 5.73008,4.8983 3.41957,1.75599 7.85576,1.75599 4.4362,0 7.85576,-1.75599 3.41957,-1.84841 5.73009,-4.8983 2.31051,-3.04988 3.51198,-6.93155 1.20147,-3.97409 1.20147,-8.22544 0,-4.25135 -1.20147,-8.13302 -1.20147,-3.97409 -3.51198,-7.02398 -2.31052,-3.04988 -5.73009,-4.80587 -3.41956,-1.84842 -7.85576,-1.84842 -4.43619,0 -7.85576,1.84842 -3.41956,1.75599 -5.73008,4.80587 -2.31052,3.04989 -3.51199,7.02398 -1.20146,3.88167 -1.20146,8.13302 z" />
        <path
           inkscape:connector-curvature="0"
           id="path4174"
           d="m 543.9695,640.47726 -17.37509,-22.55065 4.89829,0 14.87974,19.87045 14.97215,-19.87045 4.52861,0 -17.19025,22.55065 18.76141,24.95359 -4.80588,0 -16.26604,-22.27339 -16.63573,22.27339 -4.43619,0 18.66898,-24.95359 z" />
      </g>
    </g>
  </g>
</svg>
