<?xml version="1.0" encoding="UTF-8" standalone="no"?>
<!-- Created with Inkscape (http://www.inkscape.org/) -->

<svg
   xmlns:dc="http://purl.org/dc/elements/1.1/"
   xmlns:cc="http://creativecommons.org/ns#"
   xmlns:rdf="http://www.w3.org/1999/02/22-rdf-syntax-ns#"
   xmlns:svg="http://www.w3.org/2000/svg"
   xmlns="http://www.w3.org/2000/svg"
   xmlns:sodipodi="http://sodipodi.sourceforge.net/DTD/sodipodi-0.dtd"
   xmlns:inkscape="http://www.inkscape.org/namespaces/inkscape"
   width="94.304131mm"
   height="68.824051mm"
   viewBox="0 0 334.1485 243.86475"
   id="svg2"
   version="1.1"
   inkscape:version="0.91 r13725"
   sodipodi:docname="brainbox.svg">
  <defs
     id="defs4">
    <inkscape:perspective
       sodipodi:type="inkscape:persp3d"
       inkscape:vp_x="0 : 526.1811 : 1"
       inkscape:vp_y="0 : 1000 : 0"
       inkscape:vp_z="744.09449 : 526.1811 : 1"
       inkscape:persp3d-origin="372.04724 : 350.7874 : 1"
       id="perspective4198" />
    <clipPath
       clipPathUnits="userSpaceOnUse"
       id="clipPath13368">
      <path
         inkscape:connector-curvature="0"
         id="path13370"
         d="m 1417.8487,215.35115 -56.9478,32.87888 0,67.91538 55.9224,32.2869 57.5627,-33.23386 0,-65.27063 z"
         style="fill:none;fill-rule:evenodd;stroke:#000000;stroke-width:1px;stroke-linecap:butt;stroke-linejoin:miter;stroke-opacity:1" />
    </clipPath>
    <clipPath
       clipPathUnits="userSpaceOnUse"
       id="clipPath13430">
      <g
         id="g13432"
         transform="translate(582.58429,130.48437)"
         style="stroke:#ffffff;stroke-width:4;stroke-miterlimit:4;stroke-dasharray:none;stroke-opacity:1">
        <path
           inkscape:connector-curvature="0"
           id="path13434"
           d="m 1022.5004,265.58518 -56.94786,32.87888 0,67.91538 55.92246,32.2869 57.5627,-33.23386 0,-65.27063 z"
           style="fill:none;fill-rule:evenodd;stroke:#ffffff;stroke-width:4;stroke-linecap:butt;stroke-linejoin:miter;stroke-miterlimit:4;stroke-dasharray:none;stroke-opacity:1" />
        <path
           inkscape:connector-curvature="0"
           id="path13436"
           d="m 965.41624,298.20468 57.88866,33.42201 55.3451,-31.9535"
           style="fill:none;fill-rule:evenodd;stroke:#ffffff;stroke-width:4;stroke-linecap:butt;stroke-linejoin:miter;stroke-miterlimit:4;stroke-dasharray:none;stroke-opacity:1" />
        <path
           inkscape:connector-curvature="0"
           id="path13438"
           d="m 1023.1527,331.47657 0,66.86998"
           style="fill:none;fill-rule:evenodd;stroke:#ffffff;stroke-width:4;stroke-linecap:butt;stroke-linejoin:miter;stroke-miterlimit:4;stroke-dasharray:none;stroke-opacity:1" />
      </g>
    </clipPath>
    <clipPath
       clipPathUnits="userSpaceOnUse"
       id="clipPath13368-5">
      <path
         inkscape:connector-curvature="0"
         id="path13370-6"
         d="m 1417.8487,215.35115 -56.9478,32.87888 0,67.91538 55.9224,32.2869 57.5627,-33.23386 0,-65.27063 z"
         style="fill:none;fill-rule:evenodd;stroke:#000000;stroke-width:1px;stroke-linecap:butt;stroke-linejoin:miter;stroke-opacity:1" />
    </clipPath>
    <clipPath
       clipPathUnits="userSpaceOnUse"
       id="clipPath13368-8">
      <path
         inkscape:connector-curvature="0"
         id="path13370-7"
         d="m 1417.8487,215.35115 -56.9478,32.87888 0,67.91538 55.9224,32.2869 57.5627,-33.23386 0,-65.27063 z"
         style="fill:none;fill-rule:evenodd;stroke:#000000;stroke-width:1px;stroke-linecap:butt;stroke-linejoin:miter;stroke-opacity:1" />
    </clipPath>
    <clipPath
       clipPathUnits="userSpaceOnUse"
       id="clipPath13958">
      <path
         transform="matrix(0.98013866,0,0,0.99655992,-1439.9544,291.59329)"
         d="m 2973.5416,23.721886 -58.0663,33.52457 -58.0662,-33.524571 0,-67.049141 58.0662,-33.52457 58.0663,33.524571 z"
         inkscape:randomized="0"
         inkscape:rounded="0"
         inkscape:flatsided="true"
         sodipodi:arg2="1.0471976"
         sodipodi:arg1="0.52359878"
         sodipodi:r2="58.066261"
         sodipodi:r1="67.049141"
         sodipodi:cy="-9.8026848"
         sodipodi:cx="2915.4753"
         sodipodi:sides="6"
         id="path13960"
         style="color:#000000;display:inline;overflow:visible;visibility:visible;opacity:1;fill:#ffffff;fill-opacity:1;fill-rule:nonzero;stroke:none;stroke-width:2;stroke-linecap:butt;stroke-linejoin:miter;stroke-miterlimit:4;stroke-dasharray:none;stroke-dashoffset:0;stroke-opacity:1;marker:none;enable-background:accumulate"
         sodipodi:type="star" />
    </clipPath>
  </defs>
  <sodipodi:namedview
     id="base"
     pagecolor="#ffffff"
     bordercolor="#666666"
     borderopacity="1.0"
     inkscape:pageopacity="0.0"
     inkscape:pageshadow="2"
     inkscape:zoom="1.3095647"
     inkscape:cx="245.9363"
     inkscape:cy="99.410504"
     inkscape:document-units="px"
     inkscape:current-layer="layer1"
     showgrid="false"
     inkscape:window-width="1440"
     inkscape:window-height="855"
     inkscape:window-x="4"
     inkscape:window-y="24"
     inkscape:window-maximized="0"
     fit-margin-top="0"
     fit-margin-left="0"
     fit-margin-right="0"
     fit-margin-bottom="0" />
  <metadata
     id="metadata7">
    <rdf:RDF>
      <cc:Work
         rdf:about="">
        <dc:format>image/svg+xml</dc:format>
        <dc:type
           rdf:resource="http://purl.org/dc/dcmitype/StillImage" />
        <dc:title />
      </cc:Work>
    </rdf:RDF>
  </metadata>
  <g
     inkscape:label="Layer 1"
     inkscape:groupmode="layer"
     id="layer1"
     transform="translate(-233.29586,-422.67515)">
    <g
       id="g4189"
       transform="matrix(0.86464604,0,0,0.86464604,47.577517,57.210754)">
      <text
         sodipodi:linespacing="125%"
         id="text13286"
         y="665.43085"
         x="227.47336"
         style="font-style:normal;font-variant:normal;font-weight:200;font-stretch:normal;font-size:92.42070007px;line-height:125%;font-family:'Helvetica Neue';-inkscape-font-specification:'Helvetica Neue Ultra-Light';letter-spacing:0px;word-spacing:0px;fill:#ffffff;fill-opacity:1;stroke:none;stroke-width:1px;stroke-linecap:butt;stroke-linejoin:miter;stroke-opacity:1"
         xml:space="preserve"><tspan
           y="665.43085"
           x="227.47336"
           id="tspan13288"
           sodipodi:role="line">BrainBox</tspan></text>
      <g
         transform="translate(-2467.9649,610.43727)"
         id="g14073">
        <path
           transform="matrix(0.98013866,0,0,0.99655992,10.76486,-110.01033)"
           d="m 2973.5416,23.721886 -58.0663,33.52457 -58.0662,-33.524571 0,-67.049141 58.0662,-33.52457 58.0663,33.524571 z"
           inkscape:randomized="0"
           inkscape:rounded="0"
           inkscape:flatsided="true"
           sodipodi:arg2="1.0471976"
           sodipodi:arg1="0.52359878"
           sodipodi:r2="58.066261"
           sodipodi:r1="67.049141"
           sodipodi:cy="-9.8026848"
           sodipodi:cx="2915.4753"
           sodipodi:sides="6"
           id="path14055"
           style="color:#000000;display:inline;overflow:visible;visibility:visible;opacity:1;fill:#ffffff;fill-opacity:1;fill-rule:nonzero;stroke:none;stroke-width:2.02364588;stroke-linecap:butt;stroke-linejoin:miter;stroke-miterlimit:4;stroke-dasharray:none;stroke-dashoffset:0;stroke-opacity:1;marker:none;enable-background:accumulate"
           sodipodi:type="star" />
        <g
           id="g14036"
           transform="translate(-466,-4)">
          <path
             id="path13994"
             d="m 3331.7305,-181.50781 -3.9219,2.30273 c 1.447,-0.27129 3.0488,-0.30015 4.4453,-0.0117 3.5783,0.73909 5.5948,2.20847 3.8086,2.77539 -0.4892,0.15528 -0.9128,-0.0182 -1.5156,-0.62109 -0.4602,-0.46014 -0.9138,-0.75826 -1.0078,-0.66406 -0.094,0.0942 -6e-4,0.34128 0.2089,0.55078 0.5687,0.56866 0.4865,2.18359 -0.1113,2.18359 -0.2711,0 -0.5791,-0.22204 -0.6836,-0.49414 -0.1701,-0.44332 -1.7,-1.4375 -2.2129,-1.4375 -0.1111,0 0.3178,0.60571 0.9512,1.34571 1.8111,2.11578 1.4299,3.00133 -0.8008,1.86328 -0.7314,-0.37312 -1.4235,-0.57624 -1.539,-0.45118 -0.1157,0.1251 -0.025,0.2938 0.2031,0.375 1.0774,0.38407 2.3223,1.79745 2.3223,2.63672 0,1.2691 -0.2827,1.38987 -1.4981,0.63868 -1.2566,-0.77657 -1.2952,-0.69547 -0.4336,0.9121 0.7961,1.4849 0.8405,2.9247 0.1,3.20899 -0.3127,0.12001 -0.6007,0.0394 -0.6777,-0.19141 -0.2161,-0.64826 -1.6026,-2.1467 -1.8027,-1.94726 -0.1009,0.10058 0.1036,0.74829 0.455,1.4375 0.7103,1.39333 0.8051,2.45548 0.3047,3.39062 -0.442,0.82578 -0.8643,0.78731 -1.1133,-0.10156 -0.7924,-2.82888 -1.6113,-2.82857 -1.6113,0 0,1.94014 -0.07,2.18192 -0.6543,2.26562 -0.5499,0.0788 -0.7307,-0.20012 -1.1269,-1.74609 -0.6484,-2.53007 -1.2677,-2.65581 -1.0586,-0.21484 0.1143,1.33367 0.029,2.04293 -0.3028,2.48242 -0.711,0.94262 -1.5234,0.44288 -1.5234,-0.9375 0,-1.73874 -0.7793,-3.36693 -1.5176,-3.17383 -0.5295,0.13843 -0.5864,0.4107 -0.4707,2.22852 0.073,1.13961 0.026,2.07226 -0.1015,2.07226 -0.1279,0 -0.5248,-0.37096 -0.8829,-0.82617 -0.8669,-1.10164 -1.5498,-0.54033 -0.7773,0.63867 0.5724,0.87371 0.7018,1.79688 0.2519,1.79688 -0.1532,0 -0.6583,-0.29849 -1.123,-0.66407 -1.3795,-1.0851 -1.6431,-0.38341 -0.3809,1.01368 1.7217,1.90579 1.4922,2.75815 -0.4687,1.74414 -1.286,-0.66499 -1.5254,-0.0522 -0.3164,0.80859 0.5387,0.38361 1.4077,1.44403 1.9316,2.35742 1.5763,2.74848 1.1476,3.22701 -1.1816,1.31836 -1.6768,-1.37402 -1.9338,-0.77972 -0.4688,1.08594 1.2378,1.57642 1.4708,2.43281 0.8086,2.98242 -0.4609,0.38245 -0.6468,0.28858 -1.4863,-0.75781 -0.5279,-0.65812 -1.2354,-1.19727 -1.5723,-1.19727 -0.6556,0 -0.8249,0.47425 -0.2871,0.80664 0.1796,0.11096 0.6263,0.78869 0.9922,1.50586 0.916,1.79545 0.4371,2.17298 -1.3945,1.09961 -1.6728,-0.98035 -2.1099,-0.82181 -1.0098,0.36524 0.8612,0.92927 1.2558,2.07627 0.9688,2.82422 -0.1503,0.39148 -0.4811,0.26494 -1.67,-0.64258 -2.0415,-1.55834 -2.4197,-1.41617 -0.8281,0.31054 1.0084,1.09396 1.3281,1.70271 1.3281,2.52539 0,3.53782 4.775,2.39729 8.5215,-2.03515 0.9727,-1.1507 1.7735,-2.19429 1.7735,-2.31836 0.01,-0.39076 3.976,-2.43739 5.1543,-2.6582 3.0844,-0.57802 5.4032,-1.27574 6.2558,-1.88282 1.2649,-0.9007 4.2193,-1.12552 5.5762,-0.42382 0.5455,0.28211 1.2891,0.92801 1.6504,1.43554 0.8945,1.25682 1.4363,3.75001 0.9941,4.57617 -0.3263,0.60971 -0.3679,0.59879 -1.1035,-0.25586 -0.4204,-0.48844 -0.8387,-0.81536 -0.9277,-0.72656 -0.089,0.0888 0.044,0.95412 0.2949,1.92188 0.5578,2.15101 0.5792,3.29769 0.07,3.80664 -0.6325,0.63246 -1.2226,0.44151 -1.2226,-0.39649 0,-1.07182 -0.5049,-2.3136 -1.0215,-2.51171 -0.3279,-0.12575 -0.4313,0.34443 -0.4453,2.02148 -0.019,2.30013 -0.4299,3.20508 -1.4551,3.20508 -0.4967,0 -0.6026,-0.31122 -0.6836,-1.98633 -0.1172,-2.42761 -0.7345,-2.84219 -0.9922,-0.66602 -0.2207,1.86336 -0.825,3.29688 -1.3887,3.29688 -0.2256,0 -0.7846,-0.14246 -1.2422,-0.31641 -0.6649,-0.2528 -0.7706,-0.43202 -0.5293,-0.88672 1.0603,-1.99869 1.6009,-3.77676 1.8028,-5.93164 0.2171,-2.31631 0.1893,-2.48371 -0.4688,-2.83593 -0.5236,-0.27949 -0.8099,-0.28227 -1.1406,-0.008 -0.3305,0.27504 -0.6151,0.27515 -1.1328,-0.002 -0.943,-0.50467 -1.0056,-0.34719 -0.4688,1.21094 0.832,2.4148 -0.2,3.21234 -1.3984,1.08008 -0.6603,-1.17487 -1.2483,-1.64454 -2.0645,-1.64454 -0.19,0 -0.1124,0.25989 0.1739,0.57618 0.653,0.72163 1.5117,2.74506 1.5117,3.56445 0,1.25416 -1.0125,1.08127 -2.5234,-0.42969 -1.6634,-1.66341 -2.3555,-1.91776 -1.3418,-0.49414 0.377,0.5294 0.7624,1.44039 0.8574,2.02539 0.1503,0.92585 0.058,1.11638 -0.711,1.4668 -0.8013,0.36513 -0.968,0.31927 -1.8007,-0.47852 -1.0232,-0.98035 -1.2865,-0.46073 -0.4043,0.79883 0.3487,0.49806 0.4507,1.07703 0.3164,1.79297 -0.2748,1.46465 0.6259,2.50643 2.9433,3.4082 1.0228,0.39801 2.3376,1.21879 2.9219,1.82422 0.9657,0.99586 1.0529,1.25795 0.9649,2.75195 -0.1121,1.91116 -0.6372,2.30978 -1.2129,0.91993 -0.4775,-1.15274 -1.1418,-1.76588 -1.6036,-1.48047 -0.2244,0.13865 -0.1903,0.49335 0.1036,1.07422 0.2412,0.47679 0.5348,1.39685 0.6523,2.04687 0.1805,0.99776 0.1005,1.26257 -0.5117,1.69141 -1.2977,0.90895 -1.782,0.65409 -2.3281,-1.22461 -0.532,-1.82974 -1.5759,-3.42078 -1.9805,-3.01758 -0.1325,0.13202 -0.061,0.63399 0.1582,1.11523 0.2193,0.48125 0.4801,1.8372 0.5781,3.01172 0.1715,2.04583 0.1467,2.14325 -0.5879,2.33985 -0.4217,0.11291 -0.866,0.20598 -0.9863,0.20898 -0.1202,0.002 -0.4595,-0.82336 -0.7539,-1.83594 -0.2943,-1.0126 -0.8149,-2.3894 -1.1563,-3.05859 -0.674,-1.32125 -1.4138,-1.69776 -0.9668,-0.49219 0.5259,1.41878 1.0722,5.07556 0.875,5.86133 -0.1103,0.43939 -0.4768,0.94627 -0.8144,1.12695 -0.551,0.29489 -0.649,0.16275 -0.9629,-1.30078 -0.3973,-1.85274 -1.9076,-5.12304 -2.3652,-5.12304 -0.1679,0 -0.1961,0.2524 -0.062,0.5625 0.4141,0.96191 1.0974,4.37194 1.1074,5.5039 0.01,1.39787 -0.7361,2.93929 -1.9844,4.10547 l -0.998,0.93164 0.2461,-0.80469 c 0.1345,-0.44259 0.3144,-1.90934 0.4004,-3.25976 0.1519,-2.398 0.1271,-2.4949 -0.9942,-4.125 -1.4701,-2.13709 -1.6779,-3.34502 -1.1562,-6.69922 0.4964,-3.19052 0.1875,-4.92691 -1.2422,-6.99414 -0.9143,-1.32202 -2.7192,-2.74023 -3.4864,-2.74023 -0.672,0 -0.5128,1.22306 0.209,1.60937 1.3297,0.71165 2.5155,4.097 1.9532,5.57617 -0.4658,1.22494 -0.92,1.07114 -1.6153,-0.55078 -0.6039,-1.409 -1.3027,-2.19245 -1.3027,-1.45898 0,0.21264 0.3001,1.39747 0.668,2.63281 0.7306,2.45305 0.6266,3.7793 -0.2989,3.7793 -0.4411,0 -0.7187,-0.47904 -1.1269,-1.94727 -0.2977,-1.07069 -0.6785,-1.86314 -0.8457,-1.75977 -0.1737,0.10739 0.1109,1.31239 0.664,2.8125 0.8299,2.25076 0.9135,2.75262 0.5918,3.5293 -0.4881,1.17849 -0.8325,1.14312 -1.3691,-0.14062 -0.4574,-1.09422 -1.3911,-2.06801 -1.6934,-1.76563 -0.097,0.097 0.172,0.73347 0.5977,1.41406 1.176,1.87994 1.5267,3.20484 1.5117,5.71094 l -0.014,2.28516 -0.6172,-1.12696 c -0.7557,-1.38025 -0.8014,-0.86167 -0.1464,1.66602 0.5662,2.18356 0.5169,5.77883 -0.082,5.97656 -0.2159,0.0713 -0.4906,-0.27719 -0.6152,-0.77929 -0.124,-0.49941 -0.4319,-1.40409 -0.6836,-2.00977 -0.6467,-1.5567 -1.0725,-0.69794 -0.8262,1.66211 0.1891,1.80883 0.1748,1.85156 -0.6074,1.85156 -2.3963,0 -3.2553,-5.03873 -1.8496,-10.85351 0.8347,-3.45287 0.681,-4.35311 -0.3301,-1.9336 -0.4268,1.02134 -0.9299,1.80554 -1.1172,1.74414 -0.9116,-0.29865 -0.4245,-4.68048 0.8536,-7.68945 0.9464,-2.22811 0.5317,-2.60174 -0.7364,-0.66406 -1.2166,1.85897 -1.6949,1.98575 -1.8437,0.48828 -0.1133,-1.13957 0.9095,-3.34505 3.0605,-6.60156 1.8671,-2.82677 1.6455,-3.43348 -0.3262,-0.89453 -2.2335,2.87619 -3.0883,3.06559 -2.4531,0.54296 0.4186,-1.66227 3.3695,-5.27617 5.7188,-7.0039 1.5195,-1.1176 1.5561,-1.55284 0.08,-0.94141 -1.4348,0.59432 -1.7952,0.29996 -0.9493,-0.77539 0.4634,-0.5892 2.1582,-1.61121 4.6094,-2.77734 3.8818,-1.84676 5.6037,-3.13258 5.1582,-3.85352 -0.2405,-0.38913 -2.7659,-0.27855 -4.2578,0.18555 -0.5922,0.1842 -0.7246,0.10178 -0.7246,-0.44922 0,-0.8042 0.9556,-1.47237 2.8027,-1.95899 0.7449,-0.19627 1.4362,-0.4865 1.5352,-0.64648 0.32,-0.51786 -0.4392,-0.69824 -1.5957,-0.37891 -1.3478,0.37216 -1.6537,0.0514 -1.0703,-1.12109 0.2752,-0.55301 0.9684,-1.0509 2.0039,-1.43945 2.1806,-0.81827 2.5504,-1.25977 1.0566,-1.25977 -0.702,0 -1.1914,-0.15643 -1.1914,-0.38086 0,-0.20938 1.2221,-1.55284 2.7148,-2.98633 3.434,-3.29767 6.87,-5.16438 10.6426,-5.77929 2.4787,-0.40402 2.5629,-0.50371 0.8516,-1.02539 -0.3204,-0.0977 -0.3634,-0.36815 -0.1621,-1.01563 0.1509,-0.48518 0.2748,-1.88095 0.2754,-3.10156 4e-4,-0.81245 0,-1.32635 0.064,-1.69336 l -2.7461,1.61133 c 0.2716,0.14632 0.2497,0.38626 0.1367,0.95117 -0.1971,0.9855 -0.7255,1.83398 -1.1425,1.83398 -0.127,0 -0.396,-0.36211 -0.5977,-0.80468 -0.1633,-0.35832 -0.3821,-0.58597 -0.5664,-0.70508 l -0.3086,0.17969 c 0.012,0.0603 0.025,0.12324 0.057,0.20507 0.3342,0.87097 -0.1706,2.0918 -0.8653,2.0918 -0.3563,0 -0.7321,-0.21883 -0.834,-0.48437 -0.2333,-0.60798 -0.7597,-0.63057 -0.7597,-0.0332 0,0.45257 -0.663,0.83789 -1.4395,0.83789 -0.098,0 -0.2038,-0.0748 -0.3027,-0.18359 l -5.7246,3.35938 c 0.086,1.64326 -0.2861,2.29687 -1.2617,2.29687 -0.4435,0 -0.6094,-0.2352 -0.6094,-0.88477 -7e-4,-0.11476 -0.018,-0.19772 -0.025,-0.29882 l -1.4141,0.83007 c 0.041,0.25653 0.078,0.52593 0.127,0.73633 0.2158,0.92902 0.1731,1.22583 -0.1953,1.36719 -0.8523,0.32705 -1.0307,0.1939 -1.2422,-0.93359 -0.022,-0.11873 -0.071,-0.22514 -0.1055,-0.33985 l -1.0312,0.60742 c 0.017,0.11006 0.021,0.18741 0.041,0.30079 0.3458,1.98523 0.3261,2.16051 -0.3653,3.0957 -0.8849,1.19695 -1.3332,1.2447 -1.8906,0.20312 -0.2319,-0.43318 -0.637,-0.8696 -0.9004,-0.9707 -0.6665,-0.25579 -0.3004,1.5033 0.5664,2.7207 0.8095,1.13756 0.8063,1.36867 -0.027,2.12305 -0.6605,0.59774 -0.6812,0.59562 -1.1367,-0.0273 -0.2552,-0.349 -0.7581,-1.43915 -1.1172,-2.42383 -0.2513,-0.68909 -0.5563,-1.26809 -0.8496,-1.68945 l -0.9024,0.53125 c 0.1671,0.63642 0.4701,1.55341 0.8262,2.45507 0.5243,1.32772 0.9545,2.52353 0.9551,2.65625 7e-4,0.13279 -0.6397,0.24219 -1.4239,0.24219 l -1.4257,0 -0.4766,-1.69141 c -0.2302,-0.81647 -0.4656,-1.76904 -0.6074,-2.40039 l -0.9043,0.53125 c -0.015,0.89856 -0.077,1.62891 -0.1621,1.62891 -0.1302,0 -0.7087,-0.37223 -1.2793,-0.7832 l -13.8125,8.10937 c 0.7277,0.54177 1.1015,1.12173 1.1015,1.74024 0,0.56166 -0.1514,0.60643 -1.4472,0.41211 -0.086,-0.0129 -0.1388,-0.0111 -0.2207,-0.0215 l 0,0.79492 c 0.053,0.0275 0.086,0.0507 0.1406,0.0781 1.7593,0.88298 2.8164,1.85773 2.8164,2.59961 0,0.66764 -0.3993,0.74213 -1.3262,0.24609 -0.3517,-0.18822 -0.8849,-0.29407 -1.1855,-0.23437 -0.3757,0.0747 0.081,0.55415 1.4648,1.5332 1.9735,1.39647 2.3878,2.13722 1.7539,3.13477 -0.1852,0.29134 -0.4878,0.23188 -1.2011,-0.23829 -1.5093,-0.9949 -1.6733,-0.74163 -0.377,0.58594 1.358,1.39066 1.4855,2.07771 0.5117,2.75977 -0.625,0.43772 -0.7378,0.40931 -1.3906,-0.34961 -1.2004,-1.39548 -1.6338,-0.73404 -0.5234,0.79883 1.1687,1.61332 1.1846,1.72851 0.3105,2.51953 -0.5126,0.46392 -0.6471,0.56028 -0.9941,0.18945 l 0,3.13867 c 0.3737,0.2989 1.1184,0.15269 2.4004,-0.41797 1.9111,-0.85077 3.8892,-2.74957 4.9707,-4.77148 0.5511,-1.03036 0.7349,-1.90227 0.7343,-3.47266 -9e-4,-1.91937 -0.1125,-2.26176 -1.3085,-4.02929 -1.9332,-2.85677 -1.9966,-3.12064 -1.2481,-5.1211 1.2697,-3.39358 4.3761,-5.96331 7.2246,-5.97461 3.305,-0.0135 5.4228,1.58258 5.2461,3.95313 -0.1245,1.66932 -0.5579,1.78146 -1.4668,0.3789 -0.423,-0.65291 -0.9923,-1.12109 -1.3594,-1.12109 -0.5969,0 -0.5878,0.064 0.1641,1.17188 1.1409,1.68129 1.0603,2.36914 -0.2793,2.36914 -0.8062,0 -1.1577,-0.18469 -1.4082,-0.73438 -0.609,-1.33664 -2.0297,-2.7853 -2.5391,-2.58984 -0.4078,0.15651 -0.3782,0.29883 0.1778,0.89062 1.0501,1.11782 0.8638,1.78907 -0.4942,1.78907 l -1.1543,0 1.3438,1.68554 c 1.3519,1.69796 2.4056,3.74094 2.0918,4.05469 -0.093,0.0931 -0.6736,-0.0728 -1.291,-0.36719 -1.6428,-0.7834 -1.3935,-0.10065 0.6464,1.76367 1.2045,1.10085 1.7715,1.8651 1.7715,2.39063 0,0.77934 -0.7407,1.07607 -1.1269,0.45117 -0.1095,-0.17704 -0.3355,-0.32227 -0.502,-0.32227 -0.5548,0 -0.3124,0.99481 0.502,2.0625 0.8458,1.10895 0.9965,1.9628 0.4902,2.76368 -0.2507,0.39647 -0.5303,0.25692 -1.6035,-0.79102 -1.5606,-1.52387 -1.7334,-0.98647 -0.4629,1.44336 0.8305,1.58911 0.8527,2.57041 0.057,2.56641 -0.2268,-0.001 -0.6762,-0.46405 -0.998,-1.0293 -0.8203,-1.44077 -1.2328,-0.61168 -0.5879,1.18164 0.4348,1.20978 0.4414,1.4673 0.043,1.94727 -0.4252,0.51232 -0.525,0.47371 -1.3477,-0.51172 -0.4885,-0.5851 -0.9778,-0.97345 -1.0879,-0.86328 -0.1102,0.11021 0.044,0.94053 0.3438,1.84375 0.2998,0.9032 0.4642,1.85431 0.3652,2.11328 -0.2184,0.5691 0.02,0.58104 1.8418,0.0937 1.8391,-0.49188 5.2824,0.0463 6.6875,1.04687 1.978,1.40842 2.9652,5.46653 2.2266,9.15235 -0.83,4.14171 -1.3286,5.14081 -1.8047,3.61523 -0.2151,-0.68947 -0.6969,-1.18987 -1.1543,-1.20117 -0.116,-0.003 -0.135,0.5643 -0.041,1.26172 0.245,1.82634 -0.1078,2.83716 -1.1856,3.39453 -1.4336,0.74133 -1.6169,0.621 -1.6269,-1.04102 -0.01,-1.78768 -0.2745,-2.97656 -0.6758,-2.97656 -0.1564,0 -0.2863,0.54317 -0.2871,1.20703 0,1.78848 -0.5939,3.60369 -1.457,4.4668 -1.301,1.30113 -1.5037,1.01608 -1.2598,-1.7793 0.2054,-2.35426 0.1731,-2.56971 -0.4375,-2.89648 -0.6213,-0.33254 -0.6703,-0.2468 -0.8477,1.49609 -0.1036,1.01737 -0.3669,2.43056 -0.5859,3.13867 -0.3475,1.12422 -0.5332,1.29938 -1.4629,1.38868 l -1.0644,0.10351 0.2539,-1.23047 c 0.666,-3.21091 -0.1102,-5.89635 -0.8497,-2.93945 -1.0675,4.26822 -0.9993,4.125 -1.9648,4.125 -0.4976,0 -0.9822,-0.12356 -1.0762,-0.27539 -0.094,-0.15181 0.1376,-1.52351 0.5137,-3.04688 0.5575,-2.25821 0.6078,-2.85925 0.2754,-3.25976 -0.5712,-0.68825 -0.8609,-0.39603 -1.1016,1.10937 -0.2474,1.54737 -0.7564,2.90284 -1.2226,3.42578 l 0,5.43946 c 0.4361,-0.0569 0.7817,-0.0886 0.875,-0.0527 0.5259,0.20181 0.6636,2.940905 0.1855,3.695315 -0.1702,0.268659 -0.5618,0.249272 -1.0605,0.02734 l 0,15.271484 6.748,3.960938 c 0.2004,-0.08948 0.4159,-0.172243 0.6602,-0.238282 2.5027,-0.67665 3.292,-1.758241 1.0176,-1.394531 -1.0425,0.1667 -1.2872,0.108069 -1.2872,-0.300781 0,-0.64064 0.423,-0.907799 2.3887,-1.511719 1.794,-0.55118 2.3661,-1.25555 0.8379,-1.03125 -1.2372,0.18172 -1.2403,-0.290822 -0.01,-1.326172 0.9712,-0.81725 1.1949,-0.863994 6.6016,-1.371094 2.4964,-0.23414 2.1505,-0.7096 -0.5449,-0.75 -1.8465,-0.02768 -2.2126,-0.474328 -0.9317,-1.136718 0.715,-0.36977 1.989,-0.496094 4.9825,-0.496094 2.2112,0 4.1031,-0.135781 4.205,-0.300781 0.102,-0.16498 -0.9036,-0.481488 -2.2343,-0.705078 -1.3307,-0.22362 -2.42,-0.518037 -2.42,-0.654297 0,-0.13629 0.318,-0.41783 0.7051,-0.625 0.7,-0.3746 5.7546,-0.226938 7.7442,0.226562 0.556,0.12676 0.8847,0.06867 0.8847,-0.15625 0,-0.19693 -0.8675,-0.599211 -1.9297,-0.894531 -1.0622,-0.29531 -1.9316,-0.651356 -1.9316,-0.791016 0,-0.29097 2.0953,-0.924428 3.0566,-0.923828 0.6785,3.3e-4 1.9422,0.742087 2.8711,1.685547 1.0417,1.05802 1.9954,1.037031 3.3985,-0.07422 1.5145,-1.19948 1.7108,-1.846555 0.3457,-1.140625 -1.2635,0.65349 -1.3028,0.640079 -1.3028,-0.451172 0,-1.01738 0.5897,-1.792907 1.6114,-2.117187 0.958,-0.30403 0.8154,-1.070063 -0.1641,-0.882813 -0.6511,0.12445 -0.8047,0.02568 -0.8047,-0.519531 0,-0.7037 0.8842,-1.419822 2.2539,-1.826172 0.4426,-0.1313 1.1668,-0.52498 1.6094,-0.875 l 0.8047,-0.636724 -1.3691,0.226568 c -0.919,0.15193 -1.3672,0.109514 -1.3672,-0.128906 0,-0.603462 2.015,-1.619202 3.6406,-1.835942 0.8512,-0.11349 1.8639,-0.47091 2.2519,-0.79492 0.7036,-0.58701 0.7023,-0.58831 -0.8222,-0.59961 -0.8409,-0.006 -1.5293,-0.15323 -1.5293,-0.32617 0,-0.78038 1.7071,-1.37199 4.4238,-1.53321 3.3175,-0.19688 4.3668,-0.70406 2.5254,-1.2207 -1.4598,-0.40957 -1.5804,-0.8201 -0.4063,-1.38281 0.6698,-0.32103 1.437,-0.35706 3.084,-0.14453 1.4731,0.18999 2.5405,0.16792 3.2481,-0.0703 l 1.0527,-0.35547 -1.332,-0.39843 c -1.5864,-0.47529 -1.6786,-0.83217 -0.3399,-1.29883 1.1278,-0.39315 0.985,-1.00586 -0.2343,-1.00586 -0.4484,0 -1.1847,-0.29047 -1.6348,-0.64453 -0.8959,-0.70471 -1.7647,-0.90531 -1.1172,-0.25781 0.6631,0.66309 0.4442,1.46045 -0.4473,1.63086 -0.6478,0.12385 -1.0505,-0.0837 -1.8203,-0.92969 -1.5414,-1.6939 -2.5326,-1.39519 -1.1601,0.34961 0.5722,0.72745 0.6147,0.93149 0.2422,1.17383 -0.9618,0.62554 -1.9794,0.70933 -2.2715,0.1875 -0.5162,-0.92244 -1.2724,-1.50977 -1.9434,-1.50977 -0.638,0 -0.6335,0.0339 0.127,1.04688 1.3102,1.74554 1.3259,1.82656 0.4023,2.17773 -0.7567,0.28768 -1.0101,0.19197 -2.1133,-0.80469 -0.6892,-0.62264 -1.5714,-1.13281 -1.9609,-1.13281 -0.6445,0 -0.6005,0.10971 0.4844,1.2207 1.3462,1.37868 1.4961,2.13387 0.5273,2.65235 -0.5712,0.30573 -0.8687,0.16785 -2.123,-0.98828 -1.0102,-0.93122 -1.5608,-1.23995 -1.793,-1.00782 -0.2321,0.23212 0.026,0.75582 0.8398,1.70703 1.221,1.42648 1.2973,1.79418 0.4786,2.31055 -0.3505,0.22111 -0.8572,0.0619 -1.8125,-0.57031 -1.775,-1.17466 -2.3341,-0.7617 -0.8555,0.63281 1.2061,1.13749 1.3307,1.93582 0.3945,2.52539 -0.4351,0.27401 -0.8171,0.12676 -1.8789,-0.72656 -1.7068,-1.37157 -2.2717,-0.92446 -0.914,0.72265 0.5492,0.66636 0.9249,1.286263 0.8339,1.376963 -0.3245,0.32449 -2.0414,0.209323 -2.7793,-0.185547 -0.6986,-0.373936 -0.7424,-0.551766 -0.5996,-2.541016 0.2636,-3.67229 2.2368,-6.44177 6.7715,-9.50977 1.9676,-1.33119 2.8378,-1.74491 3.3711,-1.60156 0.9784,0.26304 2.621,-0.15165 2.0352,-0.51367 -0.2347,-0.14699 -0.3452,-0.49784 -0.2364,-0.78125 0.2246,-0.5853 1.725,-0.68439 3.3418,-0.22071 0.7703,0.22092 1.1222,0.18138 1.4024,-0.15625 0.2993,-0.3607 0.2015,-0.51554 -0.4922,-0.77929 -0.4762,-0.18106 -0.8055,-0.51027 -0.7305,-0.73047 0.1508,-0.44175 1.7067,-0.50752 3.4727,-0.14649 0.8033,0.1642 1.3278,0.0942 1.7695,-0.23633 0.5999,-0.44883 0.5814,-0.47838 -0.4297,-0.6875 -0.5823,-0.12043 -1.0064,-0.3823 -0.9414,-0.58007 0.1602,-0.48838 2.3273,-0.63686 3.4707,-0.23828 0.649,0.22619 0.9947,0.2182 1.1465,-0.0273 0.2076,-0.33594 -0.078,-0.6273 -1.3809,-1.41406 -0.506,-0.30549 -0.5261,-0.42977 -0.1484,-0.88477 0.2417,-0.29128 0.759,-0.52929 1.1504,-0.52929 0.9791,0 1.2355,-0.34506 0.6016,-0.8086 -0.7417,-0.54233 -0.3113,-1.44531 0.6894,-1.44531 0.8496,0 1.0733,-0.57895 0.461,-1.19141 -0.1943,-0.19461 -0.2568,-0.65742 -0.1387,-1.02929 0.1622,-0.51093 0.4803,-0.67578 1.3008,-0.67578 1.4389,0 1.6718,-0.47367 0.4765,-0.96875 -1.743,-0.722 -0.9683,-1.95928 0.8047,-1.28516 1.2482,0.47454 1.8799,-0.12235 0.875,-0.82617 -1.47,-1.02968 -0.4194,-2.11381 1.2246,-1.26367 1.3093,0.67711 1.6504,0.60968 1.4258,-0.28516 -0.172,-0.68528 -0.071,-0.78211 0.959,-0.90234 2.3936,-0.27944 3.3923,0.0473 4.3965,1.43359 0.6512,0.89901 0.9394,1.67658 0.9394,2.53516 0,0.68156 -0.1045,1.24023 -0.2324,1.24023 -0.1279,0 -0.7652,-0.61482 -1.416,-1.36719 -0.6508,-0.75239 -1.2902,-1.26322 -1.4219,-1.13476 -0.1314,0.12851 -0.097,0.41702 0.076,0.64258 0.6051,0.78753 1.7649,4.07896 1.5566,4.41601 -0.3625,0.58656 -0.8191,0.37339 -1.166,-0.54492 -0.3976,-1.05259 -1.8953,-2.69821 -2.2539,-2.47656 -0.1389,0.0859 0.1846,1.08916 0.7188,2.23047 0.5339,1.14131 0.8786,2.22542 0.7656,2.4082 -0.4243,0.68656 -1.4083,0.30283 -2.0606,-0.80274 -1.0857,-1.84008 -2.4514,-2.02032 -1.5097,-0.19922 0.2786,0.53874 0.5058,1.18993 0.5058,1.44532 0,0.76653 -0.9385,0.89277 -1.5273,0.20508 -0.5845,-0.68265 -1.3692,-0.8556 -1.3692,-0.30079 0,0.78332 1.0252,2.22282 2.0235,2.83985 0.5906,0.36497 2.3421,0.95925 3.8906,1.32031 3.5649,0.83121 4.6483,1.39615 5.1992,2.71484 0.4576,1.0952 0.3199,2.44336 -0.25,2.44336 -0.1803,0 -0.679,-0.37756 -1.1074,-0.83984 -0.4285,-0.46228 -0.8353,-0.78319 -0.9063,-0.71289 -0.07,0.0704 0.108,0.7856 0.3965,1.58789 1.0265,2.85441 -0.1961,3.40572 -1.9961,0.90039 -0.6483,-0.90249 -1.2489,-1.57153 -1.3339,-1.48633 -0.085,0.0852 0.1406,1.031 0.5019,2.10352 1.0793,3.2039 0.215,3.97083 -1.6113,1.42773 -0.7764,-1.08093 -1.1272,-1.3704 -1.2012,-0.98828 -0.057,0.29687 0.1222,0.97754 0.3984,1.51172 0.7278,1.40746 0.6492,2.52239 -0.1972,2.79102 -0.7066,0.22427 -1.5528,-0.4931 -1.5528,-1.31641 0,-0.45966 -1.114,-1.50311 -1.3515,-1.26563 -0.095,0.0953 0.1704,1.0271 0.5918,2.07032 0.6421,1.58985 0.7048,2.03092 0.3886,2.72461 -0.4631,1.01676 -0.8036,1.03943 -1.5624,0.10351 -0.9976,-1.2305 -1.1308,-0.32703 -0.3047,2.06446 1.052,3.04531 1.7746,3.420768 3.455,1.79882 1.372,-1.32429 3.4708,-2.00888 5.1914,-1.69336 0.6357,0.11658 2.4595,0.80108 4.0528,1.51954 5.4337,2.45027 8.0892,2.718626 13.6191,1.378906 3.8333,-0.928776 3.9221,-0.938296 3.9219,-0.402343 -2e-4,0.41055 -2.787,2.983936 -3.9981,3.691406 -0.8478,0.49533 -2.189,0.513984 -3.7285,0.05273 -0.7943,-0.23799 -1.3938,-0.254738 -1.7617,-0.04883 -0.472,0.26413 -0.3549,0.392254 0.7637,0.839844 1.6129,0.64532 1.6662,1.067701 0.2109,1.675781 -1.3102,0.54744 -1.8687,0.383805 -4.3125,-1.265625 -0.9472,-0.63932 -2.0234,-1.162109 -2.3906,-1.162109 -0.6553,0 -0.6527,0.01516 0.076,0.791015 0.4086,0.43485 1.3018,1.177984 1.9863,1.652344 0.6845,0.47436 1.2461,0.970123 1.2461,1.101562 0,0.233131 -1.0984,0.730126 -2.4375,1.103516 -0.5139,0.1433 -1.3512,-0.439897 -3.6758,-2.554687 -1.6559,-1.50644 -3.2197,-2.738282 -3.4766,-2.738282 -0.552,0 -0.4773,0.110592 2.0958,3.107422 0.9353,1.08939 1.6992,2.139885 1.6992,2.333985 0,0.19898 -0.58,0.353515 -1.3301,0.353515 -1.2227,0 -1.4921,-0.172712 -3.3399,-2.132812 -1.1054,-1.17272 -2.1642,-2.077919 -2.3535,-2.011719 -0.1945,0.0681 0.1388,0.88287 0.7657,1.875 0.6101,0.96548 1.1074,1.870779 1.1074,2.011719 0,0.14091 -0.5891,0.257812 -1.3106,0.257812 -1.5008,0 -2.0875,-0.514743 -3.4863,-3.058593 -0.4868,-0.885171 -1.1267,-1.655891 -1.4219,-1.712891 -0.4541,-0.08777 -0.4135,0.141831 0.2657,1.494141 0.9807,1.952479 1.0204,2.632812 0.1503,2.632812 -1.4241,0 -2.835,-0.886058 -3.1621,-1.986328 -0.9443,-3.17679 -2.403,-6.065733 -2.8418,-5.626953 -0.064,0.06392 0.1329,1.149046 0.4356,2.410156 0.303,1.26111 0.4601,2.381764 0.3515,2.490234 -0.3371,0.3372 -1.3271,-0.141205 -2.4179,-1.166015 -0.7953,-0.74715 -1.0469,-1.253411 -1.0469,-2.113282 0,-1.236739 -1.1861,-4.308591 -1.6641,-4.308591 -0.174,0 -0.2076,0.80363 -0.08,1.931638 0.1394,1.23157 0.1001,1.931641 -0.1075,1.931641 -0.1791,0 -0.9051,-0.578989 -1.6132,-1.287109 -0.7081,-0.70812 -1.5779,-1.28711 -1.9336,-1.28711 -0.5406,0 -0.4151,0.2494 0.7636,1.527344 0.7755,0.8409 1.4141,1.629163 1.4141,1.751953 0.01,0.3513 -1.3759,1.226797 -1.9199,1.216797 -0.2704,-0.0049 -1.0605,-0.438684 -1.7559,-0.964844 -2.0586,-1.5576 -2.4674,-1.110802 -0.5879,0.642578 l 1.6875,1.574219 -0.8457,0.666016 c -1.1429,0.89895 -1.737,0.840822 -3.0136,-0.298828 -1.5294,-1.36544 -2.3474,-1.265013 -1.002,0.123046 0.9201,0.949271 1.0043,1.169343 0.6563,1.726563 -0.2203,0.35144 -0.3149,0.860209 -0.211,1.130859 0.2783,0.72529 3.0129,1.000713 5.3594,0.539063 3.2047,-0.63048 5.5846,-0.237121 9.875,1.630859 3.9652,1.72638 6.4683,2.374149 10.4297,2.699219 2.8718,0.23564 8.5132,-0.221593 11.9941,-0.970703 1.3752,-0.29449 2.6067,-0.431511 2.7363,-0.300781 0.221,0.22288 -0.8193,1.22969 -2.3828,2.30664 -0.4819,0.332 -2.0161,0.532662 -5.1484,0.669922 -5.3924,0.23638 -7.0235,0.850648 -3.1309,1.179688 1.3565,0.11458 3.0953,0.208984 3.8653,0.208984 1.683,0 1.7713,0.361625 0.3086,1.265625 -1.0243,0.63302 -1.3057,0.655168 -4.586,0.367188 -1.9225,-0.16877 -4.2069,-0.465297 -5.0761,-0.660157 -1.0115,-0.22674 -1.6926,-0.243002 -1.8907,-0.04492 -0.3024,0.30243 2.3266,1.221522 5.5078,1.925782 1.6254,0.35983 1.911,0.567571 1.4336,1.044921 -0.3566,0.35659 -4.3683,-0.0018 -8.0644,-0.720703 -0.933,-0.18152 -2.1536,-0.228258 -2.7129,-0.105468 l -1.0156,0.222656 0.7812,0.419922 c 0.4301,0.23129 1.6148,0.607234 2.6328,0.833984 1.0179,0.22675 1.8496,0.582386 1.8496,0.791016 0,0.21701 -0.7335,0.47096 -1.7168,0.59375 -1.4073,0.17584 -2.1152,0.06719 -3.9023,-0.605469 -1.2002,-0.45175 -2.4823,-0.822266 -2.8496,-0.822266 -0.6789,0 -0.3977,0.26885 1.9258,1.84961 0.9368,0.63732 -2.3051,0.141887 -4.1407,-0.632813 -2.2199,-0.93688 -2.5805,-0.531238 -0.6503,0.732422 0.9229,0.60417 1.6796,1.210013 1.6796,1.345703 0,0.13565 -0.4714,0.243188 -1.0468,0.242188 -1.7576,-0.0053 -6.3575,-2.422757 -6.3575,-3.341797 0,-0.22307 1.2093,-0.866254 2.6875,-1.427735 2.8084,-1.066789 5.3677,-2.670908 5.3497,-3.355468 -0.027,-1.06103 -1.5174,-1.987131 -4.8184,-2.994141 -0.7967,-0.24301 -2.1412,-0.882632 -2.9883,-1.419922 -2.2575,-1.43199 -2.963,-1.260157 -1.2949,0.314453 1.3475,1.27195 1.3483,1.274249 0.6523,1.761719 -1.0823,0.75814 -2.0722,0.585688 -3.6757,-0.638672 -1.4899,-1.13761 -2.4664,-1.464739 -2.1641,-0.724609 0.09,0.22128 0.8084,0.890298 1.5976,1.486328 0.7893,0.59601 1.4356,1.183888 1.4356,1.304688 0,0.261309 -1.9311,0.992187 -2.6211,0.992187 -0.2659,0 -1.2206,-0.741244 -2.1211,-1.646484 -2.1382,-2.14941 -2.876,-1.91838 -0.8984,0.28125 0.8269,0.9197 1.4214,1.807173 1.3203,1.970703 -0.1011,0.16352 -0.6207,0.448745 -1.1543,0.634765 -0.9446,0.32929 -1.0113,0.284581 -2.4961,-1.724609 -0.8387,-1.13497 -1.6327,-2.071125 -1.7656,-2.078125 -0.49,-0.02684 -0.2126,0.830444 0.7246,2.240234 0.5296,0.79664 0.9623,1.556744 0.9629,1.689453 7e-4,0.132801 -0.5412,0.237375 -1.2051,0.234376 -1.0674,-0.0063 -1.3186,-0.17211 -2.1719,-1.44336 -0.9838,-1.46537 -1.7715,-2.065789 -1.7715,-1.349609 0,0.2189 0.3756,0.95052 0.834,1.625 0.4583,0.67446 0.7542,1.30439 0.6582,1.40039 -0.096,0.09603 -0.6803,0.07887 -1.2988,-0.03711 -0.9354,-0.17548 -1.2896,-0.50133 -2.1113,-1.9375 -0.5433,-0.94953 -1.204,-1.807393 -1.4668,-1.908203 -0.5932,-0.22779 -0.5928,-0.229934 0.061,1.285156 0.2955,0.68547 0.5505,1.679848 0.5645,2.210938 0.021,0.79595 0.2097,1.025917 1.0722,1.304687 2.0396,0.65925 1.9726,1.011534 -0.3984,2.121094 l -2.1973,1.027344 -0.8359,-0.949219 c -0.4592,-0.52254 -1.2173,-1.452896 -1.6856,-2.066406 -1.1843,-1.55161 -1.4928,-0.983862 -0.4648,0.855468 0.9082,1.62503 0.7748,2.18166 -0.4805,2 -0.5447,-0.07882 -1.0518,-0.685368 -1.8886,-2.261718 -0.6289,-1.18474 -1.3973,-2.220535 -1.7071,-2.302735 -0.7268,-0.19287 -0.7086,0.170723 0.082,1.720703 0.8022,1.57299 0.8065,1.931641 0.025,1.931641 -1.1711,0 -1.6523,-0.402404 -2.3085,-1.927734 -0.4048,-0.94102 -0.9735,-1.674137 -1.4786,-1.904297 -0.7338,-0.33434 -0.7974,-0.313391 -0.5898,0.199219 0.8052,1.98856 0.868,2.369433 0.4727,2.845703 -0.6148,0.74081 0.8773,2.102163 3.7285,3.402343 1.3094,0.59706 2.3825,1.190077 2.3925,1.316407 0.016,0.3342 -2.3125,1.861328 -2.8378,1.861328 -0.2453,0 -0.9421,-0.433754 -1.5469,-0.964844 -1.3584,-1.19258 -1.9502,-1.288656 -1.5293,-0.427734 l 6.6855,3.923828 c 2.7406,-1.195733 5.2376,-2.678635 6.9981,-4.1875 2.1434,-1.83705 4.3433,-2.530438 8,-2.523438 3.2307,0.0066 3.6764,0.302119 2.4277,1.605469 -0.9254,0.96602 -1.0339,0.9937 -3.5781,0.9375 -1.4425,-0.03177 -2.7841,0.04155 -2.9824,0.164062 -0.7287,0.450331 -0.3234,0.794395 1.1679,0.990235 0.8409,0.11043 1.808,0.309789 2.1485,0.443359 0.5576,0.21871 0.5017,0.332409 -0.5528,1.136719 l -1.1699,0.892578 -2.2597,-0.582031 c -1.6798,-0.43273 -2.3526,-0.48926 -2.6231,-0.21875 -0.2705,0.27051 0.1001,0.510154 1.4434,0.933594 0.9937,0.31325 1.8066,0.73322 1.8066,0.93164 0,0.19841 -0.5319,0.663836 -1.1816,1.035156 l -1.1817,0.675782 -1.7285,-0.66211 c -1.1693,-0.44742 -1.8359,-0.556557 -2.0566,-0.335937 -0.2206,0.22063 0.044,0.50176 0.8183,0.869141 1.3037,0.618674 1.3868,0.907593 0.4258,1.371093 l 5.9688,3.503907 c 0.923,-0.171222 1.805,-0.35059 2.6035,-0.548829 l 2.5429,-0.630859 1.1602,1.107422 c 1.5385,1.47014 3.167,2.451318 6.4687,3.892578 4.2756,1.86631 6.9738,3.612106 9.3809,6.072266 0.797,0.814594 1.8122,2.071849 2.8789,3.501953 l 1.4238,-0.835938 c -3.3868,-4.957131 -7.8227,-10.475053 -11.3496,-13.824219 -2.4471,-2.323869 -2.8407,-3.095703 -1.5781,-3.095703 0.5641,0 2.0367,1.378853 5.8047,5.439453 3.9572,4.26458 6.7063,7.438966 8.9785,10.390626 l 2.293,-1.345704 c -0.4468,-0.369692 -0.885,-0.756261 -1.2969,-1.166015 -1.8497,-1.84011 -2.674,-3.14639 -2.2519,-3.56836 0.099,-0.0987 1.1824,0.707929 2.4062,1.792969 0.7398,0.655898 1.7534,1.39491 2.7148,2.017578 l 1.5313,-0.898437 c -1.1774,-0.629156 -2.1821,-1.439101 -3.2969,-2.578125 -1.8035,-1.84266 -2.832,-3.629348 -2.832,-4.923828 0,-1.14953 0.7854,-0.705284 1.8281,1.035156 0.5568,0.92941 1.3517,2.006838 1.7656,2.392578 1.0863,1.012142 3.6033,2.268795 5.0547,2.59375 l 0.711,-0.416016 c -0.2955,-0.159032 -0.7061,-0.366573 -1.2578,-0.642578 -1.6482,-0.82457 -2.7834,-1.700312 -4.0665,-3.138672 -0.9787,-1.09711 -1.7787,-2.177147 -1.7793,-2.398437 0,-0.84333 1.3191,-0.344363 2.7325,1.029297 1.432,1.39181 4.8298,3.342098 5.1914,2.980468 0.099,-0.09911 -0.2493,-0.401738 -0.7754,-0.673828 -1.3375,-0.69163 -4.6116,-3.740517 -4.3945,-4.091796 0.3339,-0.54035 1.5224,-0.293522 2.6191,0.542968 1.8547,1.414659 4.3516,2.472813 7.2578,3.148438 l 3.918,-2.300782 c -2.5939,-0.285278 -5.9303,-0.886589 -7.2969,-1.460937 -1.5572,-0.65446 -1.5273,-1.074405 0.1113,-1.515625 1.2252,-0.32992 1.5342,-0.261925 4.3047,0.953125 1.641,0.71969 3.4002,1.311453 3.9102,1.314453 0.056,2.64e-4 0.1051,0.0083 0.1601,0.0098 l 2.5313,-1.484375 c -5.0742,-0.94455 -6.0847,-1.742703 -3.041,-2.423828 1.7044,-0.38143 1.9471,-0.347277 5.7129,0.814453 0.022,0.0069 0.023,0.0068 0.045,0.01367 l 1.7246,-1.011719 -2.0215,-0.660156 1.1523,-0.5625 c 0.9578,-0.466996 1.2549,-0.494027 2.9219,0.01758 l 1.8262,-1.072266 c -1.0252,-0.598642 -0.8698,-0.92489 0.582,-1.197265 0.4766,-0.0894 0.899,-0.0885 1.4102,0.02734 l 5.3672,-3.15039 c -2.6927,-0.04746 -6.006,0.181116 -8.7539,0.662109 -2.1244,0.37186 -6.2924,1.037249 -9.2637,1.480469 -6.2954,0.93908 -6.0295,0.921747 -6.0195,0.404297 0.011,-0.91318 0.6594,-1.262046 2.9218,-1.572266 1.3106,-0.1797 4.267,-0.74199 6.5684,-1.25 7.2866,-1.60841 10.1748,-1.915955 13.6797,-1.453125 1.158,0.152918 2.1074,0.322829 2.959,0.5 l 3.4062,-2 c -1.2396,-0.195096 -3.7827,-0.260234 -6.6875,-0.162109 -4.5995,0.15541 -5.5911,0.30759 -12.7129,1.96289 -4.2487,0.98754 -8.0509,1.797828 -8.4492,1.798828 -0.546,0.0022 -0.7246,-0.182923 -0.7246,-0.751953 0,-1.10183 0.8608,-1.710157 3.2187,-2.273437 8.3133,-1.98591 10.3936,-2.455776 12.3243,-2.785156 3.1434,-0.53625 8.5442,-0.247674 11.6543,0.623046 1.0923,0.305815 1.9481,0.611132 2.5761,0.884766 l 4.0469,-2.375 c -0.1626,-0.302816 -0.3348,-0.601119 -0.5273,-0.884766 -0.4308,-0.6348 -0.7832,-1.220081 -0.7832,-1.300781 0,-0.0807 0.3979,-0.149344 0.8847,-0.152344 1.1399,-0.009 2.8859,-0.359356 4.7324,-0.898437 l 0,-3.857422 c -0.084,0.04575 -0.1599,0.09014 -0.2617,0.138672 -1.0361,0.49414 -1.2665,0.493293 -3.2226,0.002 -1.1583,-0.29097 -2.4643,-0.529297 -2.9043,-0.529297 -1.3664,0 -1.2483,0.595381 0.1972,0.988281 2.2895,0.6223 2.3047,0.628725 1.9942,0.921875 -0.7051,0.66566 -6.7624,0.581375 -7.4473,-0.103515 -0.093,-0.09302 0.4348,-0.855703 1.1738,-1.695313 0.7391,-0.83961 1.7351,-2.155028 2.2129,-2.923828 0.7371,-1.18636 1.4053,-1.671987 4.4102,-3.210937 2.0853,-1.067928 2.9745,-1.50351 3.8476,-1.666016 l 0,-4.624993 c -0.03,0.0123 -0.042,0.0207 -0.072,0.0332 -1.3753,0.567836 -3.0616,1.124874 -3.7481,1.236324 -1.2347,0.20035 -1.2468,0.192817 -1.0254,-0.689453 0.1232,-0.49063 0.3034,-1.288641 0.4004,-1.771481 0.1101,-0.55063 0.7746,-1.34619 1.7832,-2.13477 0.9742,-0.76164 1.8539,-1.59497 2.6621,-2.48242 l 0,-4.6289 c -0.3221,0.33871 -0.7781,0.60809 -1.3046,0.74023 -0.4348,0.10914 -0.9357,0.47086 -1.1133,0.80273 l 0,0.002 c -0.1776,0.33186 -0.7534,0.82574 -1.2793,1.09765 -1.1916,0.6162 -1.2463,0.25134 -0.291,-1.9082 1.1307,-2.55618 2.2897,-8.41698 2.3437,-11.85547 l 0.051,-3.13672 1.3828,-0.002 c 0.07,-9e-5 0.1406,0.009 0.2109,0.0117 l 0,-6.19336 c -0.5077,0.85767 -0.7593,0.96468 -2.6347,1.11523 -1.142,0.0917 -2.2189,0.30875 -2.3926,0.48242 -0.4509,0.45096 1.1245,0.78868 2.4863,0.53321 0.8852,-0.16606 1.1075,-0.10499 1.1075,0.30469 0,0.59724 -0.5582,0.74199 -3.9434,1.01953 -1.8395,0.15081 -2.4941,0.32241 -2.4941,0.6582 0,0.25043 0.2169,0.45703 0.4824,0.45703 0.9338,0 0.4685,0.68066 -0.8848,1.29492 -1.3761,0.62463 -3.1387,0.84551 -3.1387,0.39258 0,-0.85895 0.8114,-2.73022 1.8164,-4.18945 0.8209,-1.19194 1.9661,-2.22608 3.8145,-3.44336 1.4526,-0.95666 3.3029,-2.474 4.1113,-3.37305 1.0144,-1.12825 1.3601,-1.45851 1.6699,-1.35156 l 0,-10.43359 c -1.379,-1.55773 -3.5427,-3.2626 -4.8125,-3.68165 -0.992,-0.32744 -1.1269,-0.50263 -1.1269,-1.45312 0,-0.14503 -0.029,-0.33505 -0.059,-0.52539 l -6.0293,-3.53906 c 0.3433,2.65985 0.4005,7.77148 0.014,7.77148 -0.1541,0 -0.4526,-0.90527 -0.6641,-2.01172 -0.4691,-2.45544 -1.0257,-4.10547 -1.3848,-4.10547 -0.1478,0 -0.1544,0.762 -0.016,1.69141 0.1389,0.92941 0.252,3.35477 0.252,5.39063 0,3.12734 -0.1002,3.87275 -0.6465,4.80273 -0.8626,1.46808 -1.6227,1.74255 -1.3047,0.4707 0.4186,-1.67371 0.5896,-7.74946 0.2363,-8.3789 -0.4419,-0.78718 -0.528,-0.47939 -1.0156,3.58789 -0.2122,1.7703 -0.6083,4.05239 -0.8809,5.07031 -0.2868,1.07062 -0.6755,1.84961 -0.9218,1.84961 -0.834,0 -0.9003,-2.23817 -0.1563,-5.28516 1.2765,-5.22794 0.9052,-7.36966 -2.2246,-12.82812 -1.3777,-2.40265 -1.8379,-3.66058 -1.4551,-3.99414 l -7.2109,-4.23242 c -0.2073,0.88751 -0.4102,1.09938 -1.0547,1.17382 l -0.8652,0.0996 0.1855,-1.78906 c 0.02,-0.19712 0.026,-0.32131 0.039,-0.47852 l -0.9141,-0.53711 c -0.01,0.4084 -0.2102,1.00027 -0.459,1.33594 -0.4351,0.58692 -0.4969,0.59118 -1.0156,0.0801 -0.4542,-0.44739 -0.5011,-0.78469 -0.2617,-1.90039 0.039,-0.18266 0.085,-0.3155 0.1289,-0.46094 l -4.0059,-2.35156 c -0.036,0.25252 -0.1326,0.51597 -0.3203,0.87891 -0.284,0.54927 -0.6631,1 -0.8418,1 -0.1788,0 -0.5965,-0.63694 -0.9297,-1.41407 -0.5957,-1.39 -1.6936,-2.60901 -1.166,-1.29492 0.136,0.33885 0.3269,1.19617 0.4219,1.9043 0.095,0.70813 0.3131,1.5583 0.4844,1.89062 0.223,0.43261 0.1869,0.68323 -0.125,0.88086 -0.9818,0.62213 -1.5104,0.28876 -2.0332,-1.28515 -0.5007,-1.50766 -1.5886,-2.91348 -1.9649,-2.53711 -0.099,0.0988 0.2686,1.02246 0.8184,2.05273 1.0441,1.95655 1.1564,3.11003 0.3183,3.26953 -0.314,0.0598 -0.7742,-0.46734 -1.2636,-1.44531 -0.9163,-1.83129 -1.2148,-1.27169 -0.6719,1.25977 0.4328,2.01817 0.036,2.68209 -0.9082,1.51757 -0.8637,-1.06539 -1.1083,-0.65479 -0.6621,1.11719 0.2928,1.16324 0.289,1.59431 -0.023,1.97071 -0.5773,0.69553 -0.7239,0.61892 -1.5391,-0.8086 -0.4036,-0.70675 -0.8732,-1.28516 -1.0449,-1.28516 -0.3799,10e-6 -0.3805,-0.12166 0,1.88477 0.3145,1.65819 0.1865,2.62109 -0.3477,2.62109 -0.1581,0 -0.2871,-0.22237 -0.2871,-0.49414 0,-0.8136 -0.9759,-2.05555 -1.4668,-1.86718 -0.3044,0.11682 -0.3626,0.34783 -0.1797,0.70507 0.1495,0.2921 0.3653,1.14733 0.4805,1.90235 0.191,1.25047 0.1368,1.40575 -0.6016,1.74219 -0.9563,0.43572 -0.8694,0.5086 -1.7129,-1.42383 -0.9592,-2.19734 -1.3451,-1.94963 -1.1211,0.72265 0.1773,2.11431 0.1488,2.25391 -0.4668,2.25391 -0.6475,0 -1.0288,-0.52964 -1.2636,-1.75391 -0.1227,-0.63917 -1.0806,-1.88428 -1.2891,-1.67578 -0.063,0.0632 0.1174,1.02442 0.4024,2.13672 0.4299,1.67849 0.4445,2.06964 0.086,2.29688 -0.852,0.54 -1.5414,0.30057 -1.7344,-0.60157 -0.3062,-1.4314 -0.7491,-2.33398 -1.1445,-2.33398 -0.2398,0 -0.2989,0.33843 -0.168,0.9668 0.1106,0.5311 0.291,1.39459 0.4004,1.91992 0.1703,0.81714 0.075,1.0121 -0.666,1.34961 -0.9639,0.4392 -1.4459,0.0527 -1.4649,-1.17774 -0.01,-0.35406 -0.1345,-0.84391 -0.289,-1.08789 -0.5071,-0.80062 -0.9981,-0.0298 -0.9981,1.56836 0,1.28364 -0.1162,1.60506 -0.6406,1.77149 -0.8705,0.27628 -1.3579,-0.0841 -1.1211,-0.83008 0.2581,-0.81308 -0.1248,-1.97256 -0.5996,-1.81641 -0.2062,0.0679 -0.4471,0.69024 -0.5351,1.38281 -0.1621,1.26896 -0.5153,1.5209 -1.6895,1.20704 -0.3098,-0.0828 -0.5625,-0.36152 -0.5625,-0.61915 0,-0.76504 1.8483,-4.1981 2.916,-5.41406 2.8275,-3.22035 9.2932,-6.63663 14.0332,-7.41601 0.736,-0.12103 1.5702,-0.39104 1.8555,-0.59961 0.4708,-0.3442 0.472,-0.44489 0.018,-1.09375 -0.2754,-0.39317 -1.0379,-0.86108 -1.6953,-1.04102 -1.427,-0.39059 -3.2872,-1.48488 -3.2872,-1.93359 0,-0.32226 0.4315,-0.45481 2.6563,-0.8125 2.2265,-0.35798 1.3779,-1.02007 -1.7188,-1.34375 -1.3738,-0.14359 -1.8058,-0.30704 -1.6816,-0.63086 0.2501,-0.65164 2.6195,-1.17616 4.3008,-0.95313 1.6883,0.22397 2.1041,0.0103 1.3848,-0.70898 -0.4512,-0.45113 -0.4107,-0.54556 0.4179,-0.98242 0.5521,-0.2911 1.5102,-0.48768 2.5567,-0.58399 l -3.8047,-2.23437 c -1.2246,0.0138 -1.7872,-0.20451 -3.4688,-0.95117 -1.9218,-0.85339 -3.9468,-1.35222 -5.9394,-1.51172 z m 38.6543,19.63086 c 0.955,0.9667 2.2393,2.47964 2.6836,3.27343 0.1557,0.27815 0.3741,0.4149 0.4863,0.30274 0.2208,-0.2208 -0.1476,-1.14079 -0.7578,-2.1582 l -2.4121,-1.41797 z m -13.2012,1.37109 c 0.99,0 1.4171,0.30181 3.4199,2.41406 2.8419,2.99731 3.7435,3.18701 1.7285,0.36328 -0.8051,-1.12827 -1.3745,-2.14287 -1.2636,-2.2539 0.1109,-0.11102 0.6193,-0.20117 1.1289,-0.20117 0.9325,0 1.374,0.36731 3.2636,2.7207 1.1652,1.45114 1.5848,1.4544 1.3145,0.0137 -0.2448,-1.30479 0.1051,-1.43713 1.0625,-0.40234 1.6989,1.83625 3.025,6.03515 1.9062,6.03515 -0.4144,0 -0.4731,0.20847 -0.2949,1.04688 0.6907,3.24909 -0.2727,4.20443 -1.5312,1.51758 -0.6643,-1.41844 -1.7373,-2.53812 -2.0918,-2.1836 -0.061,0.0605 0.1646,0.90519 0.5,1.87696 0.6092,1.76513 0.8494,6.07302 0.4258,7.65429 -0.1827,0.68236 -2.255,1.89739 -2.6172,1.53516 -0.082,-0.0818 0.014,-0.61619 0.2129,-1.1875 0.1991,-0.57132 0.443,-1.99053 0.541,-3.1543 0.1512,-1.79253 0.077,-2.264 -0.4844,-3.08203 l -0.6621,-0.96484 0,1.60937 c 0,1.68085 -0.3397,3.24708 -1.1914,5.55274 l 0,0 c -0.3944,1.06761 -0.669,1.36718 -1.2481,1.36718 -1.1428,0 -1.1912,-0.44912 -0.2812,-2.61132 0.6033,-1.43256 0.7602,-2.18014 0.5547,-2.64063 -0.2484,-0.55664 -0.3841,-0.41274 -1.0254,1.07813 -0.8709,2.02456 -1.924,3.53125 -2.4668,3.53125 -0.2126,0 -0.7263,-0.27613 -1.1426,-0.61329 -0.7162,-0.57991 -0.7268,-0.64665 -0.2109,-1.21679 1.1894,-1.31428 2.2643,-4.30483 2.2793,-6.33594 0.016,-2.25229 -0.4802,-3.44055 -2.4043,-5.75586 -1.3607,-1.63745 -2.1954,-3.04414 -2.1954,-3.71289 0,-0.5947 1.0427,0.0113 3.2168,1.86524 1.8106,1.54413 2.8965,2.14564 2.8965,1.60351 0,-0.1675 -1.0824,-1.34095 -2.4062,-2.60742 -1.3238,-1.2665 -2.3294,-2.42829 -2.2344,-2.58203 0.095,-0.15377 0.6824,-0.2793 1.3047,-0.2793 z m -6.2852,5.68164 c 0.1669,0.01 0.3955,0.0727 0.6934,0.17188 2.5969,0.86463 5.324,5.17033 4.9316,7.78711 -0.2576,1.7179 -1.8975,4.14988 -2.6953,3.99804 -0.4138,-0.0788 -0.5864,-0.5505 -0.7109,-1.94531 -0.1222,-1.36954 -0.3571,-2.02971 -0.918,-2.57227 l -0.7558,-0.72851 0.2304,0.76172 c 0.3023,1.00983 0.3177,4.1985 0.025,5.11133 l 0,0 c -0.1712,0.53458 -0.4821,0.72461 -1.1817,0.72461 l -0.9472,0 0.045,-2.03711 c 0.026,-1.21614 -0.1342,-2.35192 -0.3984,-2.81641 -0.4135,-0.72691 -0.4533,-0.62614 -0.6036,1.53906 -0.1935,2.788 -0.5726,3.32379 -1.7851,2.5293 -0.7303,-0.47815 -0.8243,-0.71476 -0.6602,-1.65625 0.1054,-0.60447 0.2731,-1.56919 0.3711,-2.14453 0.1162,-0.67972 0.01,-1.27313 -0.3125,-1.69141 -0.4812,-0.63065 -0.4918,-0.62623 -0.5058,0.16211 -0.044,2.3974 -0.9676,2.99344 -1.5625,1.00781 -0.5504,-1.83712 -0.4949,-4.87109 0.09,-4.87109 0.2551,0 0.5572,0.15225 0.6719,0.33789 0.1421,0.2297 0.3573,0.21385 0.6738,-0.0488 0.3989,-0.33103 0.366,-0.49008 -0.2305,-1.125 -0.7455,-0.79348 -0.6435,-1.73828 0.1875,-1.73828 0.2748,0 0.96,0.65063 1.5215,1.44727 0.9388,1.3318 1.5491,1.80657 1.5391,1.20703 0,-0.13278 -0.2909,-0.67595 -0.6426,-1.20703 -1.3391,-2.02189 -0.325,-3.07405 1.2422,-1.28907 0.5264,0.59955 1.1027,1.35096 1.2812,1.66993 0.5081,0.90765 0.8093,0.25045 0.4102,-0.89454 -0.4475,-1.28352 -0.5064,-1.71944 -0.01,-1.68945 z m 34.2422,8.1582 c 0.801,0 1.5746,2.52506 1.5606,5.09375 -0.024,4.46191 -1.9789,7.87696 -5.5508,9.69922 -1.3809,0.70447 -2.8629,0.7811 -5.1699,0.26758 l -1.4414,-0.32031 0.7793,-0.63281 c 0.6394,-0.51781 1.0603,-0.59341 2.3359,-0.41797 1.0404,0.14309 1.7149,0.0848 2.0312,-0.17774 0.7385,-0.61291 0.5615,-0.95898 -0.4921,-0.95898 -0.5777,0 -0.9668,-0.16762 -0.9668,-0.41797 0,-0.82283 0.8006,-1.19141 2.5898,-1.19141 1.4082,0 1.9489,-0.14366 2.4004,-0.64257 0.5755,-0.63574 0.5607,-0.64454 -1.0781,-0.64454 -0.9126,0 -1.6582,-0.0772 -1.6582,-0.17187 0,-0.0948 0.2336,-0.52848 0.5195,-0.96484 0.375,-0.57218 0.8088,-0.79493 1.5586,-0.79493 0.6474,0 1.2713,-0.2548 1.6523,-0.67578 0.4735,-0.52321 0.5035,-0.65987 0.1309,-0.60547 -1.8558,0.2714 -2.0924,-0.47089 -0.6348,-1.99609 0.6724,-0.70362 0.8565,-1.09156 0.5938,-1.25391 -0.4951,-0.30597 0.2643,-3.19336 0.8398,-3.19336 z m -38.1426,9.65625 c 0.655,0 0.775,0.29255 1.0977,2.68946 0.092,0.6827 0.4282,1.43363 0.7461,1.66797 0.5197,0.38315 0.5886,0.3277 0.6816,-0.55469 0.057,-0.53972 -0.071,-1.40413 -0.2851,-1.91992 -0.479,-1.15636 -0.2994,-1.36103 0.9531,-1.08594 0.7967,0.17498 1.0171,0.42004 1.1856,1.31836 0.2253,1.14949 -0.2199,1.96857 0.1269,2.85351 0.4675,1.22966 0.8734,1.00298 1.1172,-0.62304 0.2459,-1.63949 0.7963,-1.86534 1.5898,-0.6543 0.8814,1.3452 0.6738,2.87936 -0.5234,3.88672 -0.5729,0.48211 -1.436,1.01557 -1.918,1.18359 -1.056,0.36813 -1.4778,1.42259 -0.8281,2.07227 0.2545,0.2545 1.7406,0.81487 3.3008,1.24414 4.2974,1.18233 5.6694,1.78924 7.166,3.16406 1.4962,1.37454 1.7453,2.42609 0.8672,3.67969 -0.6298,0.89911 -2.1089,1.67773 -3.1836,1.67773 -0.9492,0 -0.9241,0.0683 -0.4727,-1.22656 0.2771,-0.79465 0.2491,-1.14451 -0.1367,-1.69531 -0.4757,-0.67923 -0.5071,-0.65448 -1.5058,1.11523 -0.5612,0.99429 -1.1146,1.79013 -1.2305,1.76953 -1.1209,-0.19877 -1.3653,-0.38318 -1.1543,-0.875 0.8657,-2.01827 1.1871,-3.23431 0.9922,-3.74218 -0.1814,-0.47268 -0.4675,-0.1855 -1.4668,1.4707 -0.9524,1.57847 -1.4371,2.08206 -2.084,2.16016 -0.9823,0.11866 -0.9883,0.0802 -0.3496,-2.02539 0.7407,-2.44221 0.3075,-2.81708 -0.9063,-0.78321 -0.6865,1.15053 -1.2842,1.77565 -1.7617,1.84375 -0.858,0.12216 -0.8944,-0.2294 -0.2207,-2.16406 0.2798,-0.81393 0.4078,-1.80973 0.291,-2.3418 -0.2029,-0.92365 -0.2055,-0.92028 -0.9882,0.65039 -1.1079,2.22321 -1.8411,2.82708 -2.8633,2.36133 -1.0089,-0.45942 -1.0198,-1.032 -0.035,-1.95703 2.8647,-2.69123 2.0834,-9.37388 -1.3144,-11.23242 -1.5897,-0.86957 -1.9648,-1.71654 -1.2442,-2.81641 0.6617,-1.00983 1.3825,-1.00502 1.8457,0.0117 0.2005,0.44008 0.7039,1.02281 1.1192,1.29492 0.755,0.49392 0.7558,0.4925 0.7558,-0.96093 0,-1.23659 0.095,-1.45704 0.6367,-1.45704 z m 44.25,3.35547 c -0.344,0.16758 -0.7882,0.35215 -1.2734,0.50391 -2.3424,0.73268 -2.478,1.59304 -0.1523,0.9668 0.6573,-0.177 1.1309,-0.23247 1.4257,-0.16407 l 0,-1.30664 z m -23.9648,2.9375 c 0.8982,-0.0533 1.5202,0.37522 2.1465,1.43555 0.313,0.52981 0.8318,0.96289 1.1523,0.96289 0.5442,0 0.5495,-0.0648 0.08,-0.97266 -0.4535,-0.87223 -0.4541,-0.98967 -0.01,-1.16015 0.8901,-0.34159 1.9273,0.1647 2.7071,1.32031 0.7583,1.12378 2.1428,1.63341 1.7656,0.65039 -0.1334,-0.34768 0.034,-0.48242 0.5977,-0.48242 0.9672,0 2.2754,1.31719 2.0058,2.01953 -0.1614,0.42083 -0.9905,0.53671 -4.7578,0.66602 -2.5076,0.0861 -5.1382,0.2185 -5.8477,0.29492 -3.1363,0.33836 -5.862,0.47707 -6.7031,0.33984 -1.1782,-0.19217 -2.0672,-2.0496 -1.5371,-3.21289 0.3751,-0.82336 1.1433,-0.98825 1.5469,-0.33203 0.4377,0.71161 2.327,1.88666 2.8574,1.77734 0.3934,-0.081 0.2878,-0.34613 -0.4844,-1.20898 -1.3072,-1.46075 -1.2727,-1.95313 0.1387,-1.95313 0.9069,0 1.3554,0.25148 2.291,1.28711 0.6397,0.70811 1.3625,1.28907 1.6074,1.28907 0.6005,0 0.5631,-0.23463 -0.1972,-1.20118 -0.8455,-1.07485 -0.8139,-1.2676 0.2383,-1.46875 0.1403,-0.0268 0.274,-0.0432 0.4023,-0.0508 z m -89.8613,1.80078 0,1.61133 c 0.4241,-0.0151 0.8437,-0.015 1.2578,0.006 2.5651,0.12934 3.1706,-0.37428 1.4062,-1.16992 -0.81,-0.36525 -1.3949,-0.48945 -2.664,-0.44727 z m 2.5,4.87305 c -0.063,0.008 -0.1233,0.0296 -0.1797,0.0644 -0.222,0.13717 -0.1152,0.53068 0.3066,1.12305 0.9229,1.29606 0.8148,1.61719 -0.5449,1.61719 -0.8125,0 -1.3055,-0.21071 -2.082,-0.90234 l 0,7.11914 c 0.9952,-0.8817 2.3708,-1.57633 4.2851,-2.1836 2.7723,-0.87941 4.9247,-1.06037 8.0782,-0.67969 2.1525,0.25983 2.1703,0.25531 2.496,-0.60156 0.1804,-0.47437 0.3282,-1.49845 0.3282,-2.27734 0,-1.08673 -0.1506,-1.49732 -0.6446,-1.76172 -0.5808,-0.31063 -0.6445,-0.24484 -0.6445,0.66992 0,0.895 -0.084,0.99152 -0.7226,0.82031 -0.3983,-0.1068 -0.8228,-0.19622 -0.9415,-0.19922 -0.1186,-0.002 -0.311,-0.43765 -0.4277,-0.96874 -0.2505,-1.14047 -0.9468,-1.32296 -0.7305,-0.19141 0.1241,0.64918 -0.01,0.80469 -0.8085,0.96484 -1.423,0.2846 -1.4621,0.27074 -2.002,-0.77343 -0.3081,-0.59578 -0.7517,-0.9668 -1.1582,-0.9668 l -0.6582,0 0.668,0.84961 c 0.9658,1.22777 0.8558,1.7267 -0.3789,1.7207 -1.2896,-0.006 -1.541,-0.17553 -2.4356,-1.64844 -0.7619,-1.25461 -1.3619,-1.85197 -1.8027,-1.79492 z m 101.3086,1.60156 c 0.4422,-0.0205 0.8369,0.002 1.166,0.0742 1.4374,0.31571 1.1969,0.73912 -0.5488,0.96875 -0.8409,0.11062 -1.7335,0.22882 -1.9844,0.26172 -0.2509,0.033 -0.5235,0.26108 -0.6055,0.50781 -0.1217,0.36539 0.2749,0.41901 2.1445,0.28516 2.0701,-0.14812 2.2969,-0.10582 2.2969,0.42578 0,0.93891 -1.0419,1.25586 -4.125,1.25586 -2.0527,0 -2.9836,0.12711 -3.2461,0.44336 -0.487,0.58678 0.4263,0.83384 3.1055,0.83984 1.1064,0.002 2.0117,0.13855 2.0117,0.30274 0,0.16418 -0.3979,0.61572 -0.8848,1.0039 -0.8264,0.65894 -1.1144,0.69227 -4.332,0.51368 -2.1097,-0.11703 -3.5217,-0.0693 -3.6406,0.12304 -0.2618,0.42363 1.2213,0.95689 2.6816,0.96289 0.6523,0.003 1.3929,0.13371 1.6446,0.29297 0.5121,0.32412 -0.7068,0.9296 -3.6075,1.79102 -0.8993,0.26706 -1.7158,0.4655 -1.8164,0.4414 -0.1007,-0.0241 -0.5075,-0.10534 -0.9023,-0.18164 -1.0534,-0.20347 -2.0176,-1.60889 -2.0176,-2.93945 0,-0.95745 0.2602,-1.3888 1.5684,-2.61133 2.5114,-2.34705 7.9959,-4.61805 11.0918,-4.76172 z m -17.7832,8.63086 c 1.0484,-0.008 1.4055,0.15149 2.0234,0.64063 0.9148,0.72423 1.8125,2.3874 1.8125,3.35937 0,0.82087 -0.8855,0.91445 -1.8047,0.19141 -0.4717,-0.37101 -1.1556,-0.67383 -1.5195,-0.67383 -0.5188,0 -0.2839,0.33759 1.0859,1.56445 1.5356,1.37534 1.6953,1.62826 1.3106,2.0918 -0.6948,0.83718 -1.2364,0.64338 -3.459,-1.24219 -2.0773,-1.76225 -3.6962,-2.39965 -3.0547,-1.20117 0.168,0.31398 1.1159,1.33957 2.1074,2.27735 0.9916,0.93779 1.7208,1.83943 1.6192,2.0039 -0.1017,0.16448 -0.6243,0.29883 -1.1602,0.29883 -0.7492,0 -1.4339,-0.43835 -2.959,-1.89258 -1.0911,-1.04041 -2.3348,-1.99829 -2.7656,-2.13086 -0.7668,-0.23588 -0.7629,-0.21527 0.2109,1.00586 0.5472,0.68611 1.4428,1.67341 1.9903,2.19336 0.5463,0.51877 0.994,1.05968 0.9961,1.20508 0,0.14398 -0.6021,0.26172 -1.3379,0.26172 -1.2366,0 -1.5004,-0.1691 -3.4903,-2.25196 -2.9232,-3.05901 -3.7465,-3.06191 -1.4629,-0.004 0.9164,1.2271 0.6783,1.57612 -0.6152,0.89844 -0.89,-0.46638 -5.0039,-4.3829 -5.0039,-4.76368 0,-0.1263 0.9769,-0.30483 2.1719,-0.39843 1.5848,-0.12404 3.1748,-0.58445 5.875,-1.69922 2.9623,-1.22301 4.1832,-1.55836 6.1152,-1.67774 0.538,-0.0332 0.965,-0.0541 1.3145,-0.0566 z m 27.8007,0.43946 c -0.1294,0.14717 -0.2864,0.39271 -0.4199,0.68554 -0.3451,0.75748 -0.3229,0.81109 0.2696,0.62305 0.06,-0.0191 0.1,-0.0218 0.1503,-0.0332 l 0,-1.27539 z m -11.4492,6.68554 c 0.6977,0.0243 1.1641,0.20949 1.1641,0.54883 0,0.26892 -0.7579,0.70899 -1.8477,1.07227 -1.6995,0.56647 -1.807,0.65772 -1.33,1.13476 0.477,0.47712 0.6426,0.47546 2.0527,-0.0254 2.057,-0.73054 2.2519,-0.69851 2.2519,0.38477 0,0.77567 -0.201,1.01076 -1.207,1.41015 -0.6639,0.26356 -1.8518,0.58759 -2.6387,0.71875 -1.3435,0.22386 -1.3925,0.26577 -0.8046,0.70899 0.4591,0.34621 1.1192,0.42404 2.4765,0.28906 1.6867,-0.16776 1.8516,-0.12814 1.8516,0.447266 0,0.77686 -0.8489,1.331125 -3.4766,2.271485 -2.386,0.85387 -2.2504,1.467773 0.1992,0.902343 0.9157,-0.21133 1.7652,-0.285722 1.8868,-0.164062 0.5027,0.50266 -1.1894,2.018656 -3.0801,2.759766 -2.1431,0.83996 -2.1184,1.445442 0.045,1.101562 0.818,-0.13002 1.207,-0.07036 1.207,0.185547 0,0.64064 -1.5406,1.956622 -2.3203,1.982422 -0.4063,0.01346 -1.2315,0.202062 -1.834,0.419922 l -1.0957,0.396484 0.8907,0.701172 c 0.5257,0.41353 0.817,0.891609 0.7109,1.167969 -0.1876,0.48891 -2.1067,1.14739 -3.3535,1.15039 -0.9137,0.0023 -0.9444,0.512817 -0.045,0.748047 0.9601,0.25108 0.6095,0.924918 -0.8399,1.617188 -1.4517,0.69342 -3.1151,1.015951 -3.459,0.669921 -0.4589,-0.461649 -0.2403,-1.389667 0.4414,-1.867187 0.9176,-0.64272 3.4702,-4.276749 5.2285,-7.443359 1.2353,-2.22463 1.5232,-3.115311 2.1055,-6.556641 0.3707,-2.190805 0.6738,-4.388135 0.6738,-4.882815 0,-0.79242 0.1896,-0.96267 1.5957,-1.42968 0.9245,-0.3071 1.8532,-0.44426 2.5508,-0.41993 z m -76.3125,1.04493 c 0.2287,-0.003 0.384,0.0129 0.4453,0.0508 0.3693,0.22841 0.328,1.45181 -0.09,2.65039 -0.4035,1.15758 -0.4787,1.19318 -1.1406,0.53125 -0.9225,-0.922 -1.1796,-0.56445 -0.9571,1.32812 0.1781,1.515312 0.1205,1.879639 -0.3574,2.242189 -0.9391,0.71257 -1.2832,0.521676 -1.5,-0.833984 -0.2753,-1.721765 -1.1419,-1.778995 -1.2129,-0.08008 -0.027,0.66386 -0.023,1.524792 0.01,1.914062 0.061,0.72327 -1.0009,1.574532 -1.5449,1.238282 -0.1568,-0.09692 -0.3861,-0.900187 -0.5078,-1.785157 -0.3427,-2.491832 -1.0063,-2.080442 -1.2754,0.791016 -0.1899,2.02669 -0.3276,2.433125 -0.8828,2.609375 -0.882,0.27991 -1.2049,-0.317927 -1.2149,-2.216797 0,-1.30337 -0.095,-1.535212 -0.5683,-1.445312 -0.4608,0.08764 -0.5931,0.557824 -0.7247,2.583984 -0.166,2.55404 -0.5532,3.376606 -1.4277,3.041016 -0.3868,-0.14843 -0.5039,-0.683082 -0.5039,-2.294922 0,-1.65411 -0.1025,-2.101563 -0.4824,-2.101563 -0.3948,0 -0.4824,0.548961 -0.4824,3.019531 0,2.85549 -0.043,3.049626 -0.793,3.541016 -1.401,0.91778 -1.5381,0.718599 -1.4121,-2.05664 0.074,-1.63597 0,-2.537504 -0.2071,-2.470704 -0.4385,0.14233 -1.0596,3.188886 -1.0976,5.384766 -0.028,1.63996 -0.4091,2.558594 -1.0606,2.558594 -0.1416,0 -0.2578,-1.012753 -0.2578,-2.251953 0,-2.16567 -0.3342,-2.874444 -0.7949,-1.689453 -0.1205,0.309799 -0.2994,1.865704 -0.3984,3.458984 -0.184,2.95077 -0.4472,3.701172 -1.293,3.701172 -0.3939,0 -0.4563,-0.524838 -0.3633,-3.054688 0.155,-4.21646 -0.4432,-4.122907 -0.8515,0.132813 -0.337,3.5118 -0.6859,4.143737 -1.5801,2.867187 -0.6874,-0.98121 -0.6946,-5.415702 -0.012,-7.419922 0.5699,-1.67247 3.716,-5.441348 5.9355,-7.111328 2.3777,-1.788984 7.0807,-4.300474 9.6582,-5.158204 2.1252,-0.7072 7.3445,-1.65179 8.9453,-1.67382 z m 87.7617,3.50195 c -0.4449,0.3546 -0.5116,0.64544 0,0.71875 l 0,-0.71875 z m 0,9.128904 c -0.3213,0.06576 -0.6132,0.137419 -0.8066,0.21875 l -1.0586,0.445313 1.6797,0.359375 c 0.06,0.01296 0.1238,0.02059 0.1855,0.0332 l 0,-1.056641 z m -3.3378,2.84375 c -0.6797,0.01091 -1.1565,0.0524 -1.2676,0.121094 -0.4839,0.29907 1.6937,1.164642 3.7324,1.482422 0.3749,0.05843 0.6383,0.123573 0.873,0.193359 l 0,-1.697265 c -0.2827,-0.01252 -0.5112,-0.01957 -0.8554,-0.03906 -0.9201,-0.05205 -1.8028,-0.07146 -2.4824,-0.06055 z m -21.6993,9.16211 c 2.2451,0 2.7228,0.452376 0.8301,0.785156 -0.6638,0.11671 -2.727,0.708886 -4.5859,1.316406 -1.8588,0.60749 -4.4393,1.3246 -5.7344,1.59375 -3.4177,0.71027 -3.9983,0.648329 -3.3535,-0.363281 0.8457,-1.32669 8.573,-3.332031 12.8437,-3.332031 z m -14.1093,3.705078 c 0.08,0.0099 0.1447,0.03341 0.1875,0.07617 1.2792,1.27913 -2.9643,7.58719 -6.3028,9.36914 -2.3289,1.24306 -2.3169,0.747683 0.043,-1.779296 2.1494,-2.301491 3.8049,-4.784977 3.4355,-5.154297 -0.088,-0.08781 -0.378,0.264163 -0.6464,0.783203 -1.2162,2.35179 -5.9806,5.788635 -8.8145,6.359375 -1.4728,0.29661 -1.3016,-0.270538 0.2988,-0.992188 1.6511,-0.74458 4.8642,-4.0016 5.7657,-5.84375 0.5447,-1.11304 0.9027,-1.426144 1.9531,-1.708984 0.9571,-0.25776 1.403,-0.247884 1.7441,0.03516 0.3622,0.30066 0.459,0.276682 0.459,-0.111328 0,-0.437964 1.3181,-1.102746 1.877,-1.033203 z m -10.7403,1.445312 c 0.4639,0 0.086,1.252709 -0.5527,1.830078 -0.8277,0.74888 -4.3981,3.1223 -5.7441,3.81836 -1.0156,0.52516 -1.9004,0.611204 -1.9004,0.183594 0,-0.26813 1.2174,-1.377782 3.6152,-3.294922 0.9519,-0.7611 4.1593,-2.53711 4.582,-2.53711 z m 2.8067,0 c 1.12,0 1.5488,0.126839 1.5488,0.455078 0,0.60924 -4.0345,4.28125 -5.5625,5.0625 -3.4413,1.75957 -3.8012,1.185957 -0.8613,-1.371093 1.0692,-0.92997 2.255,-2.242529 2.6347,-2.917969 0.6504,-1.1574 0.7795,-1.228516 2.2403,-1.228516 z m 23.7558,3.302735 c 0.3826,0.0096 0.6037,0.06656 0.7051,0.167969 0.26,0.260019 0.1064,0.409294 -0.5742,0.552734 -0.5124,0.10797 -2.5254,0.689016 -4.4727,1.291016 -1.9473,0.60201 -4.8132,1.389963 -6.3691,1.751953 -2.6309,0.61212 -6.9883,0.903297 -6.9883,0.466797 0,-0.10545 0.298,-0.612784 0.6641,-1.126954 0.5861,-0.82305 0.8655,-0.934359 2.334,-0.943359 0.9173,-0.0052 3.5521,-0.369454 5.8535,-0.808594 5.1084,-0.97482 7.6998,-1.380341 8.8476,-1.351562 z m -46.1113,5.52539 c 0.3332,0.05165 0.7281,0.369469 1.293,1.019532 0.5753,0.6622 1.0468,1.396762 1.0468,1.632812 0,0.56967 0.035,0.581863 -1.6992,-0.617187 -1.6107,-1.11381 -1.8666,-1.64606 -0.957,-2 0.1014,-0.03944 0.2053,-0.05237 0.3164,-0.03516 z m 6.7813,0.601563 c 1.5732,-0.06114 6.3481,4.340284 6.5683,6.226562 0.1842,1.57766 -0.2376,1.644433 -1.4414,0.226563 -0.5715,-0.67322 -2.1002,-2.334366 -3.3965,-3.691406 -1.4502,-1.51822 -2.2197,-2.553614 -2,-2.689453 0.074,-0.04582 0.1647,-0.06819 0.2696,-0.07227 z m -9.5704,0.662109 c 0.5519,0.01923 1.4928,0.61856 2.9356,1.837891 1.2949,1.09436 2.8234,2.296908 3.3965,2.673828 0.5732,0.37692 1.0449,0.866601 1.0449,1.087891 0.01,0.63452 -0.6634,0.473555 -2.5703,-0.615235 -2.821,-1.61074 -5.5187,-3.808274 -5.4043,-4.402344 0.076,-0.397042 0.2665,-0.593569 0.5976,-0.582031 z"
             clip-path="none"
             style="fill:#000000;fill-opacity:1;stroke:none"
             inkscape:connector-curvature="0" />
          <g
             transform="translate(202.57496,9.3723773)"
             id="g14029">
            <path
               style="color:#000000;display:inline;overflow:visible;visibility:visible;opacity:1;fill:#000000;fill-opacity:0.69803922;fill-rule:nonzero;stroke:none;stroke-width:2;stroke-linecap:butt;stroke-linejoin:miter;stroke-miterlimit:4;stroke-dasharray:none;stroke-dashoffset:0;stroke-opacity:1;marker:none;enable-background:accumulate"
               d="m 3188.673,-91.742433 0,-66.818487 -56.913,33.40925 0,66.818487 z"
               id="path13894"
               inkscape:connector-curvature="0"
               sodipodi:nodetypes="ccccc" />
            <path
               style="color:#000000;display:inline;overflow:visible;visibility:visible;opacity:1;fill:#000000;fill-opacity:0.39607843;fill-rule:nonzero;stroke:none;stroke-width:2;stroke-linecap:butt;stroke-linejoin:miter;stroke-miterlimit:4;stroke-dasharray:none;stroke-dashoffset:0;stroke-opacity:1;marker:none;enable-background:accumulate"
               d="m 3074.847,-91.742431 0,-66.818489 56.9129,33.40925 0,66.818487 z"
               id="path13942"
               inkscape:connector-curvature="0"
               sodipodi:nodetypes="ccccc" />
            <path
               sodipodi:type="star"
               style="color:#000000;display:inline;overflow:visible;visibility:visible;opacity:1;fill:none;fill-opacity:1;fill-rule:nonzero;stroke:#ffffff;stroke-width:2.02364588;stroke-linecap:butt;stroke-linejoin:miter;stroke-miterlimit:4;stroke-dasharray:none;stroke-dashoffset:0;stroke-opacity:1;marker:none;enable-background:accumulate"
               id="path13886"
               sodipodi:sides="6"
               sodipodi:cx="2915.4753"
               sodipodi:cy="-9.8026848"
               sodipodi:r1="67.049141"
               sodipodi:r2="58.066261"
               sodipodi:arg1="0.52359878"
               sodipodi:arg2="1.0471976"
               inkscape:flatsided="true"
               inkscape:rounded="0"
               inkscape:randomized="0"
               d="m 2973.5416,23.721886 -58.0663,33.52457 -58.0662,-33.524571 0,-67.049141 58.0662,-33.52457 58.0663,33.524571 z"
               transform="matrix(0.98013866,0,0,0.99655992,274.1899,-115.38271)" />
            <path
               style="color:#000000;display:inline;overflow:visible;visibility:visible;opacity:1;fill:none;fill-opacity:1;fill-rule:nonzero;stroke:#ffffff;stroke-width:2;stroke-linecap:butt;stroke-linejoin:miter;stroke-miterlimit:4;stroke-dasharray:none;stroke-dashoffset:0;stroke-opacity:1;marker:none;enable-background:accumulate"
               d="m 3188.673,-158.56092 -56.913,33.40925 -56.9129,-33.40925"
               id="path13888"
               inkscape:connector-curvature="0"
               sodipodi:nodetypes="ccc" />
            <path
               style="color:#000000;display:inline;overflow:visible;visibility:visible;opacity:1;fill:none;fill-opacity:1;fill-rule:nonzero;stroke:#ffffff;stroke-width:2;stroke-linecap:butt;stroke-linejoin:miter;stroke-miterlimit:4;stroke-dasharray:none;stroke-dashoffset:0;stroke-opacity:1;marker:none;enable-background:accumulate"
               d="m 3131.76,-125.15167 0,66.818487"
               id="path13891"
               inkscape:connector-curvature="0"
               sodipodi:nodetypes="cc" />
          </g>
        </g>
      </g>
    </g>
  </g>
</svg>
