<?xml version="1.0" encoding="UTF-8" standalone="no"?>
<!-- Generator: Adobe Illustrator 16.0.0, SVG Export Plug-In . SVG Version: 6.00 Build 0)  -->

<svg
   xmlns:dc="http://purl.org/dc/elements/1.1/"
   xmlns:cc="http://creativecommons.org/ns#"
   xmlns:rdf="http://www.w3.org/1999/02/22-rdf-syntax-ns#"
   xmlns:svg="http://www.w3.org/2000/svg"
   xmlns="http://www.w3.org/2000/svg"
   xmlns:sodipodi="http://sodipodi.sourceforge.net/DTD/sodipodi-0.dtd"
   xmlns:inkscape="http://www.inkscape.org/namespaces/inkscape"
   version="1.1"
   id="Capa_1"
   x="0px"
   y="0px"
   width="401.994px"
   height="401.994px"
   viewBox="0 0 401.994 401.994"
   style="enable-background:new 0 0 401.994 401.994;"
   xml:space="preserve"
   inkscape:version="0.91 r13725"
   sodipodi:docname="bug.svg"><metadata
     id="metadata41"><rdf:RDF><cc:Work
         rdf:about=""><dc:format>image/svg+xml</dc:format><dc:type
           rdf:resource="http://purl.org/dc/dcmitype/StillImage" /><dc:title></dc:title></cc:Work></rdf:RDF></metadata><defs
     id="defs39" /><sodipodi:namedview
     pagecolor="#ffffff"
     bordercolor="#666666"
     borderopacity="1"
     objecttolerance="10"
     gridtolerance="10"
     guidetolerance="10"
     inkscape:pageopacity="0"
     inkscape:pageshadow="2"
     inkscape:window-width="1094"
     inkscape:window-height="734"
     id="namedview37"
     showgrid="false"
     inkscape:zoom="1.1741469"
     inkscape:cx="135.95612"
     inkscape:cy="200.99699"
     inkscape:window-x="298"
     inkscape:window-y="278"
     inkscape:window-maximized="0"
     inkscape:current-layer="Capa_1" /><g
     id="g7" /><g
     id="g9" /><g
     id="g11" /><g
     id="g13" /><g
     id="g15" /><g
     id="g17" /><g
     id="g19" /><g
     id="g21" /><g
     id="g23" /><g
     id="g25" /><g
     id="g27" /><g
     id="g29" /><g
     id="g31" /><g
     id="g33" /><g
     id="g35" /><g
     id="g4180"
     transform="translate(-0.68410696,-2.685549)"><path
       sodipodi:nodetypes="cscccscsccccscscccscscscccccscccccccccccsssssccscsc"
       style="fill:#ffffff;fill-opacity:1"
       id="path7"
       d="m 397.71519,216.99833 c -3.16217,-3.1718 -7.25956,-7.04108 -11.59909,-7.09266 l -56.08126,-0.66677 0,-53.55711 40.34911,-41.54282 c 5.05504,-7.41326 8.19828,-10.84551 9.14121,-19.431217 0.4736,-4.312163 -0.17544,-12.807726 -3.34548,-15.980401 -3.16916,-3.170921 -9.75469,-5.699323 -14.09454,-5.699323 -4.33984,0 -15.73077,2.886342 -22.90049,10.390327 L 298.50216,119.76517 108.86543,120.76531 62.550738,77.784405 C 59.378935,74.613484 48.957292,71.69452 44.617433,71.69452 c -4.342472,0 -11.096958,2.919847 -14.26875,6.089885 -3.171803,3.171804 -6.195582,7.933737 -6.42328,12.26585 -0.333372,6.342759 -0.415692,11.098725 3.756249,17.935925 l 45.981307,46.98146 0,47.93706 -55.747883,1.00014 c -8.052978,0.14446 -12.7621093,6.5879 -14.9328811,11.42659 -2.8384203,5.16945 -1.4243437,15.26386 -1.4243437,19.60019 0,4.33986 1.5863372,6.43316 4.7581292,9.5997 3.1709206,3.17179 6.9258646,4.76251 11.2657126,4.76251 l 56.081266,0 c 0,26.6994 0.508394,41.23744 10.187769,60.2612 L 38.279796,359.386 c -9.839535,9.67523 -7.799188,17.55526 -7.547517,21.97577 0.249046,4.41703 4.96032,13.13232 8.132112,16.14013 3.171792,2.6702 6.75837,4.00837 10.764113,4.00837 4.673953,0 15.346407,-1.74595 24.020636,-12.25806 l 40.14779,-40.49245 -2.57663,-0.82278 c 2.3361,2.17386 5.96389,4.87916 10.89039,8.13251 4.92563,3.25334 2.88914,4.62346 8.97931,7.88557 6.09454,3.25335 10.46726,6.3729 10.46726,6.3729 0,0 -43.02287,-169.52113 -9.07707,-205.1229 l 138.1268,0.66676 c 37.19719,36.14927 -5.81892,203.63858 -5.81892,203.63858 7.74134,-4.00419 14.14398,-10.49495 20.35731,-15.48436 1.67405,-1.33816 1.92265,-1.08854 2.75657,-1.91984 l 48.90869,46.98661 c 3.1535,3.0296 12.75921,2.42272 17.26654,2.42272 4.50821,0 8.22261,-1.62267 11.27185,-4.75638 3.12387,-3.21038 5.72739,-7.6111 6.08728,-11.93598 0.33338,-4.00647 0.74209,-12.79601 -2.4201,-15.93301 l -52.74495,-52.32457 c 11.18504,-19.86297 13.44158,-35.73132 13.44158,-64.27047 l 56.41466,-0.33337 c 4.33977,-0.0257 8.09918,-4.25425 11.26572,-7.42605 3.16916,-3.16917 4.76337,-6.92587 4.76337,-11.26571 0,-4.33897 -1.25996,-13.09899 -4.4414,-16.27166 z"
       inkscape:connector-curvature="0" /><path
       style="fill:#ffffff;fill-opacity:1"
       id="path9"
       d="M 258.56462,29.21 C 242.95993,13.605312 224.0563,5.7999026 201.85723,5.7999026 c -22.20258,0 -41.10095,7.8054094 -56.70826,23.4100974 -15.60468,15.606431 -23.4057,34.509187 -23.4057,56.707377 l 160.22617,0 c 0,-22.194683 -7.80015,-41.100946 -23.40482,-56.707377 z"
       inkscape:connector-curvature="0" /></g><rect
     style="opacity:1;fill:#ffffff;fill-opacity:1;fill-rule:nonzero;stroke:none;stroke-width:90.7480011;stroke-linecap:round;stroke-linejoin:round;stroke-miterlimit:4;stroke-dasharray:none;stroke-dashoffset:3.27590013;stroke-opacity:1"
     id="rect4172"
     width="41.489315"
     height="223.47653"
     x="180.12723"
     y="163.57355"
     ry="0.54983258" /></svg>