<?xml version="1.0" encoding="UTF-8" standalone="no"?>
<svg
   xmlns:dc="http://purl.org/dc/elements/1.1/"
   xmlns:cc="http://creativecommons.org/ns#"
   xmlns:rdf="http://www.w3.org/1999/02/22-rdf-syntax-ns#"
   xmlns:svg="http://www.w3.org/2000/svg"
   xmlns="http://www.w3.org/2000/svg"
   xmlns:sodipodi="http://sodipodi.sourceforge.net/DTD/sodipodi-0.dtd"
   xmlns:inkscape="http://www.inkscape.org/namespaces/inkscape"
   width="1792"
   height="1792"
   viewBox="0 0 1792 1792"
   id="svg12"
   version="1.1"
   inkscape:version="0.91 r13725"
   sodipodi:docname="caret-square-o-right.svg">
  <metadata
     id="metadata20">
    <rdf:RDF>
      <cc:Work
         rdf:about="">
        <dc:format>image/svg+xml</dc:format>
        <dc:type
           rdf:resource="http://purl.org/dc/dcmitype/StillImage" />
      </cc:Work>
    </rdf:RDF>
  </metadata>
  <defs
     id="defs18" />
  <sodipodi:namedview
     pagecolor="#ffffff"
     bordercolor="#666666"
     borderopacity="1"
     objecttolerance="10"
     gridtolerance="10"
     guidetolerance="10"
     inkscape:pageopacity="0"
     inkscape:pageshadow="2"
     inkscape:window-width="1284"
     inkscape:window-height="1022"
     id="namedview16"
     showgrid="false"
     inkscape:zoom="0.39560372"
     inkscape:cx="896"
     inkscape:cy="896"
     inkscape:window-x="20"
     inkscape:window-y="42"
     inkscape:window-maximized="0"
     inkscape:current-layer="svg12" />
  <path
     d="M1216 896q0 33-27 52l-448 320q-31 23-66 5-35-17-35-57v-640q0-40 35-57 35-18 66 5l448 320q27 19 27 52zm192 480v-960q0-14-9-23t-23-9h-960q-14 0-23 9t-9 23v960q0 14 9 23t23 9h960q14 0 23-9t9-23zm256-960v960q0 119-84.5 203.5t-203.5 84.5h-960q-119 0-203.5-84.5t-84.5-203.5v-960q0-119 84.5-203.5t203.5-84.5h960q119 0 203.5 84.5t84.5 203.5z"
     id="path14"
     style="fill:#ffffff;fill-opacity:1" />
</svg>
