<?xml version="1.0" encoding="UTF-8" standalone="no"?>
<!-- Generator: Adobe Illustrator 16.0.0, SVG Export Plug-In . SVG Version: 6.00 Build 0)  -->

<svg
   xmlns:dc="http://purl.org/dc/elements/1.1/"
   xmlns:cc="http://creativecommons.org/ns#"
   xmlns:rdf="http://www.w3.org/1999/02/22-rdf-syntax-ns#"
   xmlns:svg="http://www.w3.org/2000/svg"
   xmlns="http://www.w3.org/2000/svg"
   xmlns:sodipodi="http://sodipodi.sourceforge.net/DTD/sodipodi-0.dtd"
   xmlns:inkscape="http://www.inkscape.org/namespaces/inkscape"
   version="1.1"
   id="Capa_1"
   x="0px"
   y="0px"
   width="548.169px"
   height="548.169px"
   viewBox="0 0 548.169 548.169"
   style="enable-background:new 0 0 548.169 548.169;"
   xml:space="preserve"
   inkscape:version="0.91 r13725"
   sodipodi:docname="collaborators.svg"><metadata
     id="metadata53"><rdf:RDF><cc:Work
         rdf:about=""><dc:format>image/svg+xml</dc:format><dc:type
           rdf:resource="http://purl.org/dc/dcmitype/StillImage" /></cc:Work></rdf:RDF></metadata><defs
     id="defs51" /><sodipodi:namedview
     pagecolor="#ffffff"
     bordercolor="#666666"
     borderopacity="1"
     objecttolerance="10"
     gridtolerance="10"
     guidetolerance="10"
     inkscape:pageopacity="0"
     inkscape:pageshadow="2"
     inkscape:window-width="1351"
     inkscape:window-height="841"
     id="namedview49"
     showgrid="false"
     inkscape:zoom="0.43052416"
     inkscape:cx="274.0845"
     inkscape:cy="274.0845"
     inkscape:window-x="0"
     inkscape:window-y="0"
     inkscape:window-maximized="0"
     inkscape:current-layer="Capa_1" /><path
     d="m 97.1817,139.54696 c 17.29324,0 32.05322,-6.11463 44.28421,-18.34905 12.23527,-12.23357 18.35334,-26.997827 18.35334,-44.287643 0,-17.288101 -6.11807,-32.052362 -18.35334,-44.287638 C 129.23492,20.389067 114.47408,14.271 97.1817,14.271 79.890167,14.271 65.129334,20.389067 52.895772,32.622629 40.663067,44.857905 34.545,59.618738 34.545,76.910267 c 0,17.293244 6.118067,32.054073 18.350772,44.287643 12.233562,12.23099 26.994395,18.34905 44.285928,18.34905 z"
     id="path7"
     style="fill:#ffffff;fill-opacity:1"
     inkscape:connector-curvature="0" /><path
     d="m 204.78021,271.9495 c 19.14468,19.59195 42.24293,29.3925 69.30458,29.3925 27.06254,0 50.15989,-9.80055 69.30368,-29.3925 19.1411,-19.60477 28.71478,-43.25313 28.71478,-70.95058 0,-27.69929 -9.57368,-51.34673 -28.71478,-70.94601 -19.14379,-19.59927 -42.24114,-29.39891 -69.30368,-29.39891 -27.06165,0 -50.16169,9.80147 -69.30458,29.39891 -19.14289,19.59653 -28.71746,43.24398 -28.71746,70.94601 0,27.70202 9.57457,51.34856 28.71746,70.95058 z"
     id="path9"
     style="fill:#ffffff;fill-opacity:1"
     inkscape:connector-curvature="0" /><path
     d="m 450.47673,158.31975 c 14.08064,0 26.10679,-4.98093 36.07144,-14.94699 9.96466,-9.96536 14.94559,-21.9922 14.94559,-36.07633 0,-14.082751 -4.98093,-26.109593 -14.94559,-36.076347 C 476.58422,61.254726 464.55737,56.271 450.47673,56.271 c -14.09043,0 -26.11378,4.983726 -36.07914,14.949083 -9.96256,9.966754 -14.94559,21.990804 -14.94559,36.076347 0,14.08692 4.98372,26.11097 14.94559,36.07633 9.96536,9.96327 21.98871,14.94699 36.07914,14.94699 z"
     id="path11"
     style="fill:#ffffff;fill-opacity:1"
     inkscape:connector-curvature="0" /><path
     d="m 503.04479,170.456 c -0.91781,0 -4.26266,1.61506 -10.0305,4.84437 -5.76219,3.23093 -13.26305,6.49902 -22.48723,9.8059 -9.22337,3.30364 -18.37808,4.95748 -27.44713,4.95748 -10.30763,0 -20.52638,-1.76695 -30.67968,-5.3057 0.7635,5.68705 1.1505,10.76329 1.1505,15.22309 0,21.37551 -6.22918,41.0584 -18.69075,59.05109 24.91749,0.77158 45.28955,10.6114 61.13475,29.5316 l 30.90832,0 c 12.60781,0 23.21922,-3.12105 31.82937,-9.34779 8.61016,-6.22352 12.91806,-15.33944 12.91806,-27.33241 0.002,-54.28832 -9.52797,-81.43086 -28.60571,-81.42763 z"
     id="path13"
     style="fill:#ffffff;fill-opacity:1"
     inkscape:connector-curvature="0" /><path
     d="m 470.096,395.284 c -1.999,-11.136 -4.524,-21.464 -7.57,-30.978 -3.046,-9.521 -7.139,-18.794 -12.271,-27.836 -5.141,-9.034 -11.044,-16.748 -17.706,-23.127 -6.667,-6.379 -14.805,-11.464 -24.414,-15.276 -9.609,-3.806 -20.225,-5.708 -31.833,-5.708 -1.906,0 -5.996,2.047 -12.278,6.14 -6.283,4.089 -13.224,8.665 -20.841,13.702 -7.615,5.037 -17.789,9.609 -30.55,13.702 -12.762,4.093 -25.608,6.14 -38.544,6.14 -12.941,0 -25.791,-2.047 -38.544,-6.14 -12.756,-4.093 -22.936,-8.665 -30.55,-13.702 -7.616,-5.037 -14.561,-9.613 -20.841,-13.702 -6.283,-4.093 -10.373,-6.14 -12.279,-6.14 -11.609,0 -22.22,1.902 -31.833,5.708 -9.613,3.812 -17.749,8.897 -24.41,15.276 -6.667,6.372 -12.562,14.093 -17.705,23.127 -5.137,9.042 -9.229,18.315 -12.275,27.836 -3.045,9.514 -5.564,19.842 -7.566,30.978 -2,11.136 -3.331,21.505 -3.997,31.121 -0.667,9.613 -0.999,19.466 -0.999,29.554 0,22.836 6.945,40.874 20.839,54.098 13.899,13.223 32.363,19.842 55.389,19.842 l 249.535,0 c 23.028,0 41.49,-6.619 55.392,-19.842 13.894,-13.224 20.841,-31.262 20.841,-54.098 0,-10.088 -0.335,-19.938 -0.992,-29.554 -0.676,-9.616 -2.007,-19.986 -3.998,-31.121 z"
     id="path15"
     style="fill:#ffffff;fill-opacity:1"
     inkscape:connector-curvature="0" /><path
     d="m 153.85198,259.37773 c -14.19305,-20.50067 -21.28773,-42.92712 -21.28497,-67.28213 0,-5.08144 0.4391,-10.86157 1.31363,-17.34501 -11.5658,4.02925 -23.21721,6.04525 -34.95699,6.04525 -10.337786,0 -20.76026,-1.88344 -31.274789,-5.6485 C 57.138934,171.37953 48.594383,167.6559 42.026254,163.97462 35.455364,160.29518 31.641523,158.455 30.591174,158.455 8.863418,158.45592 -2,189.38182 -2,251.2327 c 0,13.66465 4.9065349,24.05122 14.716843,31.14222 9.81307,7.09469 21.903582,10.64433 36.266933,10.64433 l 35.220267,0 c 18.049237,-21.55101 41.261837,-32.76332 69.647937,-33.64152 z"
     id="path17"
     style="fill:#ffffff;fill-opacity:1"
     inkscape:connector-curvature="0" /><g
     id="g19" /><g
     id="g21" /><g
     id="g23" /><g
     id="g25" /><g
     id="g27" /><g
     id="g29" /><g
     id="g31" /><g
     id="g33" /><g
     id="g35" /><g
     id="g37" /><g
     id="g39" /><g
     id="g41" /><g
     id="g43" /><g
     id="g45" /><g
     id="g47" /></svg>