<svg enable-background="new 0 0 365.442 365.442" height="365.442" viewBox="0 0 365.442 365.442" width="365.442" xmlns="http://www.w3.org/2000/svg"><path d="m62.04834 283.63586h32.214355v40.30762h-32.214355zm31.262207-23.32764h-30.310059v-24.43847q0-16.02784 4.44336-26.34278 4.443359-10.31494 18.725586-23.9624l14.282226-14.12353q9.04541-8.41065 13.0127-15.86914 4.12597-7.4585 4.12597-15.23438 0-14.12353-10.47363-22.85156-10.314942-8.72803-27.453614-8.72803-12.536621 0-26.818848 5.5542-14.123535 5.5542-29.516601 16.18652v-29.83398q14.916992-9.045411 30.151367-13.488771 15.393066-4.443359 31.738281-4.443359 29.199215 0 46.813965 15.393066 17.77344 15.393064 17.77344 40.625004 0 12.06054-5.71289 23.01025-5.71289 10.79102-19.99512 24.43848l-13.96484 13.64746q-7.4585 7.45849-10.632328 11.74316-3.015137 4.12598-4.284668 8.09326-.952149 3.33252-1.428223 8.09327-.476074 4.76074-.476074 13.01269z" fill="#fff" transform="matrix(1.5805014 0 0 1.5126535 52.418252 -124.67059)"/></svg>