<svg enable-background="new 0 0 438.533 438.533" height="438.533" viewBox="0 0 438.533 438.533" width="438.533" xmlns="http://www.w3.org/2000/svg"><path d="m162.16361 156.09994h34.21784v-64.864231c0-1.7206.53811-3.13207 1.60623-4.23827 1.06374-1.10297 2.43151-1.65736 4.0933-1.65736h34.22407c1.66304 0 3.03017.55439 4.09955 1.65736 1.06998 1.10684 1.60435 2.51767 1.60435 4.23827v64.861651h34.22158c2.61317 0 4.39606 1.22946 5.34744 3.68452.95139 2.33696.53313 4.48352-1.24789 6.45131l-57.03472 58.96343c-1.30844 1.10426-2.67371 1.65672-4.09953 1.65672-1.42396 0-2.7911-.55246-4.10079-1.65672l-56.85618-58.77756c-1.18735-1.47342-1.77978-2.95329-1.77978-4.4222 0-1.71803.53375-3.13208 1.60624-4.24021 1.06687-1.10491 2.434-1.65671 4.09829-1.65671z" fill="#fff"/><path d="m106.85581 252.70764v60.48527h224.82137v-60.48527h-26.24819v34.23708h-172.32499v-34.23708z" fill="#fff"/><rect height="370.3298" ry="49.92741" style="fill:none;stroke:#fff;stroke-width:14.285204;stroke-linecap:round;stroke-linejoin:round;stroke-dashoffset:3.2759" width="408.70123" x="15.107812" y="34.101593"/></svg>