<?xml version="1.0" encoding="UTF-8" standalone="no"?>
<!-- Generator: Adobe Illustrator 16.0.0, SVG Export Plug-In . SVG Version: 6.00 Build 0)  -->

<svg
   xmlns:dc="http://purl.org/dc/elements/1.1/"
   xmlns:cc="http://creativecommons.org/ns#"
   xmlns:rdf="http://www.w3.org/1999/02/22-rdf-syntax-ns#"
   xmlns:svg="http://www.w3.org/2000/svg"
   xmlns="http://www.w3.org/2000/svg"
   xmlns:sodipodi="http://sodipodi.sourceforge.net/DTD/sodipodi-0.dtd"
   xmlns:inkscape="http://www.inkscape.org/namespaces/inkscape"
   version="1.1"
   id="Capa_1"
   x="0px"
   y="0px"
   width="438.533px"
   height="438.533px"
   viewBox="0 0 438.533 438.533"
   style="enable-background:new 0 0 438.533 438.533;"
   xml:space="preserve"
   inkscape:version="0.91 r13725"
   sodipodi:docname="download-square.svg"><metadata
     id="metadata45"><rdf:RDF><cc:Work
         rdf:about=""><dc:format>image/svg+xml</dc:format><dc:type
           rdf:resource="http://purl.org/dc/dcmitype/StillImage" /><dc:title /></cc:Work></rdf:RDF></metadata><defs
     id="defs43" /><sodipodi:namedview
     pagecolor="#ffffff"
     bordercolor="#666666"
     borderopacity="1"
     objecttolerance="10"
     gridtolerance="10"
     guidetolerance="10"
     inkscape:pageopacity="0"
     inkscape:pageshadow="2"
     inkscape:window-width="1520"
     inkscape:window-height="931"
     id="namedview41"
     showgrid="false"
     inkscape:zoom="1.1133625"
     inkscape:cx="127.52484"
     inkscape:cy="217.27173"
     inkscape:window-x="0"
     inkscape:window-y="0"
     inkscape:window-maximized="0"
     inkscape:current-layer="Capa_1" /><g
     id="g11" /><g
     id="g13" /><g
     id="g15" /><g
     id="g17" /><g
     id="g19" /><g
     id="g21" /><g
     id="g23" /><g
     id="g25" /><g
     id="g27" /><g
     id="g29" /><g
     id="g31" /><g
     id="g33" /><g
     id="g35" /><g
     id="g37" /><g
     id="g39" /><path
     d="m 162.16361,156.09994 34.21784,0 0,-64.864231 c 0,-1.7206 0.53811,-3.13207 1.60623,-4.23827 1.06374,-1.10297 2.43151,-1.65736 4.0933,-1.65736 l 34.22407,0 c 1.66304,0 3.03017,0.55439 4.09955,1.65736 1.06998,1.10684 1.60435,2.51767 1.60435,4.23827 l 0,64.861651 34.22158,0 c 2.61317,0 4.39606,1.22946 5.34744,3.68452 0.95139,2.33696 0.53313,4.48352 -1.24789,6.45131 l -57.03472,58.96343 c -1.30844,1.10426 -2.67371,1.65672 -4.09953,1.65672 -1.42396,0 -2.7911,-0.55246 -4.10079,-1.65672 l -56.85618,-58.77756 c -1.18735,-1.47342 -1.77978,-2.95329 -1.77978,-4.4222 0,-1.71803 0.53375,-3.13208 1.60624,-4.24021 1.06687,-1.10491 2.434,-1.65671 4.09829,-1.65671 z"
     id="path9"
     inkscape:connector-curvature="0"
     style="fill:#ffffff;fill-opacity:1" /><path
     style="opacity:1;fill:#ffffff;fill-opacity:1;stroke:none;stroke-width:35;stroke-linejoin:round;stroke-miterlimit:4;stroke-dasharray:none;stroke-dashoffset:3.27590013;stroke-opacity:1"
     d="m 106.85581,252.70764 0,60.48527 224.82137,0 0,-60.48527 -26.24819,0 0,34.23708 -172.32499,0 0,-34.23708 z"
     id="rect4150"
     inkscape:connector-curvature="0"
     sodipodi:nodetypes="ccccccccc" /><rect
     style="opacity:1;fill:none;fill-opacity:1;fill-rule:nonzero;stroke:#ffffff;stroke-width:14.28520393;stroke-linecap:round;stroke-linejoin:round;stroke-miterlimit:4;stroke-dasharray:none;stroke-dashoffset:3.27590013;stroke-opacity:1"
     id="rect4139"
     width="408.70123"
     height="370.3298"
     x="15.107812"
     y="34.101593"
     ry="49.92741" /></svg>