<svg height="1536" width="1536" xmlns="http://www.w3.org/2000/svg"><ellipse cx="768.28583" cy="770.16949" rx="723.21613" ry="723.21954" style="fill:#fff;stroke:#fff;stroke-width:85.677757;stroke-linecap:round;stroke-linejoin:round;stroke-dashoffset:3.2759"/><g stroke="#000"><path d="m165.58521 873.38376c362.31435-712.16148 992.10479-498.12624 1229.76859 84.23725" fill="none" stroke-width="83.890724"/><path d="m235.90119 845.0543 141.47921-125.24389 134.5212-69.57993 148.4372-44.0673h132.20189l118.28589 30.15131 155.39522 60.30261 125.2438 90.45392 88.1347 78.85726 57.9832 57.98329-92.7732 53.34461-160.0339 55.66392-169.31116 53.3446-241.21045 23.1933-199.46248-44.0672-122.92456-53.3446-92.77325-55.664-44.06729-99.73125 13.91599-13.91599z" fill="#fff" fill-rule="evenodd" stroke-width=".909888"/><ellipse cx="788.2326" cy="784.41083" rx="225.78905" ry="196.52008" stroke-linejoin="round" stroke-width="84.629654"/><path d="m142.8158 814.16185c369.57695 437.31285 758.41674 414.97575 1263.2583 80.98613" fill="none" stroke-width="107.375114"/><path d="m224.01615 877.35576c49.28416-84.39636 117.60516-127.01062 186.01177-181.93368 350.82669-281.67562 649.85498-88.46976 949.22768 243.27495" fill="none" stroke-width="86.893517"/></g></svg>