<?xml version="1.0" encoding="UTF-8" standalone="no"?>
<!-- Generator: Adobe Illustrator 16.0.0, SVG Export Plug-In . SVG Version: 6.00 Build 0)  -->

<svg
   xmlns:dc="http://purl.org/dc/elements/1.1/"
   xmlns:cc="http://creativecommons.org/ns#"
   xmlns:rdf="http://www.w3.org/1999/02/22-rdf-syntax-ns#"
   xmlns:svg="http://www.w3.org/2000/svg"
   xmlns="http://www.w3.org/2000/svg"
   xmlns:sodipodi="http://sodipodi.sourceforge.net/DTD/sodipodi-0.dtd"
   xmlns:inkscape="http://www.inkscape.org/namespaces/inkscape"
   version="1.1"
   id="Capa_1"
   x="0px"
   y="0px"
   width="438.536px"
   height="438.536px"
   viewBox="0 0 438.536 438.536"
   style="enable-background:new 0 0 438.536 438.536;"
   xml:space="preserve"
   inkscape:version="0.91 r13725"
   sodipodi:docname="fill.svg"><metadata
     id="metadata41"><rdf:RDF><cc:Work
         rdf:about=""><dc:format>image/svg+xml</dc:format><dc:type
           rdf:resource="http://purl.org/dc/dcmitype/StillImage" /><dc:title /></cc:Work></rdf:RDF></metadata><defs
     id="defs39" /><sodipodi:namedview
     pagecolor="#ffffff"
     bordercolor="#666666"
     borderopacity="1"
     objecttolerance="10"
     gridtolerance="10"
     guidetolerance="10"
     inkscape:pageopacity="0"
     inkscape:pageshadow="2"
     inkscape:window-width="1496"
     inkscape:window-height="880"
     id="namedview37"
     showgrid="false"
     inkscape:zoom="1.0375456"
     inkscape:cx="242.57781"
     inkscape:cy="214.68798"
     inkscape:window-x="24"
     inkscape:window-y="43"
     inkscape:window-maximized="0"
     inkscape:current-layer="Capa_1"><inkscape:grid
       type="xygrid"
       id="grid4267" /></sodipodi:namedview><path
     style="fill:#ffffff;fill-opacity:1;fill-rule:evenodd;stroke:#ffffff;stroke-width:1.06286144px;stroke-linecap:butt;stroke-linejoin:miter;stroke-opacity:1"
     d="m 245.25184,47.054688 153.0625,153.556642 c 0,0 1.52555,28.59311 -1.60156,46.03906 -3.14673,17.55545 -13.99429,39.48505 -27.81445,55.92188 -14.06355,16.72628 -31.8086,30.85937 -31.8086,30.85937 -11.62468,8.56254 -21.2119,13.66338 -34.89062,18.93164 -20.92292,7.17692 -36.68939,8.61603 -58.0625,10.56641 l -111.46094,-105.53516 1.97461,-46.41406 c 20.56398,-14.3572 37.90458,-23.98141 55.63281,-37.23242 15.2493,-13.03418 31.87879,-29.55696 43.20899,-47.80469 5.55683,-8.94948 9.91374,-17.2689 11.61523,-29.390626 1.02053,-7.270398 0.26938,-12.293627 -3.80664,-15.921875 -4.32709,-3.851744 -11.37437,-2.916701 -17.25586,-2.05664 -15.96158,2.334087 -34.96827,11.998246 -47.48633,23.261721 -9.08676,7.50325 -15.22282,14.0503 -20.7246,21.16015 l -12.29493,16.88477 -30.61328,1.48047 c -1.32945,1.32946 1.98711,-7.16142 12.83789,-22.71289 9.28011,-13.30038 12.23863,-16.84013 27.94141,-30.244143 6.59185,-5.626853 11.72626,-9.333009 30.20898,-19.623047 13.55679,-7.547585 30.41102,-14.037575 45.71094,-17.841797 l 15.62695,-3.884765 z M 164.54677,160.44141 c 17.78054,-0.37749 -12.69607,6.5244 -20.07032,9.93164 -11.04472,5.10318 -17.06318,9.47708 -20.16992,11.91015 -7.40299,5.79771 -11.51519,12.33458 -13.1875,20.62891 -1.2782,6.33957 -1.56543,9.52759 -2.14453,15.96875 -2.90586,32.32117 -2.88219,64.17803 -2.38281,96.42578 0.11225,7.24833 0.25957,15.07702 2.15429,22.07422 1.74208,6.43347 3.60472,13.04246 9.11719,16.78906 8.32899,5.66087 19.36265,6.5987 29.45117,6.27344 23.31246,-0.75159 39.55588,-12.8877 45.10743,9.4375 1.05367,4.23728 -3.91797,8.23437 -3.91797,8.23437 -4.91505,4.33235 -12.50439,3.16763 -20.67578,4.11329 -10.90474,1.26198 -19.98027,2.82163 -29.48829,4.67382 -11.50198,2.24061 -19.32695,3.04354 -28.37695,3.80469 -9.84032,0.82763 -19.81579,1.13849 -29.625,0 -5.71035,-0.66276 -11.25665,-2.38032 -16.78711,-3.94922 -4.00563,-1.13632 -8.46104,-2.66556 -11.85156,-3.95117 -4.80776,-1.823 -11.61661,-4.7385 -11.84961,-9.875 -0.10548,-2.32518 2.67769,-4.37996 4.9375,-4.9375 3.55514,-0.87712 10.19385,-1.60088 13.82617,-4.9375 4.01269,-3.68603 6.12297,-11.8091 7.08594,-17.43164 7.68763,-44.88606 -0.80073,-105.42932 -0.17383,-129.41797 0.43073,-16.48251 3.48841,-29.04393 17.77539,-40.48633 5.34084,-4.27746 15.71077,-11.61474 77.02539,-15.10351 1.63547,-0.0931 3.03534,-0.15062 4.22071,-0.17578 z"
     id="path4261"
     inkscape:connector-curvature="0" /></svg>