<?xml version="1.0" encoding="UTF-8" standalone="no"?>
<svg
   xmlns:dc="http://purl.org/dc/elements/1.1/"
   xmlns:cc="http://creativecommons.org/ns#"
   xmlns:rdf="http://www.w3.org/1999/02/22-rdf-syntax-ns#"
   xmlns:svg="http://www.w3.org/2000/svg"
   xmlns="http://www.w3.org/2000/svg"
   xmlns:sodipodi="http://sodipodi.sourceforge.net/DTD/sodipodi-0.dtd"
   xmlns:inkscape="http://www.inkscape.org/namespaces/inkscape"
   id="svg2"
   version="1.1"
   inkscape:version="0.91 r13725"
   sodipodi:docname="fullscreen.svg"
   width="1536"
   height="1536">
  <metadata
     id="metadata10">
    <rdf:RDF>
      <cc:Work
         rdf:about="">
        <dc:format>image/svg+xml</dc:format>
        <dc:type
           rdf:resource="http://purl.org/dc/dcmitype/StillImage" />
        <dc:title />
      </cc:Work>
    </rdf:RDF>
  </metadata>
  <defs
     id="defs8" />
  <sodipodi:namedview
     pagecolor="#ffffff"
     bordercolor="#666666"
     borderopacity="1"
     objecttolerance="10"
     gridtolerance="10"
     guidetolerance="10"
     inkscape:pageopacity="0"
     inkscape:pageshadow="2"
     inkscape:window-width="1672"
     inkscape:window-height="1132"
     id="namedview6"
     showgrid="false"
     fit-margin-top="0"
     fit-margin-left="0"
     fit-margin-right="0"
     fit-margin-bottom="0"
     inkscape:zoom="0.35907429"
     inkscape:cx="162.79003"
     inkscape:cy="912.40976"
     inkscape:window-x="0"
     inkscape:window-y="0"
     inkscape:window-maximized="0"
     inkscape:current-layer="svg2" />
  <path
     d="M 1283,1123 928,768 1283,413 1427,557 q 29,31 70,14 39,-17 39,-59 l 0,-448 q 0,-26 -19,-45 -19,-19 -45,-19 l -448,0 q -42,0 -59,40 -17,39 14,69 L 1123,253 768,608 413,253 557,109 Q 588,79 571,40 554,0 512,0 L 64,0 Q 38,0 19,19 0,38 0,64 l 0,448 q 0,42 40,59 39,17 69,-14 L 253,413 608,768 253,1123 109,979 Q 90,960 64,960 52,960 40,965 0,982 0,1024 l 0,448 q 0,26 19,45 19,19 45,19 l 448,0 q 42,0 59,-40 17,-39 -14,-69 l -144,-144 355,-355 355,355 -144,144 q -31,30 -14,69 17,40 59,40 l 448,0 q 26,0 45,-19 19,-19 19,-45 l 0,-448 q 0,-42 -39,-59 -13,-5 -25,-5 -26,0 -45,19 z"
     id="path4"
     inkscape:connector-curvature="0"
     style="fill:#ffffff;fill-opacity:1" />
</svg>
