<?xml version="1.0" encoding="UTF-8" standalone="no"?>
<!-- Generator: Adobe Illustrator 16.0.0, SVG Export Plug-In . SVG Version: 6.00 Build 0)  -->

<svg
   xmlns:dc="http://purl.org/dc/elements/1.1/"
   xmlns:cc="http://creativecommons.org/ns#"
   xmlns:rdf="http://www.w3.org/1999/02/22-rdf-syntax-ns#"
   xmlns:svg="http://www.w3.org/2000/svg"
   xmlns="http://www.w3.org/2000/svg"
   xmlns:sodipodi="http://sodipodi.sourceforge.net/DTD/sodipodi-0.dtd"
   xmlns:inkscape="http://www.inkscape.org/namespaces/inkscape"
   version="1.1"
   id="Capa_1"
   x="0px"
   y="0px"
   width="401.994px"
   height="401.994px"
   viewBox="0 0 401.994 401.994"
   style="enable-background:new 0 0 401.994 401.994;"
   xml:space="preserve"
   inkscape:version="0.91 r13725"
   sodipodi:docname="github.svg"><metadata
     id="metadata41"><rdf:RDF><cc:Work
         rdf:about=""><dc:format>image/svg+xml</dc:format><dc:type
           rdf:resource="http://purl.org/dc/dcmitype/StillImage" /><dc:title></dc:title></cc:Work></rdf:RDF></metadata><defs
     id="defs39" /><sodipodi:namedview
     pagecolor="#ffffff"
     bordercolor="#666666"
     borderopacity="1"
     objecttolerance="10"
     gridtolerance="10"
     guidetolerance="10"
     inkscape:pageopacity="0"
     inkscape:pageshadow="2"
     inkscape:window-width="1094"
     inkscape:window-height="734"
     id="namedview37"
     showgrid="false"
     inkscape:zoom="1.1741469"
     inkscape:cx="192.16714"
     inkscape:cy="200.99699"
     inkscape:window-x="141"
     inkscape:window-y="109"
     inkscape:window-maximized="0"
     inkscape:current-layer="Capa_1" /><g
     id="g7" /><g
     id="g9" /><g
     id="g11" /><g
     id="g13" /><g
     id="g15" /><g
     id="g17" /><g
     id="g19" /><g
     id="g21" /><g
     id="g23" /><g
     id="g25" /><g
     id="g27" /><g
     id="g29" /><g
     id="g31" /><g
     id="g33" /><g
     id="g35" /><path
     style="fill:#ffffff;fill-opacity:1"
     d="M 126.10439,388.42673 C 98.919045,377.32176 77.133381,362.4398 56.058304,340.57776 -10.195972,271.84944 -19.000149,168.23854 34.604353,88.099538 44.754984,72.924294 72.51202,45.167268 87.687246,35.016635 110.5997,19.690639 136.71164,8.768874 162.8473,3.5796582 c 18.89489,-3.75157006 57.56382,-3.75157006 76.45871,0 60.99481,12.1104748 114.50499,53.1122288 142.7318,109.3671018 16.94966,33.78003 24.00911,78.56577 18.38451,116.6329 -6.64484,44.97209 -24.94419,81.22997 -57.4594,113.84862 -21.77856,21.84785 -45.65713,37.44102 -71.86338,46.9282 -10.92401,3.95467 -17.39728,2.79091 -18.76115,-3.37293 -0.438,-1.9795 -1.00031,-19.5445 -1.2496,-39.0333 -0.42532,-33.25328 -0.68042,-35.94001 -4.14478,-43.65257 -2.03034,-4.52013 -4.67688,-9.03617 -5.88121,-10.03567 -3.44163,-2.8563 -2.58201,-4.58132 2.28297,-4.58132 7.70053,0 28.89549,-6.11675 40.89646,-11.80253 13.3961,-6.34677 27.09061,-19.22062 33.8082,-31.78226 7.19702,-13.45815 10.76917,-30.29025 10.97058,-51.69378 0.20845,-22.15239 -2.83212,-33.30911 -13.24068,-48.58382 -6.26451,-9.19328 -6.27365,-9.22908 -4.37343,-17.15001 2.25366,-9.39435 1.16169,-29.081714 -2.11914,-38.206471 l -2.26498,-6.299419 -8.48348,0.136912 c -10.00796,0.161492 -21.99826,4.532948 -36.61693,13.349875 l -10.58462,6.383903 -12.13801,-2.84713 c -16.67285,-3.910777 -58.86522,-3.955321 -76.42051,-0.0808 l -12.31235,2.71748 -10.41028,-6.278747 C 125.52589,88.780108 113.58929,84.459809 103.46255,84.299252 l -8.634947,-0.136898 -2.129575,6.299419 c -3.133489,9.269081 -4.163051,28.988127 -1.987119,38.058507 1.852841,7.72343 1.815756,7.86888 -4.372544,17.14998 -10.531009,15.79425 -13.498897,26.69766 -13.264666,48.73181 0.226931,21.3487 3.807829,38.16433 11.008235,51.69378 6.289171,11.81727 21.329956,26.06767 33.984196,32.19832 10.71427,5.19078 32.8685,11.35503 40.88322,11.37544 5.28553,0.0142 5.32271,0.48568 0.5362,6.80924 -2.08706,2.75725 -4.80543,8.55661 -6.04084,12.88745 -2.10477,7.37848 -2.73349,8.0495 -9.98533,10.65743 -17.35458,6.2411 -36.82782,0.31613 -46.851748,-14.25527 -12.282434,-17.85443 -23.029865,-25.53689 -35.725135,-25.53689 -8.894992,0 -10.066996,3.80344 -2.986642,9.69236 12.313555,10.2415 17.613825,16.62721 22.86801,27.55108 6.657646,13.84184 12.663828,20.19068 24.237195,25.61996 7.82557,3.67111 10.47601,4.06031 27.1758,3.99051 l 18.50451,-0.0772 0,19.8557 c 0,13.46024 -0.63408,20.6858 -1.96856,22.43281 -3.65995,4.79129 -9.27893,4.5751 -22.60842,-0.86991 z"
     id="path4247"
     inkscape:connector-curvature="0" /></svg>