<svg enable-background="new 0 0 401.994 401.994" height="401.994" viewBox="0 0 401.994 401.994" width="401.994" xmlns="http://www.w3.org/2000/svg"><path d="m126.10439 388.42673c-27.185345-11.10497-48.971009-25.98693-70.046086-47.84897-66.254276-68.72832-75.058453-172.33922-21.453951-252.478222 10.150631-15.175244 37.907667-42.93227 53.082893-53.082903 22.912454-15.325996 49.024394-26.247761 75.160054-31.4369768 18.89489-3.75157006 57.56382-3.75157006 76.45871 0 60.99481 12.1104748 114.50499 53.1122288 142.7318 109.3671018 16.94966 33.78003 24.00911 78.56577 18.38451 116.6329-6.64484 44.97209-24.94419 81.22997-57.4594 113.84862-21.77856 21.84785-45.65713 37.44102-71.86338 46.9282-10.92401 3.95467-17.39728 2.79091-18.76115-3.37293-.438-1.9795-1.00031-19.5445-1.2496-39.0333-.42532-33.25328-.68042-35.94001-4.14478-43.65257-2.03034-4.52013-4.67688-9.03617-5.88121-10.03567-3.44163-2.8563-2.58201-4.58132 2.28297-4.58132 7.70053 0 28.89549-6.11675 40.89646-11.80253 13.3961-6.34677 27.09061-19.22062 33.8082-31.78226 7.19702-13.45815 10.76917-30.29025 10.97058-51.69378.20845-22.15239-2.83212-33.30911-13.24068-48.58382-6.26451-9.19328-6.27365-9.22908-4.37343-17.15001 2.25366-9.39435 1.16169-29.081714-2.11914-38.206471l-2.26498-6.299419-8.48348.136912c-10.00796.161492-21.99826 4.532948-36.61693 13.349875l-10.58462 6.383903-12.13801-2.84713c-16.67285-3.910777-58.86522-3.955321-76.42051-.0808l-12.31235 2.71748-10.41028-6.278747c-14.53071-8.763785-26.46731-13.084084-36.59405-13.244641l-8.634947-.136898-2.129575 6.299419c-3.133489 9.269081-4.163051 28.988127-1.987119 38.058507 1.852841 7.72343 1.815756 7.86888-4.372544 17.14998-10.531009 15.79425-13.498897 26.69766-13.264666 48.73181.226931 21.3487 3.807829 38.16433 11.008235 51.69378 6.289171 11.81727 21.329956 26.06767 33.984196 32.19832 10.71427 5.19078 32.8685 11.35503 40.88322 11.37544 5.28553.0142 5.32271.48568.5362 6.80924-2.08706 2.75725-4.80543 8.55661-6.04084 12.88745-2.10477 7.37848-2.73349 8.0495-9.98533 10.65743-17.35458 6.2411-36.82782.31613-46.851748-14.25527-12.282434-17.85443-23.029865-25.53689-35.725135-25.53689-8.894992 0-10.066996 3.80344-2.986642 9.69236 12.313555 10.2415 17.613825 16.62721 22.86801 27.55108 6.657646 13.84184 12.663828 20.19068 24.237195 25.61996 7.82557 3.67111 10.47601 4.06031 27.1758 3.99051l18.50451-.0772v19.8557c0 13.46024-.63408 20.6858-1.96856 22.43281-3.65995 4.79129-9.27893 4.5751-22.60842-.86991z" fill="#fff"/></svg>