<?xml version="1.0" encoding="UTF-8" standalone="no"?>
<!-- Generator: Adobe Illustrator 16.0.0, SVG Export Plug-In . SVG Version: 6.00 Build 0)  -->

<svg
   xmlns:dc="http://purl.org/dc/elements/1.1/"
   xmlns:cc="http://creativecommons.org/ns#"
   xmlns:rdf="http://www.w3.org/1999/02/22-rdf-syntax-ns#"
   xmlns:svg="http://www.w3.org/2000/svg"
   xmlns="http://www.w3.org/2000/svg"
   xmlns:sodipodi="http://sodipodi.sourceforge.net/DTD/sodipodi-0.dtd"
   xmlns:inkscape="http://www.inkscape.org/namespaces/inkscape"
   version="1.1"
   id="Capa_1"
   x="0px"
   y="0px"
   width="401.994px"
   height="401.994px"
   viewBox="0 0 401.994 401.994"
   style="enable-background:new 0 0 401.994 401.994;"
   xml:space="preserve"
   inkscape:version="0.91 r13725"
   sodipodi:docname="music.svg"><metadata
     id="metadata41"><rdf:RDF><cc:Work
         rdf:about=""><dc:format>image/svg+xml</dc:format><dc:type
           rdf:resource="http://purl.org/dc/dcmitype/StillImage" /><dc:title></dc:title></cc:Work></rdf:RDF></metadata><defs
     id="defs39" /><sodipodi:namedview
     pagecolor="#ffffff"
     bordercolor="#666666"
     borderopacity="1"
     objecttolerance="10"
     gridtolerance="10"
     guidetolerance="10"
     inkscape:pageopacity="0"
     inkscape:pageshadow="2"
     inkscape:window-width="1349"
     inkscape:window-height="1018"
     id="namedview37"
     showgrid="false"
     inkscape:zoom="1.1741469"
     inkscape:cx="192.16714"
     inkscape:cy="142.32814"
     inkscape:window-x="44"
     inkscape:window-y="22"
     inkscape:window-maximized="0"
     inkscape:current-layer="Capa_1" /><g
     id="g7" /><g
     id="g9" /><g
     id="g11" /><g
     id="g13" /><g
     id="g15" /><g
     id="g17" /><g
     id="g19" /><g
     id="g21" /><g
     id="g23" /><g
     id="g25" /><g
     id="g27" /><g
     id="g29" /><g
     id="g31" /><g
     id="g33" /><g
     id="g35" /><path
     inkscape:connector-curvature="0"
     d="m 134.55008,91.469487 0,67.295893 0,34.07683 0,95.911 c -10.14004,-5.23481 -22.0234,-8.30698 -34.786398,-8.30698 -36.881581,0 -66.797885,25.19718 -66.797885,56.249 0,31.08551 29.908308,56.2827 66.797885,56.2827 36.865578,0 75.660208,-29.6376 75.668188,-60.71637 l 0,-18.67804 0,-182.80585 151.25554,-58.196923 0,149.828743 c -10.14004,-5.23482 -12.23965,-6.52811 -25.00268,-6.52811 -36.89757,0 -66.79787,25.19043 -66.79787,56.24226 0,31.07878 29.9003,56.2827 66.79787,56.2827 34.73844,0 64.17671,-30.40611 67.34346,-59.00559 l -0.56956,8.00486 0,-141.21664 0,-24.15965 0,-103.0132665 z"
     id="path3"
     style="fill:#ffffff;fill-opacity:1"
     sodipodi:nodetypes="ccccssscccccssscccccc" /></svg>