<?xml version="1.0" encoding="UTF-8" standalone="no"?>
<!-- Created with Inkscape (http://www.inkscape.org/) -->

<svg
   xmlns:dc="http://purl.org/dc/elements/1.1/"
   xmlns:cc="http://creativecommons.org/ns#"
   xmlns:rdf="http://www.w3.org/1999/02/22-rdf-syntax-ns#"
   xmlns:svg="http://www.w3.org/2000/svg"
   xmlns="http://www.w3.org/2000/svg"
   xmlns:sodipodi="http://sodipodi.sourceforge.net/DTD/sodipodi-0.dtd"
   xmlns:inkscape="http://www.inkscape.org/namespaces/inkscape"
   width="276.27344"
   height="272"
   id="svg3553"
   version="1.1"
   inkscape:version="0.48.5 r10040"
   sodipodi:docname="naat.svg">
  <defs
     id="defs3555" />
  <sodipodi:namedview
     id="base"
     pagecolor="#ffffff"
     bordercolor="#666666"
     borderopacity="1.0"
     inkscape:pageopacity="0.0"
     inkscape:pageshadow="2"
     inkscape:zoom="1.7290703"
     inkscape:cx="80.124264"
     inkscape:cy="136.00001"
     inkscape:document-units="px"
     inkscape:current-layer="layer1"
     showgrid="false"
     fit-margin-top="0"
     fit-margin-left="0"
     fit-margin-right="0"
     fit-margin-bottom="0"
     inkscape:window-width="895"
     inkscape:window-height="755"
     inkscape:window-x="437"
     inkscape:window-y="61"
     inkscape:window-maximized="0" />
  <metadata
     id="metadata3558">
    <rdf:RDF>
      <cc:Work
         rdf:about="">
        <dc:format>image/svg+xml</dc:format>
        <dc:type
           rdf:resource="http://purl.org/dc/dcmitype/StillImage" />
        <dc:title />
      </cc:Work>
    </rdf:RDF>
  </metadata>
  <g
     inkscape:label="Layer 1"
     inkscape:groupmode="layer"
     id="layer1"
     transform="translate(-236.86328,-396.36218)">
    <path
       style="color:#000000;fill:#ffffff;fill-opacity:1;fill-rule:nonzero;stroke:none;stroke-width:6.40000009999999975;marker:none;visibility:visible;display:inline;overflow:visible;enable-background:accumulate"
       d="M 11.09375 178.40625 L 16 178.40625 L 21 178.40625 L 21 173.40625 L 21 135.78125 C 20.999993 134.37402 21.083942 133.08958 21.25 131.90625 C 21.416058 130.72292 21.676526 129.64314 22 128.65625 C 22.323474 127.66936 22.715258 126.78668 23.1875 125.96875 C 23.659742 125.15082 24.20014 124.3952 24.8125 123.71875 C 25.42397 123.04329 26.081297 122.47039 26.78125 121.96875 C 27.481203 121.46711 28.233063 121.04988 29.0625 120.71875 C 29.891937 120.38762 30.812578 120.13267 31.8125 119.96875 C 32.812422 119.80483 33.882342 119.71876 35.09375 119.71875 C 37.02127 119.71877 38.445506 119.97457 39.5625 120.4375 C 40.679494 120.90043 41.489245 121.57051 42.21875 122.5 C 42.94508 123.42552 43.619087 124.7976 44.09375 126.625 C 44.568413 128.4524 44.84373 130.7351 44.84375 133.5625 L 44.84375 173.40625 L 44.84375 178.40625 L 49.84375 178.40625 L 60.78125 178.40625 L 65.78125 178.40625 L 65.78125 173.40625 L 65.78125 133.21875 C 65.78123 130.74391 65.64862 128.38043 65.375 126.125 C 65.10138 123.86957 64.695451 121.73628 64.125 119.71875 C 63.554549 117.70122 62.828011 115.7924 61.9375 114.03125 C 61.046989 112.2701 59.983802 110.64254 58.75 109.15625 C 58.74445 109.14957 58.75555 109.13168 58.75 109.125 L 58.71875 109.125 C 57.48342 107.63365 56.10292 106.33626 54.5625 105.21875 C 53.02208 104.10124 51.328829 103.18185 49.53125 102.4375 C 47.733671 101.69315 45.819307 101.12185 43.8125 100.75 C 41.805693 100.37815 39.699353 100.18752 37.53125 100.1875 C 34.85547 100.18753 32.284465 100.49116 29.8125 101.09375 C 28.576518 101.39504 27.357193 101.76504 26.1875 102.21875 C 25.017807 102.67246 23.87443 103.20519 22.78125 103.8125 L 22.75 103.8125 C 22.11756 104.16781 21.60401 104.71923 21 105.125 L 21 101.8125 L 16 101.8125 L 8.78125 101.8125 C 5.941473 112.75677 4.28125 124.16739 4.28125 136 C 4.28125 150.82205 6.710131 165.05043 11.09375 178.40625 z "
       id="path2995"
       transform="translate(236.86328,396.36218)" />
    <path
       style="color:#000000;fill:#ff3610;fill-opacity:1;fill-rule:nonzero;stroke:none;stroke-width:6.4000001;marker:none;visibility:visible;display:inline;overflow:visible;enable-background:accumulate"
       d="M 140.28125 0 C 77.003127 0 23.967741 43.284986 8.78125 101.8125 L 16 101.8125 L 21 101.8125 L 21 105.125 C 21.60401 104.71923 22.11756 104.16781 22.75 103.8125 L 22.78125 103.8125 C 23.87443 103.20519 25.017807 102.67246 26.1875 102.21875 C 27.357193 101.76504 28.576518 101.39504 29.8125 101.09375 C 32.284465 100.49116 34.85547 100.18753 37.53125 100.1875 C 39.699353 100.18752 41.805693 100.37815 43.8125 100.75 C 45.819307 101.12185 47.733671 101.69315 49.53125 102.4375 C 51.328829 103.18185 53.02208 104.10124 54.5625 105.21875 C 56.10292 106.33626 57.48342 107.63365 58.71875 109.125 L 58.75 109.125 C 58.75555 109.13168 58.74445 109.14957 58.75 109.15625 C 59.983802 110.64254 61.046989 112.2701 61.9375 114.03125 C 62.828011 115.7924 63.554549 117.70122 64.125 119.71875 C 64.695451 121.73628 65.10138 123.86957 65.375 126.125 C 65.64862 128.38043 65.78123 130.74391 65.78125 133.21875 L 65.78125 173.40625 L 65.78125 178.40625 L 60.78125 178.40625 L 49.84375 178.40625 L 44.84375 178.40625 L 44.84375 173.40625 L 44.84375 133.5625 C 44.84373 130.7351 44.568413 128.4524 44.09375 126.625 C 43.619087 124.7976 42.94508 123.42552 42.21875 122.5 C 41.489245 121.57051 40.679494 120.90043 39.5625 120.4375 C 38.445506 119.97457 37.02127 119.71877 35.09375 119.71875 C 33.882342 119.71876 32.812422 119.80483 31.8125 119.96875 C 30.812578 120.13267 29.891937 120.38762 29.0625 120.71875 C 28.233063 121.04988 27.481203 121.46711 26.78125 121.96875 C 26.081297 122.47039 25.42397 123.04329 24.8125 123.71875 C 24.20014 124.3952 23.659742 125.15082 23.1875 125.96875 C 22.715258 126.78668 22.323474 127.66936 22 128.65625 C 21.676526 129.64314 21.416058 130.72292 21.25 131.90625 C 21.083942 133.08958 20.999993 134.37402 21 135.78125 L 21 173.40625 L 21 178.40625 L 16 178.40625 L 11.09375 178.40625 C 28.924112 232.73103 79.992575 272 140.28125 272 C 215.39198 272 276.28125 211.11073 276.28125 136 C 276.28125 60.889271 215.39198 0 140.28125 0 z "
       id="path5921"
       transform="translate(236.86328,396.36218)" />
    <path
       id="path3575"
       style="font-size:121.81185913px;font-style:normal;font-variant:normal;font-weight:normal;font-stretch:normal;text-indent:0;text-align:start;text-decoration:none;line-height:125%;letter-spacing:0px;word-spacing:0px;text-transform:none;direction:ltr;block-progression:tb;writing-mode:lr-tb;text-anchor:start;baseline-shift:baseline;color:#000000;fill:#ffffff;fill-opacity:1;fill-rule:nonzero;stroke:none;stroke-width:10;marker:none;visibility:visible;display:inline;overflow:visible;enable-background:accumulate;font-family:Sans;-inkscape-font-specification:Sans"
       d="M 349.875,541.3125 355.59375,541.3125 C 355.21387,546.20145 353.82938,549.88407 351.4375,552.6875 348.67669,555.92841 345.54652,557.34376 340.65625,557.34375 337.13408,557.34376 335.04561,556.56444 333.53125,555.25 333.51946,555.23932 333.51168,555.22944 333.5,555.21875 332.02535,553.86959 331.37499,552.46301 331.375,549.6875 331.37498,545.97562 332.16922,544.74776 334.0625,543.625 335.8417,542.5699 341.41366,541.31253 349.875,541.3125 z M 342.96875,496.5625 C 339.04949,496.56257 335.05724,497.02499 331,497.875 L 331,497.84375 C 330.97819,497.84811 330.95931,497.87061 330.9375,497.875 326.88054,498.69075 322.71903,499.90218 318.5,501.53125 L 315.3125,502.78125 315.3125,506.21875 315.3125,516.3125 315.3125,524.75 322.71875,520.71875 C 325.69031,519.09151 328.74248,517.87008 331.9375,517.0625 335.14089,516.25289 338.43635,515.8438 341.84375,515.84375 347.05859,515.8438 350.38236,517.0315 352.53125,518.84375 L 352.5625,518.84375 352.59375,518.875 C 353.8585,519.91394 354.62135,521.19911 355.125,522.75 L 345.40625,522.75 C 334.81606,522.75004 326.20611,524.70668 319.90625,529.46875 313.65188,534.23403 310.43749,541.80087 310.4375,550.40625 310.43749,557.86904 312.96088,564.59673 317.96875,569.40625 L 318,569.4375 318.03125,569.4375 C 323.09718,574.20545 329.99955,576.53125 337.75,576.53125 343.73092,576.53125 349.09035,575.47245 353.6875,573.125 L 353.71875,573.09375 C 354.4219,572.72721 355.08396,572.27139 355.75,571.84375 L 355.75,574.78125 360.75,574.78125 371.71875,574.78125 376.71875,574.78125 376.71875,569.78125 376.71875,531.78125 C 376.71867,520.84908 374.11196,511.84582 368.1875,505.625 362.26678,499.4084 353.4684,496.56257 342.96875,496.5625 z" />
    <path
       id="path3577"
       style="font-size:121.81185913px;font-style:normal;font-variant:normal;font-weight:normal;font-stretch:normal;text-indent:0;text-align:start;text-decoration:none;line-height:125%;letter-spacing:0px;word-spacing:0px;text-transform:none;direction:ltr;block-progression:tb;writing-mode:lr-tb;text-anchor:start;baseline-shift:baseline;color:#000000;fill:#ffffff;fill-opacity:1;fill-rule:nonzero;stroke:none;stroke-width:10;marker:none;visibility:visible;display:inline;overflow:visible;enable-background:accumulate;font-family:Sans;-inkscape-font-specification:Sans"
       d="M 424.59375,541.3125 430.3125,541.3125 C 429.93262,546.20145 428.51688,549.88407 426.125,552.6875 423.36419,555.92841 420.26527,557.34376 415.375,557.34375 411.86789,557.34376 409.76295,556.55452 408.25,555.25 406.75056,553.89115 406.09374,552.48499 406.09375,549.6875 406.09373,545.97562 406.85672,544.74776 408.75,543.625 410.5292,542.5699 416.13241,541.31253 424.59375,541.3125 z M 417.6875,496.5625 C 413.75834,496.56257 409.75529,497.02074 405.6875,497.875 L 405.6875,497.84375 C 401.60958,498.6594 397.46047,499.89343 393.21875,501.53125 L 390.03125,502.78125 390.03125,506.21875 390.03125,516.3125 390.03125,524.75 397.40625,520.71875 C 400.37781,519.09151 403.46123,517.87008 406.65625,517.0625 409.85964,516.25289 413.1551,515.8438 416.5625,515.84375 421.77735,515.8438 425.10109,517.03149 427.25,518.84375 L 427.28125,518.84375 427.28125,518.875 C 428.5458,519.91377 429.30882,521.19947 429.8125,522.75 L 420.125,522.75 C 409.5348,522.75004 400.92486,524.70668 394.625,529.46875 L 394.59375,529.46875 C 388.33938,534.23403 385.15624,541.80087 385.15625,550.40625 385.15624,557.86904 387.67963,564.59673 392.6875,569.40625 L 392.71875,569.4375 C 397.78468,574.20545 404.68705,576.53125 412.4375,576.53125 418.41841,576.53125 423.8091,575.47245 428.40625,573.125 L 428.40625,573.09375 428.4375,573.09375 C 429.1455,572.72468 429.79838,572.27475 430.46875,571.84375 L 430.46875,574.78125 435.46875,574.78125 446.40625,574.78125 451.40625,574.78125 451.40625,569.78125 451.40625,531.78125 C 451.40619,520.84907 448.8307,511.84582 442.90625,505.625 436.98552,499.40839 428.18715,496.56257 417.6875,496.5625 z" />
    <path
       style="font-size:121.81185913px;font-style:normal;font-variant:normal;font-weight:normal;font-stretch:normal;text-indent:0;text-align:start;text-decoration:none;line-height:125%;letter-spacing:0px;word-spacing:0px;text-transform:none;direction:ltr;block-progression:tb;writing-mode:lr-tb;text-anchor:start;baseline-shift:baseline;color:#000000;fill:#ffffff;fill-opacity:1;fill-rule:nonzero;stroke:none;stroke-width:10;marker:none;visibility:visible;display:inline;overflow:visible;enable-background:accumulate;font-family:Sans;-inkscape-font-specification:Sans"
       d="M 463.84375,479.25 463.84375,484.25 463.84375,498.1875 460.8125,498.1875 455.8125,498.1875 455.8125,503.1875 455.8125,511.6875 455.8125,516.6875 460.8125,516.6875 463.84375,516.6875 463.84375,547.84375 C 463.84374,556.8136 465.3569,563.94703 470.125,568.65625 L 470.15625,568.65625 470.15625,568.6875 C 474.93636,573.3496 482.06088,574.78125 491.125,574.78125 L 502.375,574.78125 507.375,574.78125 507.375,569.78125 507.375,560.625 507.375,555.625 502.375,555.625 491.125,555.625 C 487.18048,555.62501 485.45731,554.58912 485.65625,554.8125 486.11074,555.24134 484.84373,552.7195 484.84375,547.84375 L 484.84375,516.6875 502.375,516.6875 507.375,516.6875 507.375,511.6875 507.375,503.1875 507.375,498.1875 502.375,498.1875 484.84375,498.1875 484.84328,484.25 484.84328,479.25018 479.84375,479.25018 468.84375,479.25 z"
       id="path3614"
       inkscape:connector-curvature="0"
       sodipodi:nodetypes="ccccccccccscccsccccccscsccccccccccccc" />
  </g>
</svg>
