<svg height="272" width="276.27344" xmlns="http://www.w3.org/2000/svg"><path d="m140.28125 0c-63.278123 0-116.313509 43.284986-131.5 101.8125h7.21875 5v3.3125c.60401-.40577 1.11756-.95719 1.75-1.3125h.03125c1.09318-.60731 2.236557-1.14004 3.40625-1.59375s2.389018-.82371 3.625-1.125c2.471965-.60259 5.04297-.90622 7.71875-.90625 2.168103.00002 4.274443.19065 6.28125.5625s3.921171.94315 5.71875 1.6875 3.49083 1.66374 5.03125 2.78125 2.92092 2.4149 4.15625 3.90625h.03125c.00555.00668-.00555.02457 0 .03125 1.233802 1.48629 2.296989 3.11385 3.1875 4.875s1.617049 3.66997 2.1875 5.6875.97638 4.15082 1.25 6.40625.40623 4.61891.40625 7.09375v40.1875 5h-5-10.9375-5v-5-39.84375c-.00002-2.8274-.275337-5.1101-.75-6.9375s-1.14867-3.19948-1.875-4.125c-.729505-.92949-1.539256-1.59957-2.65625-2.0625s-2.54123-.71873-4.46875-.71875c-1.211408.00001-2.281328.08608-3.28125.25s-1.920563.41887-2.75.75-1.581297.74836-2.28125 1.25-1.35728 1.07454-1.96875 1.75c-.61236.67645-1.152758 1.43207-1.625 2.25s-.864026 1.70061-1.1875 2.6875-.583942 2.06667-.75 3.25-.250007 2.46777-.25 3.875v37.625 5h-5-4.90625c17.830362 54.32478 68.898825 93.59375 129.1875 93.59375 60.29671 0 111.41832-39.24404 129.24219-93.58008h-4.01172-11.25c-9.06412 0-16.18864-1.43165-20.96875-6.09375v-.03125h-.03125c-4.7681-4.70922-6.28126-11.84265-6.28125-20.8125v-31.15625h-3.03125-5v-5-8.5-5h5 3.03125v-13.937498-5h5 11 5v5 13.937498h17.53125 5v5 8.5 5h-5-17.53125v31.15625c-.00002 4.19367.93124 6.63172.9043 6.96289.39125.11804 2.11253.81837 5.37695.81836h11.25 5v5 9.15625 1.85938c3.74617-12.43716 5.76953-25.62103 5.76953-39.2793 0-75.110729-60.88927-136-136-136zm130.23047 175.2793c-.317 1.05242-.64664 2.09912-.98828 3.14062h.98828zm-164.40625-75.07813c10.49965.00007 19.29803 2.8459 25.21875 9.0625 5.92446 6.22082 8.53117 15.22408 8.53125 26.15625v38 5h-5-10.96875-5v-2.9375c-.66604.42764-1.3281.88346-2.03125 1.25l-.03125.03125c-4.59715 2.34745-9.95658 3.40625-15.9375 3.40625-7.750451 0-14.652821-2.3258-19.718751-7.09375h-.03125l-.03125-.03125c-5.00787-4.80952-7.53126-11.53721-7.53125-19-.00001-8.60538 3.21438-16.17222 9.46875-20.9375 6.29986-4.76207 14.90981-6.71871 25.500001-6.71875h9.71875c-.50365-1.55089-1.2665-2.83606-2.53125-3.875l-.03125-.03125h-.03125c-2.14889-1.81225-5.47266-2.99995-10.6875-3-3.4074.00005-6.702861.40914-9.906251 1.21875-3.19502.80758-6.24719 2.02901-9.21875 3.65625l-7.40625 4.03125v-8.4375-10.09375-3.4375l3.1875-1.25c4.21903-1.62907 8.38054-2.8405 12.4375-3.65625.02181-.00439.04069-.02689.0625-.03125v.03125c4.05724-.85001 8.049491-1.31243 11.968751-1.3125zm74.71875 0c10.49965.00007 19.29802 2.84589 25.21875 9.0625 5.92445 6.22082 8.49994 15.22407 8.5 26.15625v38 5h-5-10.9375-5v-2.9375c-.67037.431-1.32325.88093-2.03125 1.25h-.03125v.03125c-4.59715 2.34745-9.98784 3.40625-15.96875 3.40625-7.75045 0-14.65282-2.3258-19.71875-7.09375l-.03125-.03125c-5.00787-4.80952-7.53126-11.53721-7.53125-19-.00001-8.60538 3.18313-16.17222 9.4375-20.9375h.03125c6.29986-4.76207 14.9098-6.71871 25.5-6.71875h9.6875c-.50368-1.55053-1.2667-2.83623-2.53125-3.875v-.03125h-.03125c-2.14891-1.81226-5.47265-2.99995-10.6875-3-3.4074.00005-6.70286.40914-9.90625 1.21875-3.19502.80758-6.27844 2.02901-9.25 3.65625l-7.375 4.03125v-8.4375-10.09375-3.4375l3.1875-1.25c4.24172-1.63782 8.39083-2.87185 12.46875-3.6875v.03125c4.06779-.85426 8.07084-1.31243 12-1.3125zm-67.8125 44.75c-8.46134.00003-14.033301 1.2574-15.812501 2.3125-1.89328 1.12276-2.68752 2.35062-2.6875 6.0625-.00001 2.77551.65035 4.18209 2.125 5.53125.01168.01069.01946.02057.03125.03125 1.51436 1.31444 3.602831 2.09376 7.125001 2.09375 4.89027.00001 8.02044-1.41534 10.78125-4.65625 2.39188-2.80343 3.77637-6.48605 4.15625-11.375zm74.71875 0c-8.46134.00003-14.06455 1.2574-15.84375 2.3125-1.89328 1.12276-2.65627 2.35062-2.65625 6.0625-.00001 2.79749.65681 4.20365 2.15625 5.5625 1.51295 1.30452 3.61789 2.09376 7.125 2.09375 4.89027.00001 7.98919-1.41534 10.75-4.65625 2.39188-2.80343 3.80762-6.48605 4.1875-11.375z" fill="#fff"/></svg>