<svg height="1536" width="1536" xmlns="http://www.w3.org/2000/svg"><ellipse cx="768.28583" cy="770.16949" rx="723.21613" ry="723.21954" style="fill:#fff;stroke:#fff;stroke-width:85.677757;stroke-linecap:round;stroke-linejoin:round;stroke-dashoffset:3.2759"/><g transform="matrix(.84364165 0 0 .84364165 106.21628 136.09958)"><path d="m242.55397 977.55053v313.34897h313.35158l626.70055-626.70056-313.35689-313.35424zm273.42643 216.93037-80.59955.01v-96.4188h-96.4108v-80.6073l68.54524-68.54527 177.01037 177.00777-68.54526 68.5532zm377.39328-715.57918c11.03328 0 16.55785 5.52721 16.55785 16.56843 0 5.02856-1.75176 9.28939-5.27385 12.8115l-408.26389 408.26123c-3.51683 3.50369-7.78821 5.26334-12.80621 5.26334-11.03859 0-16.5658-5.53507-16.5658-16.5657 0-5.02864 1.75711-9.28948 5.26866-12.81149l408.26651-408.25603c3.50624-3.51417 7.77766-5.27128 12.81673-5.27128z"/><path d="m1355.8464 354.59634-177.0053-176.25316c-19.0799-19.07216-41.9301-28.62011-68.5477-28.62011-27.1295 0-49.7105 9.54795-67.7855 28.62011l-125.03877 124.2869 313.35677 313.34894 125.0389-125.03353c18.5789-18.58144 27.8629-41.17833 27.8629-67.79597-.01-26.10583-9.2921-48.96128-27.8813-68.55318z"/></g></svg>