<?xml version="1.0" encoding="UTF-8" standalone="no"?>
<svg
   xmlns:dc="http://purl.org/dc/elements/1.1/"
   xmlns:cc="http://creativecommons.org/ns#"
   xmlns:rdf="http://www.w3.org/1999/02/22-rdf-syntax-ns#"
   xmlns:svg="http://www.w3.org/2000/svg"
   xmlns="http://www.w3.org/2000/svg"
   xmlns:sodipodi="http://sodipodi.sourceforge.net/DTD/sodipodi-0.dtd"
   xmlns:inkscape="http://www.inkscape.org/namespaces/inkscape"
   id="svg2"
   version="1.1"
   inkscape:version="0.91 r13725"
   sodipodi:docname="pencil-square.svg"
   width="1536"
   height="1536">
  <metadata
     id="metadata10">
    <rdf:RDF>
      <cc:Work
         rdf:about="">
        <dc:format>image/svg+xml</dc:format>
        <dc:type
           rdf:resource="http://purl.org/dc/dcmitype/StillImage" />
        <dc:title></dc:title>
      </cc:Work>
    </rdf:RDF>
  </metadata>
  <defs
     id="defs8" />
  <sodipodi:namedview
     pagecolor="#ffffff"
     bordercolor="#666666"
     borderopacity="1"
     objecttolerance="10"
     gridtolerance="10"
     guidetolerance="10"
     inkscape:pageopacity="0"
     inkscape:pageshadow="2"
     inkscape:window-width="1385"
     inkscape:window-height="962"
     id="namedview6"
     showgrid="false"
     fit-margin-top="0"
     fit-margin-left="0"
     fit-margin-right="0"
     fit-margin-bottom="0"
     inkscape:zoom="0.44941406"
     inkscape:cx="851.04302"
     inkscape:cy="645.96176"
     inkscape:window-x="0"
     inkscape:window-y="0"
     inkscape:window-maximized="0"
     inkscape:current-layer="svg2" />
  <path
     d="m 404,980 152,152 -52,52 -56,0 0,-96 -96,0 0,-56 z M 818,590 q 14,13 -3,30 L 524,911 q -17,17 -30,3 -14,-13 3,-30 L 788,593 q 17,-17 30,-3 z M 544,1280 1088,736 800,448 256,992 l 0,288 288,0 z m 608,-608 92,-92 q 28,-28 28,-68 0,-40 -28,-68 L 1092,292 q -28,-28 -68,-28 -40,0 -68,28 l -92,92 z m 384,-384 0,960 q 0,119 -84.5,203.5 Q 1367,1536 1248,1536 l -960,0 Q 169,1536 84.5,1451.5 0,1367 0,1248 L 0,288 Q 0,169 84.5,84.5 169,0 288,0 l 960,0 Q 1367,0 1451.5,84.5 1536,169 1536,288 Z"
     id="path4"
     inkscape:connector-curvature="0"
     style="fill:#ffffff;fill-opacity:1;stroke:none" />
</svg>
