<svg enable-background="new 0 0 438.533 438.533" height="438.533" viewBox="0 0 438.533 438.533" width="438.533" xmlns="http://www.w3.org/2000/svg"><rect height="370.3298" ry="49.92741" style="fill:none;stroke:#fff;stroke-width:14.285204;stroke-linecap:round;stroke-linejoin:round;stroke-dashoffset:3.2759" width="408.70123" x="15.107812" y="34.101593"/><g fill="#fff"><path d="m305.97011 213.89032q0-2.18403-3.67718-3.78009-3.67715-1.59604-8.70904-1.59604h-148.63479q-5.03191 0-8.70904 1.59604-3.67718 1.59606-3.67718 3.78009v10.75232q0 2.18405 3.67718 3.78011 3.67713 1.59604 8.70904 1.59604h148.63479q5.03189 0 8.70904-1.59604 3.67718-1.59606 3.67718-3.78011z"/><path d="m224.64266 305.9701q2.18403 0 3.78009-3.67718 1.59604-3.67715 1.59604-8.70904v-148.63479q0-5.03191-1.59604-8.70904-1.59606-3.67718-3.78009-3.67718h-10.75232q-2.18405 0-3.78011 3.67718-1.59604 3.67713-1.59604 8.70904v148.63479q0 5.03189 1.59604 8.70904 1.59606 3.67718 3.78011 3.67718z"/></g></svg>