<svg height="1536" width="1536" xmlns="http://www.w3.org/2000/svg"><g fill="#fff"><path d="m320 733.01907q0-14.21101 19-24.59597 19-10.38497 45-10.38497h768q26 0 45 10.38496 19 10.38496 19 24.59597v69.96187q0 14.21101-19 24.59598-19 10.38496-45 10.38496h-768q-26 0-45-10.38496-19-10.38496-19-24.59598v-69.96187z"/><path d="m733.01907 1216q-14.21101 0-24.59597-19-10.38497-19-10.38497-45v-767.99999q0-26 10.38496-45 10.38496-19 24.59597-19h69.96187q14.21101 0 24.59598 19 10.38496 19 10.38496 45v767.99999q0 26-10.38496 45-10.38496 19-24.59598 19h-69.96187z"/></g></svg>