<?xml version="1.0" encoding="UTF-8" standalone="no"?>
<svg
   xmlns:dc="http://purl.org/dc/elements/1.1/"
   xmlns:cc="http://creativecommons.org/ns#"
   xmlns:rdf="http://www.w3.org/1999/02/22-rdf-syntax-ns#"
   xmlns:svg="http://www.w3.org/2000/svg"
   xmlns="http://www.w3.org/2000/svg"
   xmlns:sodipodi="http://sodipodi.sourceforge.net/DTD/sodipodi-0.dtd"
   xmlns:inkscape="http://www.inkscape.org/namespaces/inkscape"
   id="svg2"
   version="1.1"
   inkscape:version="0.91 r13725"
   sodipodi:docname="plus-circle.svg"
   width="1536"
   height="1536">
  <metadata
     id="metadata10">
    <rdf:RDF>
      <cc:Work
         rdf:about="">
        <dc:format>image/svg+xml</dc:format>
        <dc:type
           rdf:resource="http://purl.org/dc/dcmitype/StillImage" />
        <dc:title />
      </cc:Work>
    </rdf:RDF>
  </metadata>
  <defs
     id="defs8" />
  <sodipodi:namedview
     pagecolor="#ffffff"
     bordercolor="#666666"
     borderopacity="1"
     objecttolerance="10"
     gridtolerance="10"
     guidetolerance="10"
     inkscape:pageopacity="0"
     inkscape:pageshadow="2"
     inkscape:window-width="1421"
     inkscape:window-height="927"
     id="namedview6"
     showgrid="false"
     fit-margin-top="0"
     fit-margin-left="0"
     fit-margin-right="0"
     fit-margin-bottom="0"
     inkscape:zoom="0.24983578"
     inkscape:cx="1084.0152"
     inkscape:cy="557.47415"
     inkscape:window-x="28"
     inkscape:window-y="89"
     inkscape:window-maximized="0"
     inkscape:current-layer="svg2" />
  <circle
     style="opacity:1;fill:#ffffff;fill-opacity:1;fill-rule:nonzero;stroke:#000000;stroke-width:49.2240715;stroke-linecap:round;stroke-linejoin:round;stroke-miterlimit:4;stroke-dasharray:none;stroke-dashoffset:3.27590013;stroke-opacity:0"
     id="path4163"
     cx="769.36877"
     cy="769.58002"
     r="741.44299" />
  <path
     style="fill:#333333;fill-opacity:1"
     d="m 320,733.01907 q 0,-14.21101 19,-24.59597 19,-10.38497 45,-10.38497 l 768,0 q 26,0 45,10.38496 19,10.38496 19,24.59597 l 0,69.96187 q 0,14.21101 -19,24.59598 -19,10.38496 -45,10.38496 l -768,0 q -26,0 -45,-10.38496 -19,-10.38496 -19,-24.59598 l 0,-69.96187 z"
     id="path4"
     inkscape:connector-curvature="0" />
  <path
     style="fill:#333333;fill-opacity:1"
     d="m 802.98092,319.99999 q 14.21101,0 24.59598,19 10.38497,19 10.38497,45 l 0,768.00001 q 0,26 -10.38497,45 -10.38495,19 -24.59596,19 l -69.96187,0 q -14.21101,0 -24.59599,-19 -10.38495,-19 -10.38495,-45 l 0,-768.00001 q 0,-26 10.38495,-45 10.38497,-19 24.59599,-19 l 69.96187,0 z"
     id="path4-6"
     inkscape:connector-curvature="0" />
</svg>
