<svg height="1536" width="1536" xmlns="http://www.w3.org/2000/svg"><circle cx="771.36877" cy="769.58008" fill="#fff" r="741.44299"/><path d="m320 733.01907q0-14.21101 19-24.59597 19-10.38497 45-10.38497h768q26 0 45 10.38496 19 10.38496 19 24.59597v69.96187q0 14.21101-19 24.59598-19 10.38496-45 10.38496h-768q-26 0-45-10.38496-19-10.38496-19-24.59598v-69.96187z"/><path d="m802.98092 319.99999q14.21101 0 24.59598 19 10.38497 19 10.38497 45v768.00001q0 26-10.38497 45-10.38495 19-24.59596 19h-69.96187q-14.21101 0-24.59599-19-10.38495-19-10.38495-45v-768.00001q0-26 10.38495-45 10.38497-19 24.59599-19h69.96187z"/></svg>