<?xml version="1.0" encoding="UTF-8" standalone="no"?>
<!-- Generator: Adobe Illustrator 16.0.0, SVG Export Plug-In . SVG Version: 6.00 Build 0)  -->

<svg
   xmlns:dc="http://purl.org/dc/elements/1.1/"
   xmlns:cc="http://creativecommons.org/ns#"
   xmlns:rdf="http://www.w3.org/1999/02/22-rdf-syntax-ns#"
   xmlns:svg="http://www.w3.org/2000/svg"
   xmlns="http://www.w3.org/2000/svg"
   xmlns:sodipodi="http://sodipodi.sourceforge.net/DTD/sodipodi-0.dtd"
   xmlns:inkscape="http://www.inkscape.org/namespaces/inkscape"
   version="1.1"
   id="Capa_1"
   x="0px"
   y="0px"
   width="438.533px"
   height="438.533px"
   viewBox="0 0 438.533 438.533"
   style="enable-background:new 0 0 438.533 438.533;"
   xml:space="preserve"
   inkscape:version="0.91 r13725"
   sodipodi:docname="plus-square.svg"><metadata
     id="metadata45"><rdf:RDF><cc:Work
         rdf:about=""><dc:format>image/svg+xml</dc:format><dc:type
           rdf:resource="http://purl.org/dc/dcmitype/StillImage" /><dc:title></dc:title></cc:Work></rdf:RDF></metadata><defs
     id="defs43" /><sodipodi:namedview
     pagecolor="#ffffff"
     bordercolor="#666666"
     borderopacity="1"
     objecttolerance="10"
     gridtolerance="10"
     guidetolerance="10"
     inkscape:pageopacity="0"
     inkscape:pageshadow="2"
     inkscape:window-width="1520"
     inkscape:window-height="931"
     id="namedview41"
     showgrid="false"
     inkscape:zoom="0.38053511"
     inkscape:cx="-249.33888"
     inkscape:cy="37.635717"
     inkscape:window-x="0"
     inkscape:window-y="23"
     inkscape:window-maximized="0"
     inkscape:current-layer="Capa_1" /><g
     id="g11" /><g
     id="g13" /><g
     id="g15" /><g
     id="g17" /><g
     id="g19" /><g
     id="g21" /><g
     id="g23" /><g
     id="g25" /><g
     id="g27" /><g
     id="g29" /><g
     id="g31" /><g
     id="g33" /><g
     id="g35" /><g
     id="g37" /><g
     id="g39" /><rect
     style="opacity:1;fill:none;fill-opacity:1;fill-rule:nonzero;stroke:#ffffff;stroke-width:14.28520393;stroke-linecap:round;stroke-linejoin:round;stroke-miterlimit:4;stroke-dasharray:none;stroke-dashoffset:3.27590013;stroke-opacity:1"
     id="rect4139"
     width="408.70123"
     height="370.3298"
     x="15.107812"
     y="34.101593"
     ry="49.92741" /><path
     style="fill:#ffffff;fill-opacity:1"
     d="m 305.97011,213.89032 q 0,-2.18403 -3.67718,-3.78009 -3.67715,-1.59604 -8.70904,-1.59604 l -148.63479,0 q -5.03191,0 -8.70904,1.59604 -3.67718,1.59606 -3.67718,3.78009 l 0,10.75232 q 0,2.18405 3.67718,3.78011 3.67713,1.59604 8.70904,1.59604 l 148.63479,0 q 5.03189,0 8.70904,-1.59604 3.67718,-1.59606 3.67718,-3.78011 l 0,-10.75232 z"
     id="path4-6-8-0"
     inkscape:connector-curvature="0" /><path
     style="fill:#ffffff;fill-opacity:1"
     d="m 224.64266,305.9701 q 2.18403,0 3.78009,-3.67718 1.59604,-3.67715 1.59604,-8.70904 l 0,-148.63479 q 0,-5.03191 -1.59604,-8.70904 -1.59606,-3.67718 -3.78009,-3.67718 l -10.75232,0 q -2.18405,0 -3.78011,3.67718 -1.59604,3.67713 -1.59604,8.70904 l 0,148.63479 q 0,5.03189 1.59604,8.70904 1.59606,3.67718 3.78011,3.67718 l 10.75232,0 z"
     id="path4-6-8-0-7"
     inkscape:connector-curvature="0" /></svg>