<?xml version="1.0" encoding="UTF-8" standalone="no"?>
<!-- Generator: Adobe Illustrator 16.0.0, SVG Export Plug-In . SVG Version: 6.00 Build 0)  -->

<svg
   xmlns:dc="http://purl.org/dc/elements/1.1/"
   xmlns:cc="http://creativecommons.org/ns#"
   xmlns:rdf="http://www.w3.org/1999/02/22-rdf-syntax-ns#"
   xmlns:svg="http://www.w3.org/2000/svg"
   xmlns="http://www.w3.org/2000/svg"
   xmlns:sodipodi="http://sodipodi.sourceforge.net/DTD/sodipodi-0.dtd"
   xmlns:inkscape="http://www.inkscape.org/namespaces/inkscape"
   version="1.1"
   id="Capa_1"
   x="0px"
   y="0px"
   width="475.084px"
   height="475.084px"
   viewBox="0 0 475.084 475.084"
   style="enable-background:new 0 0 475.084 475.084;"
   xml:space="preserve"
   inkscape:version="0.91 r13725"
   sodipodi:docname="search.svg"><metadata
     id="metadata41"><rdf:RDF><cc:Work
         rdf:about=""><dc:format>image/svg+xml</dc:format><dc:type
           rdf:resource="http://purl.org/dc/dcmitype/StillImage" /></cc:Work></rdf:RDF></metadata><defs
     id="defs39" /><sodipodi:namedview
     pagecolor="#ffffff"
     bordercolor="#666666"
     borderopacity="1"
     objecttolerance="10"
     gridtolerance="10"
     guidetolerance="10"
     inkscape:pageopacity="0"
     inkscape:pageshadow="2"
     inkscape:window-width="1565"
     inkscape:window-height="937"
     id="namedview37"
     showgrid="false"
     inkscape:zoom="0.99350848"
     inkscape:cx="256.52817"
     inkscape:cy="204.18841"
     inkscape:window-x="0"
     inkscape:window-y="0"
     inkscape:window-maximized="0"
     inkscape:current-layer="Capa_1" /><g
     id="g3"
     style="fill:#ffffff;fill-opacity:1"><path
       d="m 464.524,412.846 -97.929,-97.925 c 23.6,-34.068 35.406,-72.047 35.406,-113.917 0,-27.218 -5.284,-53.249 -15.852,-78.087 C 375.588,98.075 361.311,76.663 343.324,58.676 325.337,40.689 303.928,26.412 279.091,15.85 254.246,5.285 228.217,0.003 200.999,0.003 173.783,0.003 147.752,5.285 122.914,15.85 98.072,26.412 76.66,40.689 58.673,58.676 40.684,76.663 26.409,98.079 15.846,122.917 5.282,147.758 0,173.786 0,201.004 c 0,27.216 5.282,53.238 15.846,78.083 10.562,24.838 24.838,46.247 42.827,64.234 17.987,17.993 39.403,32.264 64.241,42.832 24.841,10.563 50.869,15.844 78.085,15.844 41.879,0 79.852,-11.807 113.922,-35.405 l 97.929,97.641 c 6.852,7.231 15.406,10.849 25.693,10.849 9.897,0 18.467,-3.617 25.694,-10.849 7.23,-7.23 10.848,-15.796 10.848,-25.693 0.003,-10.082 -3.518,-18.651 -10.561,-25.694 z M 314.52634,304.46907 c -25.029,25.031 -72.26835,47.27228 -107.47508,46.60781 C 153.72065,350.07035 134.76791,340.65416 97.56712,312.52134 71.480458,292.79349 52.975389,245.29593 49.955788,206.0568 47.254,170.9476 61.135272,130.32303 89.514853,100.5988 126.2476,62.125626 157.79241,53.900469 200.00553,51.980924 c 44.2698,-2.013068 84.45514,18.558698 109.48814,43.585196 25.033,25.0265 43.01066,68.26125 41.57414,103.44494 -2.01307,49.30448 -11.51247,80.42701 -36.54147,105.45801 z"
       id="path5"
       style="fill:#ffffff;fill-opacity:1"
       inkscape:connector-curvature="0"
       sodipodi:nodetypes="ccscscsccsscccsccscccsssssssss" /></g><g
     id="g7" /><g
     id="g9" /><g
     id="g11" /><g
     id="g13" /><g
     id="g15" /><g
     id="g17" /><g
     id="g19" /><g
     id="g21" /><g
     id="g23" /><g
     id="g25" /><g
     id="g27" /><g
     id="g29" /><g
     id="g31" /><g
     id="g33" /><g
     id="g35" /></svg>