<svg enable-background="new 0 0 475.084 475.084" height="475.084" viewBox="0 0 475.084 475.084" width="475.084" xmlns="http://www.w3.org/2000/svg"><path d="m464.524 412.846-97.929-97.925c23.6-34.068 35.406-72.047 35.406-113.917 0-27.218-5.284-53.249-15.852-78.087-10.561-24.842-24.838-46.254-42.825-64.241s-39.396-32.264-64.233-42.826c-24.845-10.565-50.874-15.847-78.092-15.847-27.216 0-53.247 5.282-78.085 15.847-24.842 10.562-46.254 24.839-64.241 42.826-17.989 17.987-32.264 39.403-42.827 64.241-10.564 24.841-15.846 50.869-15.846 78.087 0 27.216 5.282 53.238 15.846 78.083 10.562 24.838 24.838 46.247 42.827 64.234 17.987 17.993 39.403 32.264 64.241 42.832 24.841 10.563 50.869 15.844 78.085 15.844 41.879 0 79.852-11.807 113.922-35.405l97.929 97.641c6.852 7.231 15.406 10.849 25.693 10.849 9.897 0 18.467-3.617 25.694-10.849 7.23-7.23 10.848-15.796 10.848-25.693.003-10.082-3.518-18.651-10.561-25.694zm-149.99766-108.37693c-25.029 25.031-72.26835 47.27228-107.47508 46.60781-53.33061-1.00653-72.28335-10.42272-109.48414-38.55554-26.086662-19.72785-44.591731-67.22541-47.611332-106.46454-2.701788-35.1092 11.179484-75.73377 39.559065-105.458 36.732747-38.473174 68.277557-46.698331 110.490677-48.617876 44.2698-2.013068 84.45514 18.558698 109.48814 43.585196 25.033 25.0265 43.01066 68.26125 41.57414 103.44494-2.01307 49.30448-11.51247 80.42701-36.54147 105.45801z" fill="#fff"/></svg>