<svg height="1536" width="1536" xmlns="http://www.w3.org/2000/svg"><path d="m1024 768c0-70.66667-25-131-75-181s-110.33333-75-181-75-131 25-181 75-75 110.33333-75 181 25 131 75 181 110.33333 75 181 75 131-25 181-75 75-110.33333 75-181zm512-109v222c0 8-2.6667 15.66667-8 23s-12 11.66667-20 13l-295.1317-10.75003c-12.6667 36-27.7061 64.29386-41.0394 88.96053 23.3333 33.3333 171.1711 120.1228 219.1711 178.7895 6.6667 8 10 16.3333 10 25s-3 16.3333-9 23c-18 24.6667-51 60.6667-99 108s-79.3333 71-94 71c-8 0-16.6667-3-26-9l-191.02635-218.1316c-29.3333 15.3333-65.7851 32.0789-97.11843 42.0789-10.66667 90.6667 38.81145 258.7194 30.14478 292.0527-4.66667 18.6667-16.66667 28-36 28h-222c-9.33333 0-17.5-2.8333-24.5-8.5s-10.83333-12.8333-11.5-21.5l20.9474-292.0922c-32.66667-10.6666-89.17984-47.4737-116.51317-61.4737l-163.43423 239.5659s-16.14838 9.3053-25 9c-9.09892-.3138-17.33882-4.0099-25-11-83.68091-76.3512-139-132-165-168-4.66667-6.6667-7-14.3333-7-23 0-8 2.66667-15.6667 8-23 70.10008-66.7062 152.54327-129.8742 219.2106-196.14478-18-33.33333-23.50877-58.17543-32.8421-90.8421l-305.3685 23.98688c-8.666667-1.33333-15.666667-5.5-21-12.5-5.3333333-7-8-14.83333-8-23.5v-222c0-8 2.6666667-15.66667 8-23 5.333333-7.33333 11.666667-11.66667 19-13l316.5264 41.34215c9.33333-30.66667 26.41228-75.60962 43.07895-106.27632-26.66667-38.00003-196.93868-139.06583-241.60535-193.06583-6.66667-8-10-16-10-24 0-6.6667 3-14.3333 9-23 17.33333-24 50.16667-59.8333 98.5-107.5s79.83333-71.5 94.5-71.5c8.66667 0 17.33333 3.3333 26 10l180.82898 239.5659c29.33333-15.3333 94.33774-44.3158 125.67107-54.3158-7.6886-86.5878-57.16672-268.9168-48.50005-302.2501 4.66667-18.6667 16.66667-28 36-28h222c9.33333 0 17.5 2.8333 24.5 8.5s10.83333 12.8333 11.5 21.5l-35.22373 296.1711c32.66667 10.6667 99.37725 39.3158 126.71053 53.3158l168.5132-235.4869c6-6 14-9 24-9 8.6667 0 17 3.3333 25 10 86 79.3333 141 136 165 170 4.6667 5.3333 7 12.6667 7 22 0 8-2.6667 15.6667-8 23-56.8113 49.1265-143.1344 124.148-217.1711 190.02635 17.3333 33.3333 31 74.1579 41 106.1579l295.1711-33.18425c8.6667 1.33333 15.6667 5.5 21 12.5s8 14.83333 8 23.5z" fill="#fff"/></svg>