<svg enable-background="new 0 0 438.533 438.533" height="438.533" viewBox="0 0 438.533 438.533" width="438.533" xmlns="http://www.w3.org/2000/svg"><g fill="#fff" transform="matrix(.71116111 0 0 .71116111 81.086716 25.671307)"><path d="m114.00636 183.39329h48.11546v91.2089c0 2.41943.75666 4.40417 2.2586 5.95965 1.49578 1.55095 3.41908 2.3305 5.7558 2.3305h48.12421c2.33849 0 4.26089-.77955 5.76459-2.3305 1.50456-1.55638 2.25596-3.54022 2.25596-5.95965v-91.20527h48.12071c3.67452 0 6.18153-1.72881 7.51932-5.181 1.33779-3.28611.74966-6.30451-1.75473-9.07152l-80.19943-82.911493c-1.83987-1.552759-3.75965-2.329596-5.76457-2.329596-2.0023 0-3.9247.776837-5.76633 2.329596l-79.94838 82.650133c-1.66959 2.07185-2.50263 4.15278-2.50263 6.21829 0 2.41581.75053 4.40417 2.25861 5.96237 1.50018 1.55367 3.42257 2.32959 5.76281 2.32959z"/><path d="m36.235244 319.24739v85.05144h316.132816v-85.05144h-36.90892v48.14252h-242.314972v-48.14252z"/></g><rect height="370.3298" ry="49.92741" style="fill:none;stroke:#fff;stroke-width:14.285204;stroke-linecap:round;stroke-linejoin:round;stroke-dashoffset:3.2759" width="408.70123" x="15.107812" y="34.101593"/></svg>