<?xml version="1.0" encoding="UTF-8" standalone="no"?>
<!-- Generator: Adobe Illustrator 16.0.0, SVG Export Plug-In . SVG Version: 6.00 Build 0)  -->

<svg
   xmlns:dc="http://purl.org/dc/elements/1.1/"
   xmlns:cc="http://creativecommons.org/ns#"
   xmlns:rdf="http://www.w3.org/1999/02/22-rdf-syntax-ns#"
   xmlns:svg="http://www.w3.org/2000/svg"
   xmlns="http://www.w3.org/2000/svg"
   xmlns:sodipodi="http://sodipodi.sourceforge.net/DTD/sodipodi-0.dtd"
   xmlns:inkscape="http://www.inkscape.org/namespaces/inkscape"
   version="1.1"
   id="Capa_1"
   x="0px"
   y="0px"
   width="438.533px"
   height="438.533px"
   viewBox="0 0 438.533 438.533"
   style="enable-background:new 0 0 438.533 438.533;"
   xml:space="preserve"
   inkscape:version="0.91 r13725"
   sodipodi:docname="upload-square.svg"><metadata
     id="metadata45"><rdf:RDF><cc:Work
         rdf:about=""><dc:format>image/svg+xml</dc:format><dc:type
           rdf:resource="http://purl.org/dc/dcmitype/StillImage" /><dc:title /></cc:Work></rdf:RDF></metadata><defs
     id="defs43" /><sodipodi:namedview
     pagecolor="#ffffff"
     bordercolor="#666666"
     borderopacity="1"
     objecttolerance="10"
     gridtolerance="10"
     guidetolerance="10"
     inkscape:pageopacity="0"
     inkscape:pageshadow="2"
     inkscape:window-width="1520"
     inkscape:window-height="931"
     id="namedview41"
     showgrid="false"
     inkscape:zoom="0.38053511"
     inkscape:cx="207.91196"
     inkscape:cy="37.635717"
     inkscape:window-x="0"
     inkscape:window-y="0"
     inkscape:window-maximized="0"
     inkscape:current-layer="Capa_1" /><g
     id="g11" /><g
     id="g13" /><g
     id="g15" /><g
     id="g17" /><g
     id="g19" /><g
     id="g21" /><g
     id="g23" /><g
     id="g25" /><g
     id="g27" /><g
     id="g29" /><g
     id="g31" /><g
     id="g33" /><g
     id="g35" /><g
     id="g37" /><g
     id="g39" /><g
     id="g4186"
     transform="matrix(0.71116111,0,0,0.71116111,81.086716,25.671307)"><path
       style="fill:#ffffff;fill-opacity:1"
       inkscape:connector-curvature="0"
       id="path9"
       d="m 114.00636,183.39329 48.11546,0 0,91.2089 c 0,2.41943 0.75666,4.40417 2.2586,5.95965 1.49578,1.55095 3.41908,2.3305 5.7558,2.3305 l 48.12421,0 c 2.33849,0 4.26089,-0.77955 5.76459,-2.3305 1.50456,-1.55638 2.25596,-3.54022 2.25596,-5.95965 l 0,-91.20527 48.12071,0 c 3.67452,0 6.18153,-1.72881 7.51932,-5.181 1.33779,-3.28611 0.74966,-6.30451 -1.75473,-9.07152 L 199.96685,86.232907 c -1.83987,-1.552759 -3.75965,-2.329596 -5.76457,-2.329596 -2.0023,0 -3.9247,0.776837 -5.76633,2.329596 l -79.94838,82.650133 c -1.66959,2.07185 -2.50263,4.15278 -2.50263,6.21829 0,2.41581 0.75053,4.40417 2.25861,5.96237 1.50018,1.55367 3.42257,2.32959 5.76281,2.32959 z" /><path
       sodipodi:nodetypes="ccccccccc"
       inkscape:connector-curvature="0"
       id="rect4150"
       d="m 36.235244,319.24739 0,85.05144 316.132816,0 0,-85.05144 -36.90892,0 0,48.14252 -242.314972,0 0,-48.14252 z"
       style="opacity:1;fill:#ffffff;fill-opacity:1;stroke:none;stroke-width:35;stroke-linejoin:round;stroke-miterlimit:4;stroke-dasharray:none;stroke-dashoffset:3.27590013;stroke-opacity:1" /></g><rect
     style="opacity:1;fill:none;fill-opacity:1;fill-rule:nonzero;stroke:#ffffff;stroke-width:14.28520393;stroke-linecap:round;stroke-linejoin:round;stroke-miterlimit:4;stroke-dasharray:none;stroke-dashoffset:3.27590013;stroke-opacity:1"
     id="rect4139"
     width="408.70123"
     height="370.3298"
     x="15.107812"
     y="34.101593"
     ry="49.92741" /></svg>