<?xml version="1.0" encoding="UTF-8" standalone="no"?>
<!-- Generator: Adobe Illustrator 16.0.0, SVG Export Plug-In . SVG Version: 6.00 Build 0)  -->

<svg
   xmlns:dc="http://purl.org/dc/elements/1.1/"
   xmlns:cc="http://creativecommons.org/ns#"
   xmlns:rdf="http://www.w3.org/1999/02/22-rdf-syntax-ns#"
   xmlns:svg="http://www.w3.org/2000/svg"
   xmlns="http://www.w3.org/2000/svg"
   xmlns:sodipodi="http://sodipodi.sourceforge.net/DTD/sodipodi-0.dtd"
   xmlns:inkscape="http://www.inkscape.org/namespaces/inkscape"
   version="1.1"
   id="Capa_1"
   x="0px"
   y="0px"
   width="365.442px"
   height="365.442px"
   viewBox="0 0 365.442 365.442"
   style="enable-background:new 0 0 365.442 365.442;"
   xml:space="preserve"
   inkscape:version="0.91 r13725"
   sodipodi:docname="doc.svg"><metadata
     id="metadata45"><rdf:RDF><cc:Work
         rdf:about=""><dc:format>image/svg+xml</dc:format><dc:type
           rdf:resource="http://purl.org/dc/dcmitype/StillImage" /></cc:Work></rdf:RDF></metadata><defs
     id="defs43" /><sodipodi:namedview
     pagecolor="#ffffff"
     bordercolor="#666666"
     borderopacity="1"
     objecttolerance="10"
     gridtolerance="10"
     guidetolerance="10"
     inkscape:pageopacity="0"
     inkscape:pageshadow="2"
     inkscape:window-width="1511"
     inkscape:window-height="985"
     id="namedview41"
     showgrid="false"
     inkscape:zoom="0.9132897"
     inkscape:cx="182.72099"
     inkscape:cy="182.72099"
     inkscape:window-x="0"
     inkscape:window-y="0"
     inkscape:window-maximized="0"
     inkscape:current-layer="g5" /><g
     id="g5"><g
       transform="matrix(1.5805014,0,0,1.5126535,52.418252,-124.67059)"
       style="font-style:normal;font-weight:normal;font-size:325px;line-height:125%;font-family:sans-serif;letter-spacing:0px;word-spacing:0px;fill:#ffffff;fill-opacity:1;stroke:none;stroke-width:1px;stroke-linecap:butt;stroke-linejoin:miter;stroke-opacity:1"
       id="flowRoot4176"><path
         d="m 62.04834,283.63586 32.214355,0 0,40.30762 -32.214355,0 0,-40.30762 z m 31.262207,-23.32764 -30.310059,0 0,-24.43847 q 0,-16.02784 4.44336,-26.34278 4.443359,-10.31494 18.725586,-23.9624 l 14.282226,-14.12353 q 9.04541,-8.41065 13.0127,-15.86914 4.12597,-7.4585 4.12597,-15.23438 0,-14.12353 -10.47363,-22.85156 -10.314942,-8.72803 -27.453614,-8.72803 -12.536621,0 -26.818848,5.5542 -14.123535,5.5542 -29.516601,16.18652 l 0,-29.83398 Q 38.244629,91.619259 53.479004,87.175899 68.87207,82.73254 85.217285,82.73254 q 29.199215,0 46.813965,15.393066 17.77344,15.393064 17.77344,40.625004 0,12.06054 -5.71289,23.01025 -5.71289,10.79102 -19.99512,24.43848 l -13.96484,13.64746 q -7.4585,7.45849 -10.632328,11.74316 -3.015137,4.12598 -4.284668,8.09326 -0.952149,3.33252 -1.428223,8.09327 -0.476074,4.76074 -0.476074,13.01269 l 0,19.51904 z"
         style="fill:#ffffff;fill-opacity:1"
         id="path4185" /></g></g><g
     id="g11" /><g
     id="g13" /><g
     id="g15" /><g
     id="g17" /><g
     id="g19" /><g
     id="g21" /><g
     id="g23" /><g
     id="g25" /><g
     id="g27" /><g
     id="g29" /><g
     id="g31" /><g
     id="g33" /><g
     id="g35" /><g
     id="g37" /><g
     id="g39" /></svg>