<?xml version="1.0" encoding="UTF-8" standalone="no"?>
<!-- Generator: Adobe Illustrator 16.0.0, SVG Export Plug-In . SVG Version: 6.00 Build 0)  -->

<svg
   xmlns:dc="http://purl.org/dc/elements/1.1/"
   xmlns:cc="http://creativecommons.org/ns#"
   xmlns:rdf="http://www.w3.org/1999/02/22-rdf-syntax-ns#"
   xmlns:svg="http://www.w3.org/2000/svg"
   xmlns="http://www.w3.org/2000/svg"
   xmlns:sodipodi="http://sodipodi.sourceforge.net/DTD/sodipodi-0.dtd"
   xmlns:inkscape="http://www.inkscape.org/namespaces/inkscape"
   version="1.1"
   id="Capa_1"
   x="0px"
   y="0px"
   width="438.536px"
   height="438.536px"
   viewBox="0 0 438.536 438.536"
   style="enable-background:new 0 0 438.536 438.536;"
   xml:space="preserve"
   inkscape:version="0.91 r13725"
   sodipodi:docname="fill.svg"><metadata
     id="metadata41"><rdf:RDF><cc:Work
         rdf:about=""><dc:format>image/svg+xml</dc:format><dc:type
           rdf:resource="http://purl.org/dc/dcmitype/StillImage" /><dc:title></dc:title></cc:Work></rdf:RDF></metadata><defs
     id="defs39" /><sodipodi:namedview
     pagecolor="#ffffff"
     bordercolor="#666666"
     borderopacity="1"
     objecttolerance="10"
     gridtolerance="10"
     guidetolerance="10"
     inkscape:pageopacity="0"
     inkscape:pageshadow="2"
     inkscape:window-width="1496"
     inkscape:window-height="880"
     id="namedview37"
     showgrid="false"
     inkscape:zoom="1.52213"
     inkscape:cx="290.40703"
     inkscape:cy="214.68798"
     inkscape:window-x="0"
     inkscape:window-y="0"
     inkscape:window-maximized="0"
     inkscape:current-layer="Capa_1"><inkscape:grid
       type="xygrid"
       id="grid4267" /></sodipodi:namedview><g
     id="g7" /><g
     id="g9" /><g
     id="g11" /><g
     id="g13" /><g
     id="g15" /><g
     id="g17" /><g
     id="g19" /><g
     id="g21" /><g
     id="g23" /><g
     id="g25" /><g
     id="g27" /><g
     id="g29" /><g
     id="g31" /><g
     id="g33" /><g
     id="g35" /><path
     style="fill:#ffffff;fill-opacity:1;fill-rule:evenodd;stroke:#ffffff;stroke-width:1.06286144px;stroke-linecap:butt;stroke-linejoin:miter;stroke-opacity:1"
     d="m 278.21134,160.61799 c 61.31462,3.48877 71.68467,10.82438 77.02551,15.10184 14.28698,11.4424 17.34438,24.00525 17.77511,40.48776 0.6269,23.98865 -7.86219,84.53203 -0.17456,129.41809 0.96297,5.62254 3.07441,13.7451 7.0871,17.43113 3.63232,3.33662 10.26996,4.06041 13.8251,4.93753 2.25981,0.55754 5.043,2.61236 4.93752,4.93754 -0.233,5.1365 -7.04231,8.05205 -11.85007,9.87505 -3.39052,1.28561 -7.84445,2.81371 -11.85008,3.95003 -5.53046,1.5689 -11.07726,3.28727 -16.78761,3.95003 -9.80921,1.13849 -19.78487,0.82763 -29.62519,0 -9.05,-0.76115 -16.87423,-1.56474 -28.37621,-3.80535 -9.50802,-1.85219 -18.58415,-3.41106 -29.48889,-4.67304 -8.17139,-0.94566 -15.75991,0.21856 -20.67496,-4.11379 0,0 -4.97307,-3.99578 -3.9194,-8.23306 5.55155,-22.3252 21.79632,-10.18991 45.10878,-9.43832 10.08852,0.32526 21.12164,-0.61331 29.45063,-6.27418 5.51247,-3.7466 7.37481,-10.35413 9.11689,-16.7876 1.89472,-6.9972 2.04248,-14.82596 2.15473,-22.07429 0.49938,-32.24775 0.52179,-64.10532 -2.38407,-96.42649 -0.5791,-6.44116 -0.86624,-9.62996 -2.14444,-15.96953 -1.67231,-8.29433 -5.78373,-14.8304 -13.18672,-20.62811 -3.10674,-2.43307 -9.12472,-6.8068 -20.16944,-11.90998 -7.86586,-3.63439 -42.01719,-11.24418 -15.84973,-9.75526 z"
     id="path4261"
     inkscape:connector-curvature="0"
     sodipodi:nodetypes="ssssssssssssssssssssssss" /><path
     style="fill:#ffffff;fill-opacity:1;fill-rule:evenodd;stroke:#ffffff;stroke-width:1.06286144px;stroke-linecap:butt;stroke-linejoin:miter;stroke-opacity:1"
     d="M 312.77407,118.64897 C 303.49396,105.34859 300.53412,101.80808 284.83134,88.404066 278.23949,82.777213 273.10641,79.071642 254.62369,68.781604 241.0669,61.234019 224.21269,54.744506 208.91277,50.940284 L 193.28579,47.054746 40.222289,200.612 c 0,0 -1.526041,28.59291 1.601063,46.03886 3.146733,17.55545 13.994522,39.48428 27.814685,55.92111 14.063545,16.72628 31.809653,30.85965 31.809653,30.85965 11.62468,8.56254 21.21225,13.6631 34.89097,18.93136 20.92292,7.17692 36.68809,8.61688 58.0612,10.56726 l 111.46166,-105.53662 -1.97501,-46.4128 c -20.56398,-14.3572 -37.90492,-23.98222 -55.63315,-37.23323 -15.2493,-13.03418 -31.87754,-29.55675 -43.20774,-47.80448 -5.55683,-8.94948 -9.91412,-17.26914 -11.61561,-29.390861 -1.02053,-7.270398 -0.27022,-12.294034 3.8058,-15.922282 4.32709,-3.851744 11.37582,-2.914902 17.25731,-2.054841 15.96158,2.334087 34.96724,11.996592 47.4853,23.260064 9.08676,7.50325 15.22351,14.05196 20.7253,21.16181 l 12.29523,16.88335 30.61271,1.48127 c 1.32945,1.32946 -1.98681,-7.16118 -12.83759,-22.71265 z"
     id="path4269"
     inkscape:connector-curvature="0"
     sodipodi:nodetypes="ssssccssccccccasssccccs" /></svg>