<?xml version="1.0" encoding="UTF-8" standalone="no"?>
<svg
   xmlns:dc="http://purl.org/dc/elements/1.1/"
   xmlns:cc="http://creativecommons.org/ns#"
   xmlns:rdf="http://www.w3.org/1999/02/22-rdf-syntax-ns#"
   xmlns:svg="http://www.w3.org/2000/svg"
   xmlns="http://www.w3.org/2000/svg"
   xmlns:sodipodi="http://sodipodi.sourceforge.net/DTD/sodipodi-0.dtd"
   xmlns:inkscape="http://www.inkscape.org/namespaces/inkscape"
   id="svg2"
   version="1.1"
   inkscape:version="0.91 r13725"
   sodipodi:docname="minus-circle.svg"
   width="1536"
   height="1536">
  <metadata
     id="metadata10">
    <rdf:RDF>
      <cc:Work
         rdf:about="">
        <dc:format>image/svg+xml</dc:format>
        <dc:type
           rdf:resource="http://purl.org/dc/dcmitype/StillImage" />
        <dc:title />
      </cc:Work>
    </rdf:RDF>
  </metadata>
  <defs
     id="defs8" />
  <sodipodi:namedview
     pagecolor="#ffffff"
     bordercolor="#666666"
     borderopacity="1"
     objecttolerance="10"
     gridtolerance="10"
     guidetolerance="10"
     inkscape:pageopacity="0"
     inkscape:pageshadow="2"
     inkscape:window-width="1421"
     inkscape:window-height="927"
     id="namedview6"
     showgrid="false"
     fit-margin-top="0"
     fit-margin-left="0"
     fit-margin-right="0"
     fit-margin-bottom="0"
     inkscape:zoom="0.24983578"
     inkscape:cx="939.92052"
     inkscape:cy="877.68449"
     inkscape:window-x="28"
     inkscape:window-y="66"
     inkscape:window-maximized="0"
     inkscape:current-layer="svg2" />
  <path
     d="M 0,768 Q 0,977 103,1153.5 206,1330 382.5,1433 559,1536 768,1536 977,1536 1153.5,1433 1330,1330 1433,1153.5 1536,977 1536,768 1536,559 1433,382.5 1330,206 1153.5,103 977,0 768,0 559,0 382.5,103 206,206 103,382.5 0,559 0,768 Z m 320,-64 q 0,-26 19,-45 19,-19 45,-19 l 768,0 q 26,0 45,19 19,19 19,45 l 0,128 q 0,26 -19,45 -19,19 -45,19 l -768,0 q -26,0 -45,-19 -19,-19 -19,-45 l 0,-128 z"
     id="path4"
     inkscape:connector-curvature="0"
     style="fill:#ffffff;fill-opacity:1" />
</svg>
