<?xml version="1.0" encoding="UTF-8" standalone="no"?>
<!-- Created with Inkscape (http://www.inkscape.org/) -->

<svg
   xmlns:dc="http://purl.org/dc/elements/1.1/"
   xmlns:cc="http://creativecommons.org/ns#"
   xmlns:rdf="http://www.w3.org/1999/02/22-rdf-syntax-ns#"
   xmlns:svg="http://www.w3.org/2000/svg"
   xmlns="http://www.w3.org/2000/svg"
   xmlns:sodipodi="http://sodipodi.sourceforge.net/DTD/sodipodi-0.dtd"
   xmlns:inkscape="http://www.inkscape.org/namespaces/inkscape"
   width="276.27344"
   height="272"
   id="svg3553"
   version="1.1"
   inkscape:version="0.91 r13725"
   sodipodi:docname="naat-bw.svg">
  <defs
     id="defs3555" />
  <sodipodi:namedview
     id="base"
     pagecolor="#ffffff"
     bordercolor="#666666"
     borderopacity="1.0"
     inkscape:pageopacity="0.0"
     inkscape:pageshadow="2"
     inkscape:zoom="1.0694369"
     inkscape:cx="290.65423"
     inkscape:cy="136.00001"
     inkscape:document-units="px"
     inkscape:current-layer="layer1"
     showgrid="false"
     fit-margin-top="0"
     fit-margin-left="0"
     fit-margin-right="0"
     fit-margin-bottom="0"
     inkscape:window-width="1235"
     inkscape:window-height="776"
     inkscape:window-x="437"
     inkscape:window-y="61"
     inkscape:window-maximized="0" />
  <metadata
     id="metadata3558">
    <rdf:RDF>
      <cc:Work
         rdf:about="">
        <dc:format>image/svg+xml</dc:format>
        <dc:type
           rdf:resource="http://purl.org/dc/dcmitype/StillImage" />
        <dc:title />
      </cc:Work>
    </rdf:RDF>
  </metadata>
  <g
     inkscape:label="Layer 1"
     inkscape:groupmode="layer"
     id="layer1"
     transform="translate(-236.86328,-396.36218)">
    <path
       style="color:#000000;fill:#ffffff;fill-opacity:1;fill-rule:nonzero;stroke:none;stroke-width:6.4000001;marker:none;visibility:visible;display:inline;overflow:visible;enable-background:accumulate"
       d="M 140.28125 0 C 77.003127 0 23.967741 43.284986 8.78125 101.8125 L 16 101.8125 L 21 101.8125 L 21 105.125 C 21.60401 104.71923 22.11756 104.16781 22.75 103.8125 L 22.78125 103.8125 C 23.87443 103.20519 25.017807 102.67246 26.1875 102.21875 C 27.357193 101.76504 28.576518 101.39504 29.8125 101.09375 C 32.284465 100.49116 34.85547 100.18753 37.53125 100.1875 C 39.699353 100.18752 41.805693 100.37815 43.8125 100.75 C 45.819307 101.12185 47.733671 101.69315 49.53125 102.4375 C 51.328829 103.18185 53.02208 104.10124 54.5625 105.21875 C 56.10292 106.33626 57.48342 107.63365 58.71875 109.125 L 58.75 109.125 C 58.75555 109.13168 58.74445 109.14957 58.75 109.15625 C 59.983802 110.64254 61.046989 112.2701 61.9375 114.03125 C 62.828011 115.7924 63.554549 117.70122 64.125 119.71875 C 64.695451 121.73628 65.10138 123.86957 65.375 126.125 C 65.64862 128.38043 65.78123 130.74391 65.78125 133.21875 L 65.78125 173.40625 L 65.78125 178.40625 L 60.78125 178.40625 L 49.84375 178.40625 L 44.84375 178.40625 L 44.84375 173.40625 L 44.84375 133.5625 C 44.84373 130.7351 44.568413 128.4524 44.09375 126.625 C 43.619087 124.7976 42.94508 123.42552 42.21875 122.5 C 41.489245 121.57051 40.679494 120.90043 39.5625 120.4375 C 38.445506 119.97457 37.02127 119.71877 35.09375 119.71875 C 33.882342 119.71876 32.812422 119.80483 31.8125 119.96875 C 30.812578 120.13267 29.891937 120.38762 29.0625 120.71875 C 28.233063 121.04988 27.481203 121.46711 26.78125 121.96875 C 26.081297 122.47039 25.42397 123.04329 24.8125 123.71875 C 24.20014 124.3952 23.659742 125.15082 23.1875 125.96875 C 22.715258 126.78668 22.323474 127.66936 22 128.65625 C 21.676526 129.64314 21.416058 130.72292 21.25 131.90625 C 21.083942 133.08958 20.999993 134.37402 21 135.78125 L 21 173.40625 L 21 178.40625 L 16 178.40625 L 11.09375 178.40625 C 28.924112 232.73103 79.992575 272 140.28125 272 C 200.57796 272 251.69957 232.75596 269.52344 178.41992 L 265.51172 178.41992 L 254.26172 178.41992 C 245.1976 178.41992 238.07308 176.98827 233.29297 172.32617 L 233.29297 172.29492 L 233.26172 172.29492 C 228.49362 167.5857 226.98046 160.45227 226.98047 151.48242 L 226.98047 120.32617 L 223.94922 120.32617 L 218.94922 120.32617 L 218.94922 115.32617 L 218.94922 106.82617 L 218.94922 101.82617 L 223.94922 101.82617 L 226.98047 101.82617 L 226.98047 87.888672 L 226.98047 82.888672 L 231.98047 82.888672 L 242.98047 82.888672 L 247.98047 82.888672 L 247.98047 87.888672 L 247.98047 101.82617 L 265.51172 101.82617 L 270.51172 101.82617 L 270.51172 106.82617 L 270.51172 115.32617 L 270.51172 120.32617 L 265.51172 120.32617 L 247.98047 120.32617 L 247.98047 151.48242 C 247.98045 155.67609 248.91171 158.11414 248.88477 158.44531 C 249.27602 158.56335 250.9973 159.26368 254.26172 159.26367 L 265.51172 159.26367 L 270.51172 159.26367 L 270.51172 164.26367 L 270.51172 173.41992 L 270.51172 175.2793 C 274.25789 162.84214 276.28125 149.65827 276.28125 136 C 276.28125 60.889271 215.39198 0 140.28125 0 z M 270.51172 175.2793 C 270.19472 176.33172 269.86508 177.37842 269.52344 178.41992 L 270.51172 178.41992 L 270.51172 175.2793 z M 106.10547 100.20117 C 116.60512 100.20124 125.4035 103.04707 131.32422 109.26367 C 137.24868 115.48449 139.85539 124.48775 139.85547 135.41992 L 139.85547 173.41992 L 139.85547 178.41992 L 134.85547 178.41992 L 123.88672 178.41992 L 118.88672 178.41992 L 118.88672 175.48242 C 118.22068 175.91006 117.55862 176.36588 116.85547 176.73242 L 116.82422 176.76367 C 112.22707 179.11112 106.86764 180.16992 100.88672 180.16992 C 93.136269 180.16992 86.233899 177.84412 81.167969 173.07617 L 81.136719 173.07617 L 81.105469 173.04492 C 76.097599 168.2354 73.574209 161.50771 73.574219 154.04492 C 73.574209 145.43954 76.788599 137.8727 83.042969 133.10742 C 89.342829 128.34535 97.952779 126.38871 108.54297 126.38867 L 118.26172 126.38867 C 117.75807 124.83778 116.99522 123.55261 115.73047 122.51367 L 115.69922 122.48242 L 115.66797 122.48242 C 113.51908 120.67017 110.19531 119.48247 104.98047 119.48242 C 101.57307 119.48247 98.277609 119.89156 95.074219 120.70117 C 91.879199 121.50875 88.827029 122.73018 85.855469 124.35742 L 78.449219 128.38867 L 78.449219 119.95117 L 78.449219 109.85742 L 78.449219 106.41992 L 81.636719 105.16992 C 85.855749 103.54085 90.017259 102.32942 94.074219 101.51367 C 94.096029 101.50928 94.114909 101.48678 94.136719 101.48242 L 94.136719 101.51367 C 98.193959 100.66366 102.18621 100.20124 106.10547 100.20117 z M 180.82422 100.20117 C 191.32387 100.20124 200.12224 103.04706 206.04297 109.26367 C 211.96742 115.48449 214.54291 124.48774 214.54297 135.41992 L 214.54297 173.41992 L 214.54297 178.41992 L 209.54297 178.41992 L 198.60547 178.41992 L 193.60547 178.41992 L 193.60547 175.48242 C 192.9351 175.91342 192.28222 176.36335 191.57422 176.73242 L 191.54297 176.73242 L 191.54297 176.76367 C 186.94582 179.11112 181.55513 180.16992 175.57422 180.16992 C 167.82377 180.16992 160.9214 177.84412 155.85547 173.07617 L 155.82422 173.04492 C 150.81635 168.2354 148.29296 161.50771 148.29297 154.04492 C 148.29296 145.43954 151.4761 137.8727 157.73047 133.10742 L 157.76172 133.10742 C 164.06158 128.34535 172.67152 126.38871 183.26172 126.38867 L 192.94922 126.38867 C 192.44554 124.83814 191.68252 123.55244 190.41797 122.51367 L 190.41797 122.48242 L 190.38672 122.48242 C 188.23781 120.67016 184.91407 119.48247 179.69922 119.48242 C 176.29182 119.48247 172.99636 119.89156 169.79297 120.70117 C 166.59795 121.50875 163.51453 122.73018 160.54297 124.35742 L 153.16797 128.38867 L 153.16797 119.95117 L 153.16797 109.85742 L 153.16797 106.41992 L 156.35547 105.16992 C 160.59719 103.5321 164.7463 102.29807 168.82422 101.48242 L 168.82422 101.51367 C 172.89201 100.65941 176.89506 100.20124 180.82422 100.20117 z M 113.01172 144.95117 C 104.55038 144.9512 98.978419 146.20857 97.199219 147.26367 C 95.305939 148.38643 94.511699 149.61429 94.511719 153.32617 C 94.511709 156.10168 95.162069 157.50826 96.636719 158.85742 C 96.648399 158.86811 96.656179 158.87799 96.667969 158.88867 C 98.182329 160.20311 100.2708 160.98243 103.79297 160.98242 C 108.68324 160.98243 111.81341 159.56708 114.57422 156.32617 C 116.9661 153.52274 118.35059 149.84012 118.73047 144.95117 L 113.01172 144.95117 z M 187.73047 144.95117 C 179.26913 144.9512 173.66592 146.20857 171.88672 147.26367 C 169.99344 148.38643 169.23045 149.61429 169.23047 153.32617 C 169.23046 156.12366 169.88728 157.52982 171.38672 158.88867 C 172.89967 160.19319 175.00461 160.98243 178.51172 160.98242 C 183.40199 160.98243 186.50091 159.56708 189.26172 156.32617 C 191.6536 153.52274 193.06934 149.84012 193.44922 144.95117 L 187.73047 144.95117 z "
       id="path5921"
       transform="translate(236.86328,396.36218)" />
  </g>
</svg>
