<?xml version="1.0" encoding="UTF-8" standalone="no"?>
<svg
   xmlns:dc="http://purl.org/dc/elements/1.1/"
   xmlns:cc="http://creativecommons.org/ns#"
   xmlns:rdf="http://www.w3.org/1999/02/22-rdf-syntax-ns#"
   xmlns:svg="http://www.w3.org/2000/svg"
   xmlns="http://www.w3.org/2000/svg"
   xmlns:sodipodi="http://sodipodi.sourceforge.net/DTD/sodipodi-0.dtd"
   xmlns:inkscape="http://www.inkscape.org/namespaces/inkscape"
   id="svg2"
   version="1.1"
   inkscape:version="0.91 r13725"
   sodipodi:docname="settings.svg"
   width="1536"
   height="1536">
  <metadata
     id="metadata10">
    <rdf:RDF>
      <cc:Work
         rdf:about="">
        <dc:format>image/svg+xml</dc:format>
        <dc:type
           rdf:resource="http://purl.org/dc/dcmitype/StillImage" />
        <dc:title />
      </cc:Work>
    </rdf:RDF>
  </metadata>
  <defs
     id="defs8" />
  <sodipodi:namedview
     pagecolor="#ffffff"
     bordercolor="#666666"
     borderopacity="1"
     objecttolerance="10"
     gridtolerance="10"
     guidetolerance="10"
     inkscape:pageopacity="0"
     inkscape:pageshadow="2"
     inkscape:window-width="1554"
     inkscape:window-height="1033"
     id="namedview6"
     showgrid="false"
     fit-margin-top="0"
     fit-margin-left="0"
     fit-margin-right="0"
     fit-margin-bottom="0"
     inkscape:zoom="0.12258057"
     inkscape:cx="880.06633"
     inkscape:cy="786.947"
     inkscape:window-x="4"
     inkscape:window-y="23"
     inkscape:window-maximized="0"
     inkscape:current-layer="svg2" />
  <path
     d="m 1024,768 c 0,70.66667 -25,131 -75,181 -50,50 -110.33333,75 -181,75 -70.66667,0 -131,-25 -181,-75 -50,-50 -75,-110.33333 -75,-181 0,-70.66667 25,-131 75,-181 50,-50 110.33333,-75 181,-75 70.66667,0 131,25 181,75 50,50 75,110.33333 75,181 z m 512,109 0,-222 c 0,-8 -2.6667,-15.66667 -8,-23 -5.3333,-7.33333 -12,-11.66667 -20,-13 l -295.1317,10.75003 c -12.6667,-36 -27.7061,-64.29386 -41.0394,-88.96053 C 1195.1622,507.45617 1343,420.66667 1391,362 c 6.6667,-8 10,-16.33333 10,-25 0,-8.66667 -3,-16.33333 -9,-23 -18,-24.66667 -51,-60.66667 -99,-108 -48,-47.33333 -79.3333,-71 -94,-71 -8,0 -16.6667,3 -26,9 L 981.97365,362.13165 C 952.64035,346.79832 916.18855,330.0527 884.85522,320.0527 874.18855,229.38603 923.66667,61.333333 915,28 910.33333,9.3333333 898.33333,0 879,0 L 657,0 c -9.33333,0 -17.5,2.8333333 -24.5,8.5 -7,5.666667 -10.83333,12.833333 -11.5,21.5 l 20.9474,292.09218 c -32.66667,10.66667 -89.17984,47.4737 -116.51317,61.4737 L 362,144 c 0,0 -16.14838,-9.30529 -25,-9 -9.09892,0.31382 -17.33882,4.00988 -25,11 -83.68091,76.3512 -139,132 -165,168 -4.66667,6.66667 -7,14.33333 -7,23 0,8 2.66667,15.66667 8,23 70.10008,66.70618 152.54327,129.8742 219.2106,196.14478 -18,33.33333 -23.50877,58.17543 -32.8421,90.8421 L 29,623 c -8.666667,1.33333 -15.666667,5.5 -21,12.5 -5.3333333,7 -8,14.83333 -8,23.5 l 0,222 c 0,8 2.6666667,15.66667 8,23 5.333333,7.33333 11.666667,11.66667 19,13 l 316.5264,-41.34215 c 9.33333,30.66667 26.41228,75.60962 43.07895,106.27632 C 359.93868,1019.9342 189.66667,1121 145,1175 c -6.66667,8 -10,16 -10,24 0,6.6667 3,14.3333 9,23 17.33333,24 50.16667,59.8333 98.5,107.5 48.33333,47.6667 79.83333,71.5 94.5,71.5 8.66667,0 17.33333,-3.3333 26,-10 l 180.82898,-239.5659 c 29.33333,15.3333 94.33774,44.3158 125.67107,54.3158 C 661.81145,1292.3377 612.33333,1474.6667 621,1508 c 4.66667,18.6667 16.66667,28 36,28 l 222,0 c 9.33333,0 17.5,-2.8333 24.5,-8.5 7,-5.6667 10.83333,-12.8333 11.5,-21.5 l -35.22373,-296.1711 c 32.66667,-10.6667 99.37725,-39.3158 126.71053,-53.3158 L 1175,1392 c 6,6 14,9 24,9 8.6667,0 17,-3.3333 25,-10 86,-79.3333 141,-136 165,-170 4.6667,-5.3333 7,-12.6667 7,-22 0,-8 -2.6667,-15.6667 -8,-23 -56.8113,-49.1265 -143.1344,-124.148 -217.1711,-190.02635 17.3333,-33.3333 31,-74.1579 41,-106.1579 L 1507,913 c 8.6667,-1.33333 15.6667,-5.5 21,-12.5 5.3333,-7 8,-14.83333 8,-23.5 z"
     id="path4"
     inkscape:connector-curvature="0"
     style="fill:#ffffff;fill-opacity:1;stroke:none"
     sodipodi:nodetypes="ssssssssssssccccscssccccsssccccsscsccccssssccccscssccccsssccccsccsccccss" />
</svg>
