<?xml version="1.0" encoding="UTF-8" standalone="no"?>
<svg
   xmlns:dc="http://purl.org/dc/elements/1.1/"
   xmlns:cc="http://creativecommons.org/ns#"
   xmlns:rdf="http://www.w3.org/1999/02/22-rdf-syntax-ns#"
   xmlns:svg="http://www.w3.org/2000/svg"
   xmlns="http://www.w3.org/2000/svg"
   xmlns:sodipodi="http://sodipodi.sourceforge.net/DTD/sodipodi-0.dtd"
   xmlns:inkscape="http://www.inkscape.org/namespaces/inkscape"
   id="svg2"
   version="1.1"
   inkscape:version="0.91 r13725"
   sodipodi:docname="times-circle.svg"
   width="1536"
   height="1536">
  <metadata
     id="metadata10">
    <rdf:RDF>
      <cc:Work
         rdf:about="">
        <dc:format>image/svg+xml</dc:format>
        <dc:type
           rdf:resource="http://purl.org/dc/dcmitype/StillImage" />
        <dc:title />
      </cc:Work>
    </rdf:RDF>
  </metadata>
  <defs
     id="defs8" />
  <sodipodi:namedview
     pagecolor="#ffffff"
     bordercolor="#666666"
     borderopacity="1"
     objecttolerance="10"
     gridtolerance="10"
     guidetolerance="10"
     inkscape:pageopacity="0"
     inkscape:pageshadow="2"
     inkscape:window-width="1583"
     inkscape:window-height="1017"
     id="namedview6"
     showgrid="false"
     fit-margin-top="0"
     fit-margin-left="0"
     fit-margin-right="0"
     fit-margin-bottom="0"
     inkscape:zoom="0.28001728"
     inkscape:cx="309.08697"
     inkscape:cy="1643.6967"
     inkscape:window-x="4"
     inkscape:window-y="23"
     inkscape:window-maximized="0"
     inkscape:current-layer="svg2" />
  <path
     d="m 1149,542 q 0,26 -19,45 l -181,181 181,181 q 19,19 19,45 0,27 -19,46 l -90,90 q -19,19 -46,19 -26,0 -45,-19 L 768,949 587,1130 q -19,19 -45,19 -27,0 -46,-19 l -90,-90 q -19,-19 -19,-46 0,-26 19,-45 L 587,768 406,587 q -19,-19 -19,-45 0,-27 19,-46 l 90,-90 q 19,-19 46,-19 26,0 45,19 L 768,587 949,406 q 19,-19 45,-19 27,0 46,19 l 90,90 q 19,19 19,46 z m 387,226 Q 1536,559 1433,382.5 1330,206 1153.5,103 977,0 768,0 559,0 382.5,103 206,206 103,382.5 0,559 0,768 0,977 103,1153.5 206,1330 382.5,1433 559,1536 768,1536 977,1536 1153.5,1433 1330,1330 1433,1153.5 1536,977 1536,768 Z"
     id="path4"
     inkscape:connector-curvature="0"
     style="stroke:none;fill:#ffffff;fill-opacity:1" />
</svg>
