<?xml version="1.0" encoding="UTF-8" standalone="no"?>
<!-- Generator: Adobe Illustrator 16.0.0, SVG Export Plug-In . SVG Version: 6.00 Build 0)  -->

<svg
   xmlns:dc="http://purl.org/dc/elements/1.1/"
   xmlns:cc="http://creativecommons.org/ns#"
   xmlns:rdf="http://www.w3.org/1999/02/22-rdf-syntax-ns#"
   xmlns:svg="http://www.w3.org/2000/svg"
   xmlns="http://www.w3.org/2000/svg"
   xmlns:sodipodi="http://sodipodi.sourceforge.net/DTD/sodipodi-0.dtd"
   xmlns:inkscape="http://www.inkscape.org/namespaces/inkscape"
   version="1.1"
   id="Capa_1"
   x="0px"
   y="0px"
   width="438.536px"
   height="438.536px"
   viewBox="0 0 438.536 438.536"
   style="enable-background:new 0 0 438.536 438.536;"
   xml:space="preserve"
   inkscape:version="0.91 r13725"
   sodipodi:docname="undo.svg"><metadata
     id="metadata41"><rdf:RDF><cc:Work
         rdf:about=""><dc:format>image/svg+xml</dc:format><dc:type
           rdf:resource="http://purl.org/dc/dcmitype/StillImage" /><dc:title></dc:title></cc:Work></rdf:RDF></metadata><defs
     id="defs39" /><sodipodi:namedview
     pagecolor="#ffffff"
     bordercolor="#666666"
     borderopacity="1"
     objecttolerance="10"
     gridtolerance="10"
     guidetolerance="10"
     inkscape:pageopacity="0"
     inkscape:pageshadow="2"
     inkscape:window-width="1253"
     inkscape:window-height="789"
     id="namedview37"
     showgrid="false"
     inkscape:zoom="0.53815421"
     inkscape:cx="219.26801"
     inkscape:cy="219.26801"
     inkscape:window-x="0"
     inkscape:window-y="0"
     inkscape:window-maximized="0"
     inkscape:current-layer="Capa_1" /><g
     id="g3"
     style="fill:#ffffff;fill-opacity:1"
     transform="matrix(0.77966051,0,0,0.77966051,48.313794,48.312625)"><path
       d="M 421.125,134.191 C 409.517,107.161 393.908,83.844 374.306,64.242 354.7,44.639 331.384,29.033 304.353,17.42 277.325,5.807 248.969,0.005 219.275,0.005 191.297,0.005 164.223,5.282 138.048,15.848 111.879,26.412 88.61,41.305 68.243,60.531 L 31.123,23.696 C 25.412,17.795 18.848,16.464 11.422,19.697 3.807,22.937 0,28.554 0,36.547 l 0,127.907 c 0,4.948 1.809,9.231 5.426,12.847 3.619,3.617 7.902,5.426 12.85,5.426 l 127.907,0 c 7.996,0 13.61,-3.807 16.846,-11.421 3.234,-7.423 1.903,-13.988 -3.999,-19.701 l -39.115,-39.398 c 13.328,-12.563 28.553,-22.222 45.683,-28.98 17.131,-6.757 35.021,-10.138 53.675,-10.138 19.793,0 38.687,3.858 56.674,11.563 17.99,7.71 33.544,18.131 46.679,31.265 13.134,13.131 23.555,28.69 31.265,46.679 7.703,17.987 11.56,36.875 11.56,56.674 0,19.798 -3.856,38.686 -11.56,56.672 -7.71,17.987 -18.131,33.544 -31.265,46.679 -13.135,13.134 -28.695,23.558 -46.679,31.265 -17.987,7.707 -36.881,11.561 -56.674,11.561 -22.651,0 -44.064,-4.949 -64.241,-14.843 -20.174,-9.894 -37.209,-23.883 -51.104,-41.973 -1.331,-1.902 -3.521,-3.046 -6.567,-3.429 -2.856,0 -5.236,0.855 -7.139,2.566 L 51.108,347.17 c -1.521,1.53 -2.33,3.478 -2.426,5.853 -0.094,2.385 0.527,4.524 1.858,6.427 20.749,25.125 45.871,44.587 75.373,58.382 29.502,13.798 60.625,20.701 93.362,20.701 29.694,0 58.05,-5.808 85.078,-17.416 27.031,-11.607 50.34,-27.22 69.949,-46.821 19.605,-19.609 35.211,-42.921 46.822,-69.949 11.611,-27.028 17.411,-55.392 17.411,-85.08 10e-4,-29.698 -5.803,-58.047 -17.41,-85.076 z"
       id="path5"
       style="fill:#ffffff;fill-opacity:1"
       inkscape:connector-curvature="0" /></g><g
     id="g7" /><g
     id="g9" /><g
     id="g11" /><g
     id="g13" /><g
     id="g15" /><g
     id="g17" /><g
     id="g19" /><g
     id="g21" /><g
     id="g23" /><g
     id="g25" /><g
     id="g27" /><g
     id="g29" /><g
     id="g31" /><g
     id="g33" /><g
     id="g35" /></svg>