<?xml version="1.0" encoding="UTF-8" standalone="no"?>
<!-- Generator: Adobe Illustrator 16.0.0, SVG Export Plug-In . SVG Version: 6.00 Build 0)  -->

<svg
   xmlns:dc="http://purl.org/dc/elements/1.1/"
   xmlns:cc="http://creativecommons.org/ns#"
   xmlns:rdf="http://www.w3.org/1999/02/22-rdf-syntax-ns#"
   xmlns:svg="http://www.w3.org/2000/svg"
   xmlns="http://www.w3.org/2000/svg"
   xmlns:sodipodi="http://sodipodi.sourceforge.net/DTD/sodipodi-0.dtd"
   xmlns:inkscape="http://www.inkscape.org/namespaces/inkscape"
   version="1.1"
   id="Capa_1"
   x="0px"
   y="0px"
   width="438.536px"
   height="438.536px"
   viewBox="0 0 438.536 438.536"
   style="enable-background:new 0 0 438.536 438.536;"
   xml:space="preserve"
   inkscape:version="0.91 r13725"
   sodipodi:docname="undo.svg"><metadata
     id="metadata41"><rdf:RDF><cc:Work
         rdf:about=""><dc:format>image/svg+xml</dc:format><dc:type
           rdf:resource="http://purl.org/dc/dcmitype/StillImage" /><dc:title /></cc:Work></rdf:RDF></metadata><defs
     id="defs39" /><sodipodi:namedview
     pagecolor="#ffffff"
     bordercolor="#666666"
     borderopacity="1"
     objecttolerance="10"
     gridtolerance="10"
     guidetolerance="10"
     inkscape:pageopacity="0"
     inkscape:pageshadow="2"
     inkscape:window-width="1253"
     inkscape:window-height="789"
     id="namedview37"
     showgrid="false"
     inkscape:zoom="0.76106498"
     inkscape:cx="239.298"
     inkscape:cy="223.77677"
     inkscape:window-x="0"
     inkscape:window-y="0"
     inkscape:window-maximized="0"
     inkscape:current-layer="Capa_1" /><g
     id="g3"
     style="fill:#ffffff;fill-opacity:1"
     transform="matrix(0.77966051,0,0,0.77966051,48.313794,48.312625)"><path
       d="M 388.54414,147.92304 C 378.80973,125.25582 365.7201,105.70231 349.28197,89.264182 332.84048,72.825202 313.28781,59.738096 290.61975,49.999496 c -22.66553,-9.7386 -46.44473,-14.604127 -71.34596,-14.604127 -23.4622,0 -46.16631,4.425264 -68.11653,13.285856 -21.94518,8.858915 -41.45845,21.348107 -58.538103,37.470927 L 61.490517,55.262517 C 56.701303,50.313969 51.196767,49.1978 44.969363,51.908976 38.583464,54.626023 35.390934,59.33641 35.390934,66.039302 l 0,107.262128 c 0,4.14937 1.517018,7.74107 4.550215,10.77343 3.034874,3.03319 6.626575,4.55021 10.775942,4.55021 l 107.262139,0 c 6.7054,0 11.41327,-3.19253 14.12696,-9.57759 2.71202,-6.22489 1.59585,-11.73026 -3.35354,-16.52115 l -32.80163,-33.03896 c 11.17679,-10.53526 23.9444,-18.63525 38.30952,-24.30247 14.36597,-5.666388 29.36843,-8.501678 45.01158,-8.501678 16.5983,0 32.44271,3.2353 47.52651,9.696668 15.08632,6.46557 28.12982,15.20456 39.14477,26.21867 11.0141,11.01158 19.75309,24.05928 26.21866,39.14476 6.45969,15.0838 9.69415,30.92318 9.69415,47.52652 0,16.6025 -3.23362,32.44187 -9.69415,47.52484 -6.46557,15.0838 -15.20456,28.12982 -26.21866,39.14476 -11.01495,11.0141 -24.06348,19.75561 -39.14477,26.21866 -15.0838,6.46305 -30.92821,9.695 -47.52651,9.695 -18.99501,0 -36.95184,-4.15021 -53.87217,-12.44726 -16.91781,-8.29706 -31.20327,-20.02816 -42.85554,-35.19834 -1.11617,-1.59501 -2.95269,-2.55436 -5.50705,-2.87554 -2.39503,0 -4.39088,0.717 -5.98673,2.15183 L 78.249837,326.5261 c -1.27551,1.28305 -1.95393,2.91663 -2.03444,4.9083 -0.0788,2.00004 0.44194,3.7938 1.55811,5.38964 17.40001,21.0697 38.467183,37.39043 63.207403,48.95884 24.74022,11.57093 50.83981,17.35975 78.29288,17.35975 24.90123,0 48.68043,-4.87056 71.34596,-14.60497 22.66806,-9.73356 42.21486,-22.82654 58.65887,-39.26384 16.44065,-16.444 29.52775,-35.99332 39.26468,-58.65886 9.73692,-22.66554 14.60077,-46.45144 14.60077,-71.34764 8.4e-4,-24.90458 -4.86637,-48.67791 -14.59993,-71.34428 z"
       id="path5"
       style="fill:#ffffff;fill-opacity:1"
       inkscape:connector-curvature="0" /></g><g
     id="g7" /><g
     id="g9" /><g
     id="g11" /><g
     id="g13" /><g
     id="g15" /><g
     id="g17" /><g
     id="g19" /><g
     id="g21" /><g
     id="g23" /><g
     id="g25" /><g
     id="g27" /><g
     id="g29" /><g
     id="g31" /><g
     id="g33" /><g
     id="g35" /></svg>